<svg width="117" height="32" viewBox="0 0 117 32" fill="none" xmlns="http://www.w3.org/2000/svg">
<path d="M3 11C3 5.47715 7.47715 1 13 1C14.1046 1 15 1.89543 15 3V11C15 12.1046 14.1046 13 13 13H5C3.89543 13 3 12.1046 3 11Z" fill="#089CFF"/>
<path d="M3 15H7C11.4183 15 15 18.5817 15 23V31H11C6.58172 31 3 27.4183 3 23V15Z" fill="#EC007F"/>
<path d="M17 7C17 3.68629 19.6863 1 23 1C26.3137 1 29 3.68629 29 7C29 10.3137 26.3137 13 23 13C19.6863 13 17 10.3137 17 7Z" fill="#FFBB36"/>
<path d="M17 17C17 15.8954 17.8954 15 19 15H23C26.3137 15 29 17.6863 29 21C29 24.3137 26.3137 27 23 27C19.6863 27 17 24.3137 17 21V17Z" fill="#9330F5"/>
<path d="M37.517 25V7.54545H44.4034C45.7273 7.54545 46.8551 7.7983 47.7869 8.30398C48.7188 8.80398 49.429 9.5 49.9176 10.392C50.4119 11.2784 50.6591 12.3011 50.6591 13.4602C50.6591 14.6193 50.4091 15.642 49.9091 16.5284C49.4091 17.4148 48.6847 18.1051 47.7358 18.5994C46.7926 19.0937 45.6506 19.3409 44.3097 19.3409H39.9205V16.3835H43.7131C44.4233 16.3835 45.0085 16.2614 45.4688 16.017C45.9347 15.767 46.2813 15.4233 46.5085 14.9858C46.7415 14.5426 46.858 14.0341 46.858 13.4602C46.858 12.8807 46.7415 12.375 46.5085 11.9432C46.2813 11.5057 45.9347 11.1676 45.4688 10.929C45.0028 10.6847 44.4119 10.5625 43.696 10.5625H41.2074V25H37.517ZM56.3693 25.2472C55.5341 25.2472 54.7898 25.1023 54.1364 24.8125C53.483 24.517 52.9659 24.0824 52.5852 23.5085C52.2102 22.929 52.0227 22.2074 52.0227 21.3438C52.0227 20.6165 52.1563 20.0057 52.4233 19.5114C52.6903 19.017 53.054 18.6193 53.5142 18.3182C53.9744 18.017 54.4972 17.7898 55.0824 17.6364C55.6733 17.483 56.2926 17.375 56.9403 17.3125C57.7017 17.233 58.3153 17.1591 58.7812 17.0909C59.2472 17.017 59.5852 16.9091 59.7955 16.767C60.0057 16.625 60.1108 16.4148 60.1108 16.1364V16.0852C60.1108 15.5455 59.9403 15.1278 59.5994 14.8324C59.2642 14.5369 58.7869 14.3892 58.1676 14.3892C57.5142 14.3892 56.9943 14.5341 56.608 14.8239C56.2216 15.108 55.9659 15.4659 55.8409 15.8977L52.483 15.625C52.6534 14.8295 52.9886 14.142 53.4886 13.5625C53.9886 12.9773 54.6335 12.5284 55.4233 12.2159C56.2188 11.8977 57.1392 11.7386 58.1847 11.7386C58.9119 11.7386 59.608 11.8239 60.2727 11.9943C60.9432 12.1648 61.5369 12.429 62.054 12.7869C62.5767 13.1449 62.9886 13.6051 63.2898 14.1676C63.5909 14.7244 63.7415 15.392 63.7415 16.1705V25H60.2983V23.1847H60.196C59.9858 23.5938 59.7045 23.9545 59.3523 24.267C59 24.5739 58.5767 24.8153 58.0824 24.9915C57.5881 25.1619 57.017 25.2472 56.3693 25.2472ZM57.4091 22.7415C57.9432 22.7415 58.4148 22.6364 58.8239 22.4261C59.233 22.2102 59.554 21.9205 59.7869 21.5568C60.0199 21.1932 60.1364 20.7812 60.1364 20.321V18.9318C60.0227 19.0057 59.8665 19.0739 59.6676 19.1364C59.4744 19.1932 59.2557 19.2472 59.0114 19.2983C58.767 19.3437 58.5227 19.3864 58.2784 19.4261C58.0341 19.4602 57.8125 19.4915 57.6136 19.5199C57.1875 19.5824 56.8153 19.6818 56.4972 19.8182C56.179 19.9545 55.9318 20.1392 55.7557 20.3722C55.5795 20.5994 55.4915 20.8835 55.4915 21.2244C55.4915 21.7188 55.6705 22.0966 56.0284 22.358C56.392 22.6136 56.8523 22.7415 57.4091 22.7415ZM77.4503 15.642L74.1264 15.8466C74.0696 15.5625 73.9474 15.3068 73.7599 15.0795C73.5724 14.8466 73.3253 14.6619 73.0185 14.5256C72.7173 14.3835 72.3565 14.3125 71.9361 14.3125C71.3736 14.3125 70.8991 14.4318 70.5128 14.6705C70.1264 14.9034 69.9332 15.2159 69.9332 15.608C69.9332 15.9205 70.0582 16.1847 70.3082 16.4006C70.5582 16.6165 70.9872 16.7898 71.5952 16.9205L73.9645 17.3977C75.2372 17.6591 76.1861 18.0795 76.8111 18.6591C77.4361 19.2386 77.7486 20 77.7486 20.9432C77.7486 21.8011 77.4957 22.554 76.9901 23.2017C76.4901 23.8494 75.8026 24.3551 74.9276 24.7188C74.0582 25.0767 73.0554 25.2557 71.919 25.2557C70.1861 25.2557 68.8054 24.8949 67.777 24.1733C66.7543 23.446 66.1548 22.4574 65.9787 21.2074L69.5497 21.0199C69.6577 21.5483 69.919 21.9517 70.3338 22.2301C70.7486 22.5028 71.2798 22.6392 71.9276 22.6392C72.5639 22.6392 73.0753 22.517 73.4616 22.2727C73.8537 22.0227 74.0526 21.7017 74.0582 21.3097C74.0526 20.9801 73.9134 20.7102 73.6406 20.5C73.3679 20.2841 72.9474 20.1193 72.3793 20.0057L70.1122 19.554C68.8338 19.2983 67.8821 18.8551 67.2571 18.2244C66.6378 17.5937 66.3281 16.7898 66.3281 15.8125C66.3281 14.9716 66.5554 14.2472 67.0099 13.6392C67.4702 13.0312 68.1151 12.5625 68.9446 12.233C69.7798 11.9034 70.7571 11.7386 71.8764 11.7386C73.5298 11.7386 74.831 12.0881 75.7798 12.7869C76.7344 13.4858 77.2912 14.4375 77.4503 15.642ZM90.9268 15.642L87.603 15.8466C87.5462 15.5625 87.424 15.3068 87.2365 15.0795C87.049 14.8466 86.8018 14.6619 86.495 14.5256C86.1939 14.3835 85.8331 14.3125 85.4126 14.3125C84.8501 14.3125 84.3757 14.4318 83.9893 14.6705C83.603 14.9034 83.4098 15.2159 83.4098 15.608C83.4098 15.9205 83.5348 16.1847 83.7848 16.4006C84.0348 16.6165 84.4638 16.7898 85.0717 16.9205L87.4411 17.3977C88.7138 17.6591 89.6626 18.0795 90.2876 18.6591C90.9126 19.2386 91.2251 20 91.2251 20.9432C91.2251 21.8011 90.9723 22.554 90.4666 23.2017C89.9666 23.8494 89.2791 24.3551 88.4041 24.7188C87.5348 25.0767 86.532 25.2557 85.3956 25.2557C83.6626 25.2557 82.282 24.8949 81.2536 24.1733C80.2308 23.446 79.6314 22.4574 79.4553 21.2074L83.0263 21.0199C83.1342 21.5483 83.3956 21.9517 83.8104 22.2301C84.2251 22.5028 84.7564 22.6392 85.4041 22.6392C86.0405 22.6392 86.5518 22.517 86.9382 22.2727C87.3303 22.0227 87.5291 21.7017 87.5348 21.3097C87.5291 20.9801 87.3899 20.7102 87.1172 20.5C86.8445 20.2841 86.424 20.1193 85.8558 20.0057L83.5888 19.554C82.3104 19.2983 81.3587 18.8551 80.7337 18.2244C80.1143 17.5937 79.8047 16.7898 79.8047 15.8125C79.8047 14.9716 80.032 14.2472 80.4865 13.6392C80.9467 13.0312 81.5916 12.5625 82.4212 12.233C83.2564 11.9034 84.2337 11.7386 85.353 11.7386C87.0064 11.7386 88.3075 12.0881 89.2564 12.7869C90.2109 13.4858 90.7678 14.4375 90.9268 15.642ZM99.4261 25.2557C98.1023 25.2557 96.9574 24.9744 95.9915 24.4119C95.0313 23.8437 94.2898 23.054 93.767 22.0426C93.2443 21.0256 92.983 19.8466 92.983 18.5057C92.983 17.1534 93.2443 15.9716 93.767 14.9602C94.2898 13.9432 95.0313 13.1534 95.9915 12.5909C96.9574 12.0227 98.1023 11.7386 99.4261 11.7386C100.75 11.7386 101.892 12.0227 102.852 12.5909C103.818 13.1534 104.562 13.9432 105.085 14.9602C105.608 15.9716 105.869 17.1534 105.869 18.5057C105.869 19.8466 105.608 21.0256 105.085 22.0426C104.562 23.054 103.818 23.8437 102.852 24.4119C101.892 24.9744 100.75 25.2557 99.4261 25.2557ZM99.4432 22.4432C100.045 22.4432 100.548 22.2727 100.952 21.9318C101.355 21.5852 101.659 21.1136 101.864 20.517C102.074 19.9205 102.179 19.2415 102.179 18.4801C102.179 17.7188 102.074 17.0398 101.864 16.4432C101.659 15.8466 101.355 15.375 100.952 15.0284C100.548 14.6818 100.045 14.5085 99.4432 14.5085C98.8352 14.5085 98.3239 14.6818 97.9091 15.0284C97.5 15.375 97.1903 15.8466 96.9801 16.4432C96.7756 17.0398 96.6733 17.7188 96.6733 18.4801C96.6733 19.2415 96.7756 19.9205 96.9801 20.517C97.1903 21.1136 97.5 21.5852 97.9091 21.9318C98.3239 22.2727 98.8352 22.4432 99.4432 22.4432Z" fill="white"/>
<path d="M107.213 4.39702V3.63636H110.797V4.39702H109.461V8H108.549V4.39702H107.213ZM111.387 3.63636H112.525L113.727 6.56818H113.778L114.979 3.63636H116.117V8H115.222V5.1598H115.186L114.057 7.97869H113.447L112.318 5.14915H112.282V8H111.387V3.63636Z" fill="white"/>
</svg>
