<svg width="90" height="24" viewBox="0 0 90 24" fill="none" xmlns="http://www.w3.org/2000/svg">
<path d="M2.21875 8.13287C2.21875 4.05003 5.52855 0.740234 9.61139 0.740234C10.428 0.740234 11.0899 1.40219 11.0899 2.21876V8.13287C11.0899 8.94944 10.428 9.6114 9.61139 9.6114H3.69728C2.88071 9.6114 2.21875 8.94944 2.21875 8.13287Z" fill="#089CFF"/>
<path d="M2.21875 11.0898H5.17581C8.44208 11.0898 11.0899 13.7377 11.0899 17.004V22.9181H8.13286C4.86659 22.9181 2.21875 20.2702 2.21875 17.004V11.0898Z" fill="#EC007F"/>
<path d="M12.5684 5.17582C12.5684 2.72611 14.5542 0.740234 17.0039 0.740234C19.4536 0.740234 21.4395 2.72611 21.4395 5.17582C21.4395 7.62552 19.4536 9.6114 17.0039 9.6114C14.5542 9.6114 12.5684 7.62552 12.5684 5.17582Z" fill="#FFBB36"/>
<path d="M12.5684 12.5684C12.5684 11.7518 13.2303 11.0898 14.0469 11.0898H17.0039C19.4536 11.0898 21.4395 13.0757 21.4395 15.5254C21.4395 17.9751 19.4536 19.961 17.0039 19.961C14.5542 19.961 12.5684 17.9751 12.5684 15.5254V12.5684Z" fill="#9330F5"/>
<path d="M28.7777 18V5.09649H33.8686C34.8473 5.09649 35.681 5.2834 36.3699 5.65723C37.0588 6.02687 37.5838 6.54141 37.945 7.20087C38.3105 7.85612 38.4932 8.61219 38.4932 9.46906C38.4932 10.3259 38.3084 11.082 37.9387 11.7373C37.5691 12.3925 37.0336 12.9029 36.3321 13.2683C35.6348 13.6337 34.7906 13.8164 33.7993 13.8164H30.5545V11.6301H33.3582C33.8833 11.6301 34.3159 11.5398 34.6562 11.3592C35.0006 11.1744 35.2568 10.9203 35.4248 10.5969C35.597 10.2692 35.6831 9.8933 35.6831 9.46906C35.6831 9.04063 35.597 8.66679 35.4248 8.34757C35.2568 8.02414 35.0006 7.77422 34.6562 7.5978C34.3117 7.41719 33.8749 7.32688 33.3456 7.32688H31.5059V18H28.7777ZM42.7146 18.1827C42.0971 18.1827 41.5468 18.0756 41.0638 17.8614C40.5808 17.643 40.1985 17.3216 39.9171 16.8974C39.6399 16.469 39.5013 15.9355 39.5013 15.2971C39.5013 14.7594 39.6 14.3079 39.7974 13.9424C39.9948 13.577 40.2636 13.283 40.6039 13.0604C40.9441 12.8378 41.3305 12.6697 41.7632 12.5563C42.2 12.4429 42.6578 12.3631 43.1367 12.3169C43.6995 12.2581 44.1532 12.2035 44.4976 12.1531C44.842 12.0985 45.092 12.0187 45.2474 11.9137C45.4028 11.8087 45.4805 11.6533 45.4805 11.4474V11.4096C45.4805 11.0106 45.3545 10.7019 45.1025 10.4835C44.8546 10.265 44.5018 10.1558 44.044 10.1558C43.5609 10.1558 43.1766 10.2629 42.891 10.4772C42.6053 10.6872 42.4163 10.9518 42.3239 11.271L39.8415 11.0694C39.9675 10.4814 40.2153 9.97311 40.585 9.54467C40.9546 9.11203 41.4313 8.7802 42.0152 8.54918C42.6032 8.31396 43.2837 8.19635 44.0566 8.19635C44.5942 8.19635 45.1088 8.25936 45.6002 8.38537C46.0958 8.51138 46.5348 8.7067 46.917 8.97132C47.3034 9.23594 47.608 9.57617 47.8306 9.99201C48.0532 10.4036 48.1645 10.8972 48.1645 11.4726V18H45.6191V16.658H45.5435C45.3881 16.9604 45.1802 17.2271 44.9197 17.4582C44.6593 17.685 44.3464 17.8635 43.981 17.9937C43.6155 18.1197 43.1934 18.1827 42.7146 18.1827ZM43.4832 16.3304C43.8781 16.3304 44.2267 16.2526 44.5291 16.0972C44.8315 15.9376 45.0689 15.7234 45.2411 15.4546C45.4133 15.1858 45.4994 14.8812 45.4994 14.541V13.514C45.4154 13.5686 45.2999 13.619 45.1529 13.6652C45.01 13.7072 44.8483 13.7471 44.6677 13.7849C44.4871 13.8185 44.3065 13.85 44.1259 13.8794C43.9453 13.9046 43.7814 13.9277 43.6344 13.9487C43.3194 13.995 43.0443 14.0685 42.8091 14.1693C42.5738 14.2701 42.3911 14.4066 42.2609 14.5788C42.1307 14.7468 42.0656 14.9568 42.0656 15.2089C42.0656 15.5743 42.1979 15.8536 42.4625 16.0468C42.7314 16.2358 43.0716 16.3304 43.4832 16.3304ZM58.2989 11.082L55.8417 11.2332C55.7997 11.0232 55.7094 10.8342 55.5708 10.6662C55.4322 10.494 55.2495 10.3574 55.0227 10.2566C54.8 10.1516 54.5333 10.0991 54.2225 10.0991C53.8067 10.0991 53.4559 10.1873 53.1703 10.3637C52.8847 10.536 52.7419 10.767 52.7419 11.0568C52.7419 11.2878 52.8343 11.4831 53.0191 11.6428C53.2039 11.8024 53.521 11.9305 53.9705 12.0271L55.722 12.3799C56.6629 12.5731 57.3644 12.884 57.8264 13.3124C58.2884 13.7408 58.5195 14.3037 58.5195 15.0009C58.5195 15.6352 58.3325 16.1917 57.9587 16.6706C57.5891 17.1494 57.0808 17.5233 56.434 17.7921C55.7913 18.0567 55.05 18.189 54.2099 18.189C52.9288 18.189 51.9081 17.9223 51.1478 17.3888C50.3918 16.8512 49.9486 16.1203 49.8184 15.1963L52.4583 15.0576C52.5381 15.4483 52.7314 15.7465 53.038 15.9523C53.3446 16.1539 53.7374 16.2547 54.2162 16.2547C54.6866 16.2547 55.0647 16.1644 55.3503 15.9838C55.6401 15.799 55.7871 15.5617 55.7913 15.2719C55.7871 15.0282 55.6842 14.8287 55.4826 14.6733C55.281 14.5137 54.9702 14.3919 54.5501 14.3079L52.8742 13.974C51.9291 13.7849 51.2255 13.4573 50.7635 12.9911C50.3057 12.5248 50.0767 11.9305 50.0767 11.208C50.0767 10.5864 50.2448 10.0508 50.5808 9.60137C50.921 9.15194 51.3978 8.80541 52.011 8.56178C52.6285 8.31816 53.3509 8.19635 54.1784 8.19635C55.4007 8.19635 56.3626 8.45468 57.064 8.97132C57.7697 9.48796 58.1813 10.1915 58.2989 11.082ZM68.2617 11.082L65.8045 11.2332C65.7625 11.0232 65.6722 10.8342 65.5335 10.6662C65.3949 10.494 65.2122 10.3574 64.9854 10.2566C64.7628 10.1516 64.4961 10.0991 64.1852 10.0991C63.7694 10.0991 63.4187 10.1873 63.133 10.3637C62.8474 10.536 62.7046 10.767 62.7046 11.0568C62.7046 11.2878 62.797 11.4831 62.9818 11.6428C63.1666 11.8024 63.4838 11.9305 63.9332 12.0271L65.6848 12.3799C66.6256 12.5731 67.3271 12.884 67.7891 13.3124C68.2512 13.7408 68.4822 14.3037 68.4822 15.0009C68.4822 15.6352 68.2953 16.1917 67.9215 16.6706C67.5518 17.1494 67.0436 17.5233 66.3967 17.7921C65.7541 18.0567 65.0127 18.189 64.1726 18.189C62.8915 18.189 61.8708 17.9223 61.1106 17.3888C60.3545 16.8512 59.9114 16.1203 59.7811 15.1963L62.4211 15.0576C62.5009 15.4483 62.6941 15.7465 63.0007 15.9523C63.3074 16.1539 63.7001 16.2547 64.1789 16.2547C64.6494 16.2547 65.0274 16.1644 65.313 15.9838C65.6029 15.799 65.7499 15.5617 65.7541 15.2719C65.7499 15.0282 65.647 14.8287 65.4453 14.6733C65.2437 14.5137 64.9329 14.3919 64.5129 14.3079L62.8369 13.974C61.8918 13.7849 61.1883 13.4573 60.7262 12.9911C60.2684 12.5248 60.0395 11.9305 60.0395 11.208C60.0395 10.5864 60.2075 10.0508 60.5435 9.60137C60.8837 9.15194 61.3605 8.80541 61.9737 8.56178C62.5912 8.31816 63.3137 8.19635 64.1411 8.19635C65.3634 8.19635 66.3253 8.45468 67.0268 8.97132C67.7324 9.48796 68.1441 10.1915 68.2617 11.082ZM74.5449 18.189C73.5662 18.189 72.7198 17.9811 72.0058 17.5653C71.2959 17.1452 70.7478 16.5614 70.3613 15.8137C69.9749 15.0618 69.7817 14.1903 69.7817 13.199C69.7817 12.1993 69.9749 11.3256 70.3613 10.578C70.7478 9.82609 71.2959 9.24224 72.0058 8.82641C72.7198 8.40637 73.5662 8.19635 74.5449 8.19635C75.5236 8.19635 76.3679 8.40637 77.0777 8.82641C77.7918 9.24224 78.342 9.82609 78.7285 10.578C79.1149 11.3256 79.3081 12.1993 79.3081 13.199C79.3081 14.1903 79.1149 15.0618 78.7285 15.8137C78.342 16.5614 77.7918 17.1452 77.0777 17.5653C76.3679 17.9811 75.5236 18.189 74.5449 18.189ZM74.5575 16.1098C75.0027 16.1098 75.3745 15.9838 75.6727 15.7318C75.9709 15.4756 76.1956 15.127 76.3469 14.6859C76.5023 14.2449 76.58 13.7429 76.58 13.1801C76.58 12.6172 76.5023 12.1153 76.3469 11.6743C76.1956 11.2332 75.9709 10.8846 75.6727 10.6284C75.3745 10.3721 75.0027 10.244 74.5575 10.244C74.1081 10.244 73.73 10.3721 73.4234 10.6284C73.121 10.8846 72.8921 11.2332 72.7366 11.6743C72.5854 12.1153 72.5098 12.6172 72.5098 13.1801C72.5098 13.7429 72.5854 14.2449 72.7366 14.6859C72.8921 15.127 73.121 15.4756 73.4234 15.7318C73.73 15.9838 74.1081 16.1098 74.5575 16.1098Z" fill="black"/>
<path d="M80.8138 3.33644V2.77412H83.4631V3.33644H82.4755V6H81.8014V3.33644H80.8138ZM83.8995 2.77412H84.7406L85.629 4.94151H85.6668L86.5551 2.77412H87.3963V6H86.7347V3.90034H86.7079L85.8731 5.98425H85.4226L84.5878 3.89247H84.561V6H83.8995V2.77412Z" fill="black"/>
</svg>
