<svg xmlns="http://www.w3.org/2000/svg" width="24" height="24" viewBox="0 0 24 24" fill="none">
    <path d="M5.71839 11.3939C6.09623 11.399 6.48073 11.5349 6.80473 11.8012C7.74528 12.5705 8.68582 13.3386 9.62637 14.1054C9.92845 14.3524 10.1028 14.3447 10.3744 14.0708C13.2967 11.1073 16.2191 8.14493 19.1414 5.18351C19.2886 5.0352 19.4573 4.95784 19.6793 5.02366C19.7717 5.04734 19.853 5.09735 19.9108 5.16614C19.9687 5.23493 20 5.31874 20 5.40491C19.9922 5.50421 19.9572 5.60024 19.898 5.68444C18.6672 7.4699 17.4336 9.25379 16.1973 11.0361C14.5373 13.4353 12.8773 15.8343 11.2173 18.2329C10.9433 18.6291 10.5764 18.9023 10.0538 18.9783C9.47056 19.0638 8.98218 18.8954 8.61006 18.4889C7.27659 17.0303 5.9463 15.5688 4.61918 14.1045C4.37332 13.8361 4.12842 13.5732 4.04027 13.2189C3.80919 12.2944 4.59964 11.3956 5.71839 11.3939Z" fill="#00AB56"/>
</svg>