<svg xmlns="http://www.w3.org/2000/svg" width="24" height="24" viewBox="0 0 24 24" fill="none">
    <path d="M8.62058 14.391C7.84002 15.0009 7.08479 15.5937 6.32739 16.1831C5.96809 16.4626 5.57323 16.7017 5.25002 17.0206C4.85894 17.4046 4.93705 17.9335 5.41163 18.1988C5.65881 18.3299 5.9282 18.4075 6.20403 18.427C6.86211 18.4881 7.52234 18.3384 8.09913 17.9974C8.88022 17.5347 9.64408 17.0377 10.4047 16.5379C10.5555 16.4387 10.6433 16.4341 10.7759 16.5511C11.53 17.2157 12.3327 17.8062 13.2263 18.229C13.8649 18.5242 14.5243 18.7661 15.1985 18.9525C15.6865 19.0905 16.1606 18.9148 16.5657 18.5942C16.9314 18.3038 16.9481 17.9597 16.6082 17.6408C16.3669 17.4126 16.0895 17.2323 15.8438 17.0132C14.9636 16.219 14.087 15.4203 13.2139 14.617C13.1337 14.5434 13.0674 14.4538 12.985 14.3608C13.4978 13.8365 14.0085 13.3338 14.5009 12.8084C16.0178 11.1972 17.4588 9.51579 18.5841 7.5657C18.7845 7.21539 18.9493 6.80403 18.9914 6.4058C19.0829 5.53516 18.4376 4.96462 17.511 5.00171C16.7192 5.03195 16.0658 5.35487 15.5809 6.0224C14.8806 6.9866 14.2202 7.9839 13.4919 8.92186C12.7378 9.89177 11.9297 10.8046 11.1411 11.742C11.0897 11.7937 11.0358 11.8425 10.9795 11.8881C10.6563 11.3609 10.3271 10.8548 10.0276 10.3305C9.71734 9.78622 9.455 9.20998 9.13502 8.67254C8.5527 7.69407 7.70374 7.26331 6.61505 7.41736C5.67828 7.552 5.20046 8.31424 5.42563 9.28586C5.58239 9.96423 5.9223 10.5496 6.30046 11.1036C6.99806 12.1266 7.72474 13.1279 8.43958 14.1383C8.47998 14.2005 8.52361 14.2587 8.62058 14.391Z" fill="#FF424F"/>
</svg>