<svg xmlns="http://www.w3.org/2000/svg" width="20" height="20" viewBox="0 0 20 20" fill="none">
    <g clip-path="url(#clip0_712_15189)">
        <rect width="20" height="20" rx="3" fill="black"/>
        <path fill-rule="evenodd" clip-rule="evenodd" d="M10 4.28571C6.84379 4.28571 4.28571 6.84448 4.28571 10C4.28571 13.1555 6.84448 15.7143 10 15.7143C13.1555 15.7143 15.7143 13.1555 15.7143 10C15.7143 6.84448 13.1562 4.28571 10 4.28571ZM10 13.7091C7.95104 13.7091 6.29086 12.0483 6.29086 10C6.29086 7.95104 7.95173 6.29086 10 6.29086C12.049 6.29086 13.7091 7.95173 13.7091 10C13.7091 12.049 12.049 13.7091 10 13.7091Z" fill="#4B5563"/>
        <path d="M16.7142 4.28571C16.7142 5.07469 16.0746 5.71429 15.2856 5.71429C14.4967 5.71429 13.8571 5.07469 13.8571 4.28571C13.8571 3.49674 14.4967 2.85714 15.2856 2.85714C16.0746 2.85714 16.7142 3.49674 16.7142 4.28571Z" fill="#4B5563"/>
        <path fill-rule="evenodd" clip-rule="evenodd" d="M10 0C7.28438 0 6.94375 0.0112498 5.87687 0.0599998C4.25187 0.134375 2.82438 0.5325 1.67813 1.67813C0.5325 2.82375 0.134375 4.25125 0.0599998 5.87687C0.0112498 6.94375 0 7.28438 0 10C0 12.7156 0.0112498 13.0562 0.0599998 14.1231C0.134375 15.7481 0.5325 17.1756 1.67813 18.3219C2.82375 19.4675 4.25125 19.8656 5.87687 19.94C6.94375 19.9888 7.28438 20 10 20C12.7156 20 13.0562 19.9888 14.1231 19.94C15.7481 19.8656 17.1756 19.4675 18.3219 18.3219C19.4675 17.1763 19.8656 15.7488 19.94 14.1231C19.9888 13.0562 20 12.7156 20 10C20 7.28438 19.9888 6.94375 19.94 5.87687C19.8656 4.25187 19.4675 2.82438 18.3219 1.67813C17.1763 0.5325 15.7488 0.134375 14.1231 0.0599998C13.0562 0.0112498 12.7156 0 10 0ZM10 1.80188C12.67 1.80188 12.9862 1.81187 14.0406 1.86C15.1788 1.91187 16.235 2.14 17.0475 2.9525C17.86 3.765 18.0881 4.82125 18.14 5.95937C18.1881 7.01375 18.1981 7.33 18.1981 10C18.1981 12.67 18.1881 12.9862 18.14 14.0406C18.0881 15.1788 17.86 16.235 17.0475 17.0475C16.235 17.86 15.1788 18.0881 14.0406 18.14C12.9862 18.1881 12.67 18.1981 10 18.1981C7.33 18.1981 7.01375 18.1881 5.95937 18.14C4.82125 18.0881 3.765 17.86 2.9525 17.0475C2.14 16.235 1.91187 15.1788 1.86 14.0406C1.81187 12.9862 1.80188 12.67 1.80188 10C1.80188 7.33 1.81187 7.01375 1.86 5.95937C1.91187 4.82125 2.14 3.765 2.9525 2.9525C3.765 2.14 4.82125 1.91187 5.95937 1.86C7.01375 1.81187 7.33 1.80188 10 1.80188Z" fill="#4B5563"/>
    </g>
    <defs>
        <clipPath id="clip0_712_15189">
            <rect width="20" height="20" fill="white"/>
        </clipPath>
    </defs>
</svg>