<svg xmlns="http://www.w3.org/2000/svg" width="20" height="20" viewBox="0 0 20 20" fill="none">
    <path d="M10.4922 2.5C10.7024 2.53914 10.9142 2.56811 11.1225 2.61508C12.1109 2.84344 12.9893 3.40819 13.6073 4.2127C14.2253 5.01721 14.5445 6.01147 14.5103 7.02537C14.4761 8.03927 14.0907 9.00978 13.4199 9.77085C12.7491 10.5319 11.8347 11.0362 10.8332 11.1975C8.4708 11.5788 6.23526 9.97426 5.82855 7.60562C5.40187 5.12268 7.17708 2.78889 9.69172 2.52466C9.72462 2.51875 9.75707 2.51051 9.7888 2.5H10.4922ZM12.6734 6.41445L12.637 6.39371C12.637 6.15649 12.4769 5.97251 12.2299 5.93258C11.8975 5.87896 11.5644 5.82846 11.2321 5.78305C11.1311 5.76935 11.0684 5.73295 11.025 5.63469C10.8845 5.31841 10.7306 5.00838 10.5873 4.69523C10.4985 4.4995 10.3505 4.40438 10.1391 4.40477C9.92776 4.40516 9.78136 4.50303 9.6929 4.69836C9.54767 5.01778 9.39266 5.3325 9.24782 5.65192C9.23456 5.6878 9.21121 5.71908 9.18058 5.74199C9.14995 5.76491 9.11336 5.77849 9.07519 5.7811C8.74716 5.82729 8.42031 5.88326 8.09188 5.92867C7.89068 5.95607 7.73958 6.0461 7.67147 6.24183C7.60336 6.43755 7.65346 6.60509 7.79673 6.75071C8.04608 7.00475 8.29739 7.25958 8.54048 7.51833C8.58543 7.57036 8.60807 7.63801 8.6035 7.70661C8.55366 8.06414 8.49638 8.42022 8.43166 8.77487C8.39251 8.9886 8.44066 9.16631 8.61681 9.29197C8.79296 9.41762 8.98125 9.39766 9.16484 9.29197C9.45333 9.12874 9.74574 8.97294 10.0335 8.80853C10.0651 8.78701 10.1025 8.7755 10.1407 8.7755C10.179 8.7755 10.2163 8.78701 10.248 8.80853C10.5525 8.9826 10.8594 9.15222 11.1686 9.31741C11.2472 9.36392 11.3382 9.38512 11.4293 9.37812C11.5203 9.37111 11.607 9.33625 11.6775 9.27827C11.8302 9.16083 11.8858 9.00191 11.8545 8.81167C11.7938 8.44645 11.7296 8.08162 11.6783 7.71562C11.6725 7.64254 11.6957 7.57011 11.7429 7.51402C11.9813 7.25645 12.2369 7.01415 12.4725 6.75384C12.5598 6.65715 12.608 6.52719 12.6734 6.41445Z" fill="#FF4C1E"/>
    <path d="M13.8923 10.645C14.2176 11.2204 14.5343 11.7802 14.8506 12.3408C15.3349 13.1985 15.8188 14.0566 16.3021 14.9149C16.479 15.2281 16.3479 15.5768 16.0226 15.645C15.9261 15.6594 15.8281 15.6603 15.7314 15.6477C15.172 15.6054 14.6122 15.5616 14.0532 15.5126C13.9565 15.5044 13.9057 15.5303 13.8622 15.6199C13.6117 16.1378 13.3533 16.6514 13.1008 17.1689C13.0085 17.3583 12.8765 17.491 12.6577 17.4996C12.4303 17.509 12.2937 17.3763 12.188 17.1865C11.2702 15.5541 10.3503 13.9231 9.4283 12.2934C9.40246 12.2476 9.37898 12.2002 9.3457 12.1368C11.0959 12.3435 12.6072 11.8612 13.8923 10.645Z" fill="#FF4C1E"/>
    <path d="M6.34382 10.6602C6.74074 10.9416 7.1318 11.2215 7.52833 11.4967C7.61144 11.5568 7.70264 11.6049 7.79921 11.6396C7.99494 11.7045 8.1018 11.8427 8.1977 12.0157C8.63064 12.7963 9.07219 13.5717 9.51531 14.3468C9.53959 14.3816 9.55261 14.4231 9.55261 14.4656C9.55261 14.5081 9.53959 14.5495 9.51531 14.5844C9.01948 15.4531 8.52795 16.3242 8.04074 17.1977C7.937 17.3836 7.79647 17.5058 7.57805 17.4999C7.35962 17.494 7.22575 17.3605 7.13493 17.1699C6.88675 16.6563 6.63036 16.147 6.38492 15.6319C6.33638 15.5301 6.28001 15.5051 6.17276 15.5145C5.59381 15.5642 5.01447 15.6049 4.43591 15.6526C4.24019 15.6687 4.07696 15.6084 3.96814 15.4424C3.85931 15.2765 3.86597 15.1011 3.96148 14.9293C4.74646 13.5201 5.53196 12.1099 6.31798 10.6989C6.32442 10.6847 6.33315 10.6716 6.34382 10.6602Z" fill="#FF4C1E"/>
</svg>