<svg xmlns="http://www.w3.org/2000/svg" width="121" height="35" viewBox="0 0 121 35" fill="none">
    <path fill-rule="evenodd" clip-rule="evenodd" d="M76.1997 10.3101L74.1997 6.93014L70.6497 8.62014L68.6497 5.23014L65.0997 6.93014L63.1097 3.53014L59.5597 5.23014L57.5597 1.84014L54.0097 3.54014L52.0197 0.140137L48.4597 1.84014L40.9297 26.3601L50.0797 29.1601C50.4244 28.055 51.153 27.1095 52.1339 26.4947C53.1148 25.8798 54.2833 25.6361 55.4282 25.8076C56.5731 25.9791 57.6189 26.5545 58.3766 27.4298C59.1343 28.305 59.554 29.4225 59.5597 30.5801V30.6801C59.5797 31.1201 59.5297 31.5601 59.3997 32.0001L68.6997 34.8501L76.1997 10.3101Z" fill="#D61920"/>
    <path fill-rule="evenodd" clip-rule="evenodd" d="M48.78 24.34C48.5487 24.3017 48.3388 24.1818 48.1884 24.002C48.0379 23.8222 47.9569 23.5944 47.96 23.36V11.36C47.9587 11.2283 47.9837 11.0976 48.0334 10.9757C48.0832 10.8538 48.1568 10.743 48.25 10.6499C48.3431 10.5568 48.4539 10.4832 48.5758 10.4334C48.6977 10.3836 48.8284 10.3586 48.96 10.36H57.6301C58.1409 10.3587 58.647 10.458 59.1194 10.6523C59.5919 10.8465 60.0215 11.132 60.3836 11.4923C60.7458 11.8525 61.0334 12.2806 61.2301 12.7521C61.4268 13.2236 61.5287 13.7291 61.53 14.24V23.36C61.5298 23.5073 61.497 23.6527 61.434 23.7858C61.371 23.9189 61.2794 24.0365 61.1658 24.1301C61.0521 24.2237 60.9191 24.2911 60.7764 24.3274C60.6336 24.3637 60.4846 24.368 60.34 24.34C60.1106 24.2996 59.903 24.1788 59.7546 23.9992C59.6061 23.8196 59.5265 23.593 59.53 23.36V14.25C59.53 13.7461 59.3299 13.2628 58.9736 12.9065C58.6172 12.5502 58.134 12.35 57.6301 12.35H55.7401V23.35C55.7408 23.484 55.7147 23.6167 55.6631 23.7404C55.6116 23.8641 55.5357 23.9762 55.44 24.07C55.3262 24.1829 55.1866 24.2664 55.0333 24.3135C54.88 24.3605 54.7176 24.3696 54.5601 24.34C54.3287 24.3017 54.1188 24.1818 53.9684 24.002C53.8179 23.8222 53.7369 23.5944 53.7401 23.36V12.35H49.96V23.35C49.961 23.4971 49.9294 23.6426 49.8677 23.7761C49.8059 23.9096 49.7155 24.0279 49.6028 24.1224C49.4901 24.217 49.3579 24.2855 49.2157 24.3231C49.0735 24.3607 48.9247 24.3665 48.78 24.34ZM63.2001 29.57C62.967 29.5315 62.7557 29.4101 62.605 29.2282C62.4544 29.0463 62.3745 28.8161 62.3801 28.58C62.3812 28.3176 62.4853 28.0662 62.67 27.88C62.8547 27.6916 63.1063 27.5837 63.37 27.58C64.22 27.58 64.9501 27.04 65.1901 26.23L66.2201 22.8L62.85 11.53C62.8099 11.4039 62.7951 11.2712 62.8066 11.1394C62.818 11.0076 62.8556 10.8794 62.917 10.7622C62.9783 10.645 63.0624 10.5411 63.1642 10.4566C63.266 10.3722 63.3835 10.3087 63.51 10.27C63.7619 10.2002 64.031 10.2297 64.2618 10.3525C64.4925 10.4753 64.6673 10.682 64.75 10.93L67.25 19.33L69.7901 10.93C69.9101 10.47 70.4201 10.16 70.9401 10.26L71.0101 10.27C71.5501 10.44 71.8501 11.01 71.6901 11.54L68.2201 23.1L67.1201 26.8C66.8732 27.5962 66.3837 28.2955 65.7201 28.8C65.045 29.3063 64.2239 29.58 63.3801 29.58C63.3199 29.5823 63.2596 29.5789 63.2001 29.57Z" fill="#FEFEFE"/>
    <path fill-rule="evenodd" clip-rule="evenodd" d="M2.0801 22.1504H4.0401C4.56258 22.1504 5.06365 21.9428 5.4331 21.5734C5.80255 21.2039 6.0101 20.7028 6.0101 20.1804V14.4104C6.01142 14.1517 5.96176 13.8952 5.86398 13.6557C5.76619 13.4162 5.62218 13.1983 5.44018 13.0144C5.25817 12.8306 5.04174 12.6844 4.80323 12.5841C4.56472 12.4839 4.3088 12.4317 4.0501 12.4304H2.0801V22.1304V22.1504ZM0.8501 24.2104C0.609987 24.1698 0.392309 24.0447 0.236414 23.8576C0.0805202 23.6705 -0.00330232 23.4338 9.96254e-05 23.1904V5.27036C-0.00166797 5.13325 0.0239572 4.99718 0.0754726 4.8701C0.126988 4.74303 0.203356 4.62753 0.3001 4.53036C0.417145 4.40882 0.562256 4.3179 0.722676 4.26559C0.883095 4.21328 1.05391 4.20118 1.2201 4.23036C1.7201 4.33036 2.0801 4.75036 2.0801 5.26036V10.3604H4.0401C4.57148 10.359 5.0979 10.4626 5.58921 10.665C6.08052 10.8675 6.52707 11.1648 6.90328 11.5401C7.27949 11.9154 7.57797 12.3612 7.78162 12.852C7.98527 13.3428 8.0901 13.869 8.0901 14.4004V20.1704C8.08746 21.241 7.66097 22.2671 6.90389 23.0242C6.14682 23.7812 5.12076 24.2077 4.0501 24.2104H1.0401C0.973268 24.2143 0.906204 24.211 0.8401 24.2004L0.8501 24.2104Z" fill="#333545"/>
    <path fill-rule="evenodd" clip-rule="evenodd" d="M15.14 12.3499C15.0277 12.3303 14.914 12.3203 14.8 12.3199C14.5406 12.3172 14.2832 12.3664 14.043 12.4644C13.8028 12.5625 13.5845 12.7075 13.4011 12.891C13.2176 13.0744 13.0726 13.2927 12.9745 13.5329C12.8765 13.7731 12.8273 14.0305 12.83 14.2899V20.2999C12.8287 20.559 12.8787 20.8158 12.9773 21.0554C13.0758 21.295 13.2209 21.5127 13.4041 21.6959C13.5873 21.8791 13.805 22.0241 14.0446 22.1227C14.2842 22.2212 14.5409 22.2712 14.8 22.2699C15.3225 22.2699 15.8236 22.0624 16.193 21.6929C16.5625 21.3235 16.77 20.8224 16.77 20.2999V14.2999C16.77 13.3299 16.08 12.5199 15.14 12.3499ZM14.09 24.2999C13.1524 24.135 12.3032 23.6442 11.6921 22.9142C11.0811 22.1842 10.7474 21.2619 10.75 20.3099V14.2999C10.7483 13.768 10.8526 13.2411 11.0569 12.75C11.2613 12.259 11.5615 11.8136 11.94 11.4399C12.3155 11.0645 12.7615 10.767 13.2523 10.5645C13.7431 10.362 14.2691 10.2585 14.8 10.2599C15.8715 10.2599 16.8991 10.6856 17.6567 11.4432C18.4144 12.2009 18.84 13.2284 18.84 14.2999V20.3099C18.84 21.3899 18.42 22.4099 17.65 23.1799C17.2761 23.5546 16.8318 23.8517 16.3427 24.0541C15.8536 24.2566 15.3294 24.3606 14.8 24.3599C14.562 24.3609 14.3245 24.3408 14.09 24.2999ZM25.89 12.3599C25.7778 12.3402 25.664 12.3302 25.55 12.3299C25.2906 12.3272 25.0332 12.3764 24.793 12.4744C24.5528 12.5725 24.3345 12.7175 24.1511 12.901C23.9676 13.0844 23.8226 13.3027 23.7245 13.5429C23.6265 13.7831 23.5773 14.0405 23.58 14.2999V20.3099C23.5787 20.569 23.6287 20.8258 23.7273 21.0654C23.8258 21.305 23.9709 21.5227 24.1541 21.7059C24.3373 21.8891 24.555 22.0341 24.7946 22.1327C25.0342 22.2312 25.2909 22.2812 25.55 22.2799C25.8091 22.2812 26.0659 22.2312 26.3055 22.1327C26.5451 22.0341 26.7628 21.8891 26.946 21.7059C27.1292 21.5227 27.2742 21.305 27.3728 21.0654C27.4713 20.8258 27.5213 20.569 27.52 20.3099V14.2999C27.52 13.3399 26.83 12.5299 25.89 12.3599ZM24.84 24.2999C23.9043 24.1329 23.0574 23.6412 22.4483 22.9114C21.8392 22.1816 21.507 21.2605 21.51 20.3099V14.2999C21.5116 13.7106 21.6418 13.1287 21.8915 12.5948C22.1412 12.061 22.5043 11.5881 22.9557 11.2091C23.407 10.8301 23.9357 10.5542 24.5046 10.4006C25.0736 10.247 25.6693 10.2195 26.25 10.3199C27.1878 10.4825 28.038 10.9708 28.6509 11.699C29.2637 12.4271 29.5999 13.3482 29.6 14.2999V20.3099C29.6012 20.8441 29.4957 21.3732 29.2897 21.866C29.0836 22.3589 28.7811 22.8056 28.4 23.1799C28.0261 23.5546 27.5818 23.8517 27.0927 24.0541C26.6036 24.2566 26.0794 24.3606 25.55 24.3599C25.31 24.3599 25.07 24.3399 24.84 24.2999ZM33.11 24.3399C32.8699 24.2994 32.6522 24.1742 32.4963 23.9872C32.3404 23.8001 32.2566 23.5634 32.26 23.3199V5.26991C32.26 4.98991 32.36 4.71991 32.56 4.52991C32.678 4.41347 32.8223 4.3272 32.9807 4.27846C33.1392 4.22971 33.307 4.21992 33.47 4.24991C33.97 4.32991 34.34 4.75991 34.34 5.26991V15.9499L39.12 10.5899C39.36 10.3299 39.72 10.2099 40.08 10.2699C40.2615 10.3003 40.4316 10.3787 40.5725 10.4971C40.7134 10.6155 40.8201 10.7694 40.8813 10.943C40.9426 11.1165 40.9562 11.3033 40.9208 11.4839C40.8854 11.6645 40.8023 11.8323 40.68 11.9699L37.07 15.9999L40.8 22.8299C40.8672 22.9451 40.9106 23.0726 40.9278 23.2048C40.945 23.337 40.9355 23.4714 40.9 23.5999C40.8614 23.7324 40.7962 23.8556 40.7086 23.9622C40.6209 24.0688 40.5125 24.1564 40.39 24.2199C40.1783 24.3416 39.9302 24.3842 39.69 24.3399C39.5406 24.3147 39.3986 24.2568 39.2742 24.1703C39.1497 24.0839 39.0459 23.9711 38.97 23.8399L35.61 17.6599L34.33 19.0699V23.3199C34.33 23.5957 34.2204 23.8603 34.0254 24.0553C33.8304 24.2503 33.5658 24.3599 33.29 24.3599C33.22 24.3599 33.16 24.3599 33.09 24.3399H33.11ZM78.92 24.3299C78.3577 24.2357 77.8234 24.0172 77.3563 23.6902C76.8892 23.3632 76.501 22.9361 76.22 22.4399C76.0826 22.1968 76.0467 21.9093 76.12 21.6399C76.2 21.3799 76.37 21.1599 76.6 21.0199C76.8136 20.9032 77.061 20.8644 77.3 20.9099C77.6 20.9599 77.87 21.1399 78.02 21.4099C78.29 21.8699 78.72 22.1699 79.25 22.2599C79.5233 22.3074 79.8037 22.2925 80.0704 22.2163C80.3371 22.1401 80.5831 22.0046 80.79 21.8199C81.19 21.4499 81.39 20.9199 81.34 20.3999C81.3289 20.1334 81.2552 19.8732 81.1249 19.6404C80.9947 19.4076 80.8114 19.2088 80.59 19.0599L77.79 17.0699C77.3338 16.7496 76.9539 16.3326 76.6774 15.8486C76.4008 15.3646 76.2344 14.8256 76.19 14.2699C76.1538 13.7093 76.2458 13.1478 76.4589 12.628C76.672 12.1082 77.0007 11.6438 77.42 11.2699C77.8291 10.8896 78.3178 10.6052 78.8506 10.4374C79.3834 10.2697 79.9468 10.2227 80.5 10.2999C81.68 10.4999 82.64 11.1799 83.19 12.1399C83.3225 12.3798 83.357 12.6617 83.2861 12.9265C83.2153 13.1912 83.0446 13.4183 82.81 13.5599C82.5983 13.6816 82.3502 13.7242 82.11 13.6799C81.9606 13.6547 81.8186 13.5968 81.6942 13.5103C81.5697 13.4239 81.4659 13.3111 81.39 13.1799C81.2646 12.9678 81.0937 12.786 80.8897 12.6477C80.6857 12.5094 80.4536 12.4179 80.21 12.3799C79.9609 12.3348 79.7046 12.3484 79.4616 12.4196C79.2186 12.4907 78.9955 12.6175 78.81 12.7899C78.6289 12.9608 78.4876 13.1694 78.396 13.401C78.3044 13.6325 78.2648 13.8814 78.28 14.1299C78.3 14.6199 78.58 15.0999 79 15.3799L81.8 17.3299C82.2753 17.6627 82.6684 18.0997 82.9491 18.6074C83.2299 19.1152 83.3909 19.6804 83.42 20.2599C83.4663 20.8367 83.3775 21.4163 83.1605 21.9528C82.9435 22.4892 82.6043 22.9676 82.17 23.3499C81.7476 23.7424 81.243 24.0358 80.6929 24.2088C80.1428 24.3818 79.5611 24.43 78.99 24.3499L78.91 24.3299H78.92ZM86.95 24.3599C86.7098 24.3177 86.4921 24.1924 86.3349 24.006C86.1777 23.8195 86.091 23.5838 86.09 23.3399V5.28991C86.0887 5.15297 86.1147 5.01713 86.1665 4.89035C86.2183 4.76357 86.2948 4.64839 86.3917 4.55155C86.4885 4.45471 86.6037 4.37815 86.7305 4.32636C86.8572 4.27457 86.9931 4.24858 87.13 4.24991L87.33 4.25991C87.83 4.35991 88.17 4.76991 88.17 5.28991V10.3899H90.14C90.6709 10.3886 91.1969 10.4922 91.6876 10.6948C92.1784 10.8973 92.6243 11.1948 92.9997 11.5703C93.3751 11.9457 93.6726 12.3916 93.8752 12.8823C94.0777 13.3731 94.1813 13.899 94.18 14.4299V23.3299C94.1809 23.4809 94.1485 23.6302 94.0853 23.7673C94.022 23.9045 93.9294 24.026 93.8139 24.1233C93.6985 24.2206 93.563 24.2914 93.4172 24.3305C93.2714 24.3697 93.1187 24.3763 92.97 24.3499C92.47 24.2599 92.11 23.8299 92.11 23.3199V14.4199C92.11 14.1617 92.059 13.906 91.9599 13.6675C91.8608 13.4291 91.7155 13.2126 91.5324 13.0304C91.3494 12.8483 91.1321 12.7041 90.8932 12.6062C90.6542 12.5083 90.3983 12.4586 90.14 12.4599H88.17V23.3299C88.1712 23.4819 88.1386 23.6323 88.0748 23.7702C88.0109 23.9082 87.9173 24.0303 87.8007 24.1278C87.6841 24.2253 87.5473 24.2958 87.4003 24.3342C87.2532 24.3726 87.0994 24.378 86.95 24.3499V24.3599ZM101.23 12.3699C100.947 12.3185 100.655 12.3301 100.377 12.404C100.099 12.4779 99.84 12.6123 99.6195 12.7975C99.3989 12.9827 99.2219 13.2143 99.101 13.4757C98.9801 13.7371 98.9183 14.0219 98.92 14.3099V20.3199C98.9187 20.5781 98.9684 20.8341 99.0663 21.073C99.1642 21.312 99.3084 21.5292 99.4905 21.7123C99.6727 21.8954 99.8892 22.0406 100.128 22.1398C100.366 22.2389 100.622 22.2899 100.88 22.2899C101.4 22.2899 101.9 22.0899 102.27 21.7199C102.455 21.5371 102.602 21.319 102.702 21.0786C102.801 20.8381 102.852 20.5802 102.85 20.3199V14.2999C102.85 13.3399 102.17 12.5199 101.22 12.3599L101.23 12.3699ZM100.17 24.2899C99.2351 24.125 98.3884 23.6353 97.7792 22.9072C97.17 22.1791 96.8374 21.2593 96.84 20.3099V14.2999C96.8401 13.7097 96.9692 13.1267 97.2183 12.5916C97.4674 12.0565 97.8304 11.5824 98.2819 11.2023C98.7334 10.8222 99.2625 10.5454 99.8322 10.3913C100.402 10.2371 100.998 10.2094 101.58 10.3099C102.519 10.4728 103.371 10.9626 103.984 11.6928C104.597 12.423 104.932 13.3465 104.93 14.2999V20.3099C104.93 20.8425 104.825 21.3698 104.619 21.861C104.412 22.3521 104.11 22.7971 103.73 23.1699C103.271 23.6305 102.708 23.973 102.088 24.1681C101.468 24.3631 100.81 24.4049 100.17 24.2899Z" fill="#333545"/>
    <path fill-rule="evenodd" clip-rule="evenodd" d="M120.9 11.5403C120.934 11.4132 120.943 11.2807 120.925 11.1503C120.908 11.0199 120.865 10.8942 120.8 10.7803C120.724 10.6589 120.625 10.5539 120.508 10.4714C120.391 10.389 120.259 10.3308 120.12 10.3003C119.862 10.2515 119.595 10.303 119.374 10.4443C119.153 10.5855 118.994 10.8058 118.93 11.0603C118.93 11.1103 117.81 15.6203 116.93 19.0503L116.91 19.1203L116.89 19.0503L114.89 11.0703C114.851 10.8755 114.754 10.6972 114.611 10.5595C114.468 10.4218 114.286 10.3313 114.09 10.3003C114.03 10.2886 113.97 10.2819 113.91 10.2803C113.45 10.2803 113.05 10.6003 112.92 11.0603C112.91 11.1103 111.79 15.6203 110.92 19.0503L110.9 19.1203L110.88 19.0503C110.03 15.6203 108.88 11.1103 108.88 11.0603C108.833 10.8689 108.731 10.6952 108.587 10.5604C108.443 10.4255 108.264 10.3351 108.07 10.3003C107.903 10.2708 107.732 10.2833 107.571 10.3364C107.411 10.3895 107.266 10.4817 107.15 10.6047C107.034 10.7277 106.951 10.8775 106.907 11.0408C106.863 11.2042 106.861 11.3758 106.9 11.5403L109.91 23.5703C109.967 23.7907 110.094 23.9864 110.273 24.1273C110.452 24.2682 110.672 24.3465 110.9 24.3503C111.39 24.3503 111.78 24.0303 111.88 23.5703L113.88 15.5803L113.91 15.5103L113.93 15.5803C114.81 19.0503 115.93 23.5803 115.93 23.5803C115.989 23.7965 116.117 23.9878 116.293 24.1264C116.469 24.265 116.685 24.3434 116.91 24.3503C117.14 24.3575 117.366 24.2832 117.547 24.1405C117.728 23.9979 117.853 23.796 117.9 23.5703L120.9 11.5403Z" fill="#333545"/>
</svg>