<svg xmlns="http://www.w3.org/2000/svg" width="95" height="32" viewBox="0 0 95 32" fill="none">
    <g clip-path="url(#clip0_755_6001)">
        <path d="M40.427 16.4106C40.427 20.8523 36.9379 24.1254 32.6559 24.1254C28.3739 24.1254 24.8848 20.8523 24.8848 16.4106C24.8848 11.9375 28.3739 8.6958 32.6559 8.6958C36.9379 8.6958 40.427 11.9375 40.427 16.4106ZM37.0252 16.4106C37.0252 13.6349 35.003 11.7358 32.6559 11.7358C30.3088 11.7358 28.2866 13.6349 28.2866 16.4106C28.2866 19.1584 30.3088 21.0854 32.6559 21.0854C35.003 21.0854 37.0252 19.1549 37.0252 16.4106Z" fill="#EA4335"/>
        <path d="M57.1917 16.4106C57.1917 20.8523 53.7025 24.1254 49.4206 24.1254C45.1386 24.1254 41.6494 20.8523 41.6494 16.4106C41.6494 11.941 45.1386 8.6958 49.4206 8.6958C53.7025 8.6958 57.1917 11.9375 57.1917 16.4106ZM53.7898 16.4106C53.7898 13.6349 51.7676 11.7358 49.4206 11.7358C47.0735 11.7358 45.0513 13.6349 45.0513 16.4106C45.0513 19.1584 47.0735 21.0854 49.4206 21.0854C51.7676 21.0854 53.7898 19.1549 53.7898 16.4106Z" fill="#FBBC05"/>
        <path d="M73.258 9.16189V23.0123C73.258 28.7097 69.8841 31.0367 65.8955 31.0367C62.1409 31.0367 59.8811 28.5358 59.0289 26.4906L61.9907 25.2628C62.5181 26.5184 63.8104 28.0001 65.892 28.0001C68.4451 28.0001 70.0273 26.4315 70.0273 23.4784V22.3688H69.9085C69.1471 23.3045 67.6802 24.1219 65.8291 24.1219C61.9558 24.1219 58.4072 20.7619 58.4072 16.4384C58.4072 12.0836 61.9558 8.6958 65.8291 8.6958C67.6767 8.6958 69.1436 9.51319 69.9085 10.421H70.0273V9.16537H73.258V9.16189ZM70.2683 16.4384C70.2683 13.7219 68.4486 11.7358 66.133 11.7358C63.7859 11.7358 61.8195 13.7219 61.8195 16.4384C61.8195 19.1271 63.7859 21.0854 66.133 21.0854C68.4486 21.0854 70.2683 19.1271 70.2683 16.4384Z" fill="#4285F4"/>
        <path d="M78.5846 1.04346V23.6522H75.2666V1.04346H78.5846Z" fill="#34A853"/>
        <path d="M91.514 18.9498L94.1544 20.7028C93.3022 21.9585 91.2485 24.1219 87.7 24.1219C83.2993 24.1219 80.0127 20.7341 80.0127 16.4072C80.0127 11.8193 83.3272 8.69238 87.3193 8.69238C91.3394 8.69238 93.3057 11.8785 93.9484 13.6002L94.3011 14.4767L83.9454 18.748C84.7383 20.2959 85.9712 21.0854 87.7 21.0854C89.4324 21.0854 90.6338 20.2367 91.514 18.9498ZM83.3866 16.1741L90.309 13.3115C89.9283 12.348 88.7827 11.6767 87.4346 11.6767C85.7057 11.6767 83.2993 13.1967 83.3866 16.1741Z" fill="#EA4335"/>
        <path d="M12.3258 14.4036V11.1305H23.401C23.5092 11.701 23.5651 12.3757 23.5651 13.1062C23.5651 15.5618 22.8911 18.5984 20.7186 20.7618C18.6056 22.9531 15.9058 24.1218 12.3293 24.1218C5.70024 24.1218 0.125977 18.7444 0.125977 12.1427C0.125977 5.54097 5.70024 0.163574 12.3293 0.163574C15.9966 0.163574 18.6091 1.59662 20.5719 3.46444L18.2528 5.77401C16.8453 4.45923 14.9383 3.43662 12.3258 3.43662C7.48498 3.43662 3.69895 7.32184 3.69895 12.1427C3.69895 16.9636 7.48498 20.8488 12.3258 20.8488C15.4657 20.8488 17.2539 19.5931 18.3995 18.4523C19.3286 17.5271 19.9398 16.2053 20.1808 14.4001L12.3258 14.4036Z" fill="#4285F4"/>
    </g>
    <defs>
        <clipPath id="clip0_755_6001">
            <rect width="95" height="32" fill="white"/>
        </clipPath>
    </defs>
</svg>