<svg width="116" height="30" viewBox="0 0 116 30" fill="none" xmlns="http://www.w3.org/2000/svg">
    <g clip-path="url(#clip0_755_6009)">
        <path d="M68.8179 12.8556H71.8772V23.5699H68.8179V22.177C67.7253 23.7842 66.3049 23.8913 65.4308 23.8913C62.0436 23.8913 59.8584 21.3199 59.8584 18.2127C59.8584 14.9985 62.0436 12.5342 65.2122 12.5342C66.0863 12.5342 67.7253 12.6413 68.7086 14.2485V12.8556H68.8179ZM63.1363 18.2127C63.1363 19.927 64.3381 21.2127 66.1956 21.2127C67.9438 21.2127 69.2549 19.927 69.2549 18.2127C69.2549 16.4985 68.0531 15.2128 66.1956 15.2128C64.4474 15.2128 63.1363 16.4985 63.1363 18.2127Z" fill="black"/>
        <path d="M77.8862 15.4282V23.571H74.8269V15.4282H73.625V12.8567H74.8269V9.21387H77.8862V12.8567H79.9622V15.4282H77.8862Z" fill="black"/>
        <path d="M87.1738 15.427C86.4089 14.7842 85.7534 14.677 85.4256 14.677C84.6607 14.677 84.2237 14.9985 84.2237 15.5342C84.2237 15.8556 84.333 16.177 85.2071 16.4985L85.9719 16.7128C86.846 17.0342 88.1571 17.3556 88.7034 18.2127C89.0312 18.6413 89.2498 19.2842 89.2498 20.0342C89.2498 20.9985 88.922 21.9627 88.0479 22.7127C87.1738 23.4627 86.0812 23.8913 84.77 23.8913C82.4755 23.8913 81.2736 22.8199 80.5088 22.0699L82.1477 20.2485C82.8033 20.8913 83.6774 21.5342 84.5515 21.5342C85.4256 21.5342 86.0812 21.1056 86.0812 20.3556C86.0812 19.7127 85.5349 19.3913 85.0978 19.2842L84.4422 19.0699C83.6774 18.7485 82.8033 18.427 82.1477 17.7842C81.6014 17.2485 81.2736 16.6056 81.2736 15.7485C81.2736 14.677 81.8199 13.8199 82.3662 13.2842C83.2403 12.6413 84.333 12.5342 85.2071 12.5342C85.9719 12.5342 87.283 12.6413 88.7034 13.7128L87.1738 15.427Z" fill="black"/>
        <path d="M93.8386 14.2499C94.9313 12.7499 96.4609 12.5356 97.335 12.5356C100.504 12.5356 102.689 14.9999 102.689 18.2141C102.689 21.4284 100.504 23.8927 97.2258 23.8927C96.5702 23.8927 94.9313 23.7856 93.7294 22.1784V23.5713H90.7793V5.57129H93.8386V14.2499ZM93.5109 18.2141C93.5109 19.9284 94.7127 21.2141 96.5702 21.2141C98.3184 21.2141 99.6295 19.9284 99.6295 18.2141C99.6295 16.4999 98.4277 15.2141 96.5702 15.2141C94.7127 15.2141 93.5109 16.4999 93.5109 18.2141Z" fill="black"/>
        <path d="M107.714 21.9636L102.47 12.8564H106.075L109.463 18.9636L112.522 12.8564H116.018L107.277 29.2493H103.781L107.714 21.9636Z" fill="black"/>
        <path d="M59.0933 14.6766H56.0339H51.4449V17.6766H55.4876C54.8321 19.7123 53.3024 21.1052 50.4616 21.1052C47.293 21.1052 44.9985 18.5338 44.9985 15.4266C44.9985 12.3195 47.1837 9.6409 50.3523 9.6409C52.1005 9.6409 53.8487 10.498 54.9413 11.8909L57.4543 10.2838C55.8154 8.03376 53.1931 6.74805 50.3523 6.74805C45.5448 6.74805 41.6113 10.6052 41.6113 15.4266C41.6113 20.248 45.3262 24.1052 50.3523 24.1052C55.3784 24.1052 59.0933 20.248 59.0933 15.4266C59.2025 15.1052 59.0933 14.8909 59.0933 14.6766Z" fill="black"/>
        <path d="M27.4062 14.9986H19.7578V17.1415H25.0024C24.2376 20.3558 21.8338 23.0343 18.6652 24.1058L6.10006 11.7843C7.4112 8.03432 11.1261 5.35575 15.3873 5.35575C18.6652 5.35575 21.6153 6.96289 23.4727 9.42718L25.1117 8.03432C22.9264 5.14146 19.43 3.21289 15.3873 3.21289C9.70571 3.21289 4.89817 7.17718 3.69629 12.4272L18.1189 26.57C23.3635 25.2843 27.4062 20.57 27.4062 14.9986Z" fill="white"/>
        <path d="M3.36816 15.1074C3.36816 18.1074 4.57005 21.0003 6.86455 23.2503C9.15906 25.5003 12.2184 26.6789 15.1685 26.6789L3.36816 15.1074Z" fill="white"/>
        <path d="M15.3875 0C6.97434 0 0.0908203 6.75 0.0908203 15C0.0908203 23.25 6.97434 30 15.3875 30C23.8007 30 30.6842 23.25 30.6842 15C30.6842 6.75 23.8007 0 15.3875 0ZM6.86507 23.3571C4.57057 21.1071 3.36869 18.1071 3.36869 15.2143L15.2783 26.7857C12.2189 26.6786 9.15958 25.6071 6.86507 23.3571ZM18.0098 26.4643L3.69647 12.4286C4.89836 7.17857 9.70589 3.21429 15.3875 3.21429C19.4302 3.21429 22.9266 5.14286 25.1119 8.03571L23.4729 9.42857C21.6155 6.96429 18.6654 5.35714 15.3875 5.35714C11.1263 5.35714 7.52065 8.03571 6.10024 11.7857L18.6654 24.1071C21.834 23.0357 24.2378 20.3571 25.0026 17.1429H19.758V15H27.4064C27.4064 20.5714 23.3637 25.2857 18.0098 26.4643Z" fill="#663399"/>
    </g>
    <defs>
        <clipPath id="clip0_755_6009">
            <rect width="116" height="30" fill="white"/>
        </clipPath>
    </defs>
</svg>
