<svg xmlns="http://www.w3.org/2000/svg" width="112" height="32" viewBox="0 0 112 32" fill="none">
    <path d="M12.129 5.29688V14.3232H3.90462V5.29688H0V26.8436H3.90462V18.1104H12.129V26.8436H16.0336V5.29688H12.129Z" fill="#33475B"/>
    <path d="M28.5295 19.8787C28.5295 20.7422 28.1892 21.5704 27.5834 22.181C26.9776 22.7916 26.1559 23.1346 25.2992 23.1346C24.4425 23.1346 23.6209 22.7916 23.0151 22.181C22.4093 21.5704 22.069 20.7422 22.069 19.8787V10.6499H18.3652V19.8787C18.3652 21.7305 19.0951 23.5065 20.3942 24.816C21.6933 26.1254 23.4553 26.8611 25.2925 26.8611C27.1298 26.8611 28.8918 26.1254 30.1909 24.816C31.49 23.5065 32.2198 21.7305 32.2198 19.8787V10.6499H28.5295V19.8787Z" fill="#33475B"/>
    <path d="M55.9716 11.6005C55.9716 9.70881 57.2132 9.10911 58.5734 9.10911C59.6696 9.10911 61.1178 9.94984 62.0648 10.9699L64.4906 8.08904C63.2796 6.43842 60.8232 5.29688 58.8126 5.29688C54.7951 5.29688 51.8891 7.66867 51.8891 11.6005C51.8891 18.8952 60.7352 16.5812 60.7352 20.6634C60.7352 21.9226 59.5223 23.0352 58.1334 23.0352C55.9429 23.0352 55.2332 21.9554 54.2269 20.8138L51.5352 23.6349C53.2569 25.7657 55.3805 26.8475 57.9249 26.8475C61.7415 26.8475 64.812 24.4467 64.812 20.6943C64.812 12.5955 55.9659 15.1119 55.9659 11.6005" fill="#33475B"/>
    <path d="M110.698 23.4014C108.509 23.4014 107.887 22.4469 107.887 20.9853V14.5159H111.289V11.2378H107.887V6.9126L104.132 8.61142V21.7894C104.132 25.16 106.439 26.8588 109.603 26.8588C110.1 26.868 110.596 26.8279 111.084 26.7393L112 23.3397C111.587 23.3686 111.113 23.3976 110.698 23.3976" fill="#33475B"/>
    <path d="M42.6272 10.758C40.7925 10.758 39.5127 11.2941 38.2749 12.5185V5.42627H34.5654V18.5714C34.5654 23.4924 38.0951 26.8631 42.0609 26.8631C46.461 26.8631 50.3312 23.4327 50.3312 18.8125C50.3312 14.2501 46.769 10.7599 42.6272 10.7599V10.758ZM42.6042 23.101C41.7718 23.101 40.9581 22.8522 40.266 22.386C39.5738 21.9199 39.0344 21.2574 38.7158 20.4822C38.3973 19.707 38.3139 18.854 38.4763 18.0311C38.6387 17.2082 39.0396 16.4523 39.6282 15.859C40.2168 15.2657 40.9667 14.8617 41.7831 14.698C42.5996 14.5343 43.4458 14.6183 44.2149 14.9394C44.9839 15.2605 45.6413 15.8043 46.1037 16.5019C46.5662 17.1995 46.813 18.0197 46.813 18.8587C46.813 19.9839 46.3696 21.0629 45.5803 21.8585C44.791 22.654 43.7205 23.101 42.6042 23.101Z" fill="#33475B"/>
    <path d="M82.9054 18.6156C82.9054 13.9877 79.0429 10.5649 74.6351 10.5649C70.6693 10.5649 67.1396 13.9356 67.1396 18.8566V32.0095H70.8491V24.9076C72.085 26.1301 73.3667 26.6681 75.1995 26.6681C79.3413 26.6681 82.9035 23.1798 82.9035 18.6156H82.9054ZM79.393 18.5693C79.393 19.4083 79.1461 20.2285 78.6837 20.9261C78.2212 21.6238 77.5639 22.1675 76.7948 22.4886C76.0258 22.8097 75.1795 22.8937 74.3631 22.73C73.5467 22.5663 72.7967 22.1623 72.2081 21.569C71.6195 20.9757 71.2187 20.2198 71.0563 19.3969C70.8939 18.574 70.9772 17.721 71.2958 16.9458C71.6143 16.1707 72.1538 15.5081 72.8459 15.042C73.538 14.5758 74.3518 14.327 75.1842 14.327C76.3004 14.327 77.3709 14.774 78.1603 15.5696C78.9496 16.3651 79.393 17.4442 79.393 18.5693Z" fill="#33475B"/>
    <path d="M94.8898 10.3838V6.62751C95.3823 6.39556 95.7993 6.02739 96.0923 5.56585C96.3852 5.1043 96.5421 4.56838 96.5446 4.02046V3.93369C96.5446 3.16657 96.2423 2.43086 95.7041 1.88843C95.166 1.34599 94.4361 1.04125 93.675 1.04125H93.5889C92.8278 1.04125 92.0979 1.34599 91.5598 1.88843C91.0216 2.43086 90.7193 3.16657 90.7193 3.93369V4.02046C90.7218 4.56838 90.8787 5.1043 91.1716 5.56585C91.4646 6.02739 91.8816 6.39556 92.3741 6.62751V10.3838C90.9586 10.6021 89.6255 11.1935 88.5097 12.0981L78.2899 4.07445C78.3623 3.80987 78.4008 3.53706 78.4047 3.26264C78.4058 2.61803 78.2173 1.98756 77.8629 1.45097C77.5085 0.914387 77.0042 0.495796 76.4137 0.248144C75.8233 0.000492028 75.1732 -0.0650939 74.5458 0.0596818C73.9183 0.184458 73.3417 0.493989 72.8888 0.949125C72.4359 1.40426 72.1271 1.98455 72.0015 2.6166C71.8758 3.24866 71.939 3.90407 72.1829 4.49994C72.4269 5.09582 72.8407 5.60538 73.372 5.96418C73.9033 6.32299 74.5282 6.51491 75.1678 6.51567C75.727 6.51315 76.2758 6.36289 76.7595 6.07988L86.8242 13.9724C85.9199 15.3491 85.448 16.9686 85.4702 18.6196C85.4924 20.2706 86.0076 21.8766 86.9486 23.2282L83.8876 26.3134C83.6401 26.2338 83.3822 26.1915 83.1224 26.1881C82.5974 26.1885 82.0843 26.3457 81.6479 26.64C81.2115 26.9342 80.8714 27.3522 80.6707 27.8412C80.47 28.3302 80.4175 28.8682 80.5201 29.3872C80.6226 29.9062 80.8754 30.3829 81.2467 30.7571C81.6179 31.1313 82.0909 31.3862 82.6058 31.4895C83.1207 31.5929 83.6545 31.54 84.1396 31.3377C84.6247 31.1353 85.0394 30.7926 85.3314 30.3527C85.6233 29.9129 85.7793 29.3957 85.7797 28.8665C85.7764 28.6046 85.7345 28.3447 85.6553 28.0952L88.6837 25.0427C89.6712 25.8086 90.8196 26.3366 92.0408 26.5862C93.262 26.8358 94.5236 26.8003 95.7291 26.4826C96.9346 26.1648 98.052 25.5732 98.9956 24.7529C99.9393 23.9327 100.684 22.9057 101.173 21.7505C101.662 20.5954 101.883 19.3427 101.817 18.0885C101.752 16.8343 101.402 15.6118 100.796 14.5147C100.189 13.4175 99.3419 12.4748 98.3182 11.7588C97.2945 11.0428 96.1217 10.5725 94.8898 10.3838ZM93.6348 22.7365C92.8064 22.7357 91.9969 22.4874 91.3084 22.023C90.62 21.5586 90.0836 20.8989 89.767 20.1273C89.4504 19.3557 89.3679 18.5069 89.5298 17.688C89.6918 16.8691 90.0909 16.117 90.6768 15.5267C91.2627 14.9365 92.009 14.5345 92.8215 14.3716C93.634 14.2088 94.4762 14.2924 95.2415 14.6118C96.0069 14.9313 96.6611 15.4722 97.1216 16.1664C97.582 16.8605 97.8279 17.6766 97.8283 18.5116C97.8283 19.6316 97.3869 20.7057 96.6012 21.4977C95.8155 22.2896 94.7498 22.7345 93.6387 22.7345" fill="#FF7A59"/>
</svg>