<svg xmlns="http://www.w3.org/2000/svg" width="103" height="32" viewBox="0 0 103 32" fill="none">
    <g clip-path="url(#clip0_755_6007)">
        <path fill-rule="evenodd" clip-rule="evenodd" d="M63.8991 25.0251C57.9136 29.5735 49.238 32.0002 41.7684 32.0002C31.2949 32.0002 21.8661 28.0065 14.7328 21.3643C14.1724 20.842 14.6745 20.1302 15.347 20.5369C23.0453 25.1546 32.5638 27.9326 42.3961 27.9326C49.0273 27.9326 56.322 26.5181 63.0293 23.583C64.0426 23.1393 64.89 24.2671 63.8991 25.0251Z" fill="#FF9900"/>
        <path fill-rule="evenodd" clip-rule="evenodd" d="M66.3879 22.09C65.6257 21.0824 61.3305 21.6139 59.4026 21.8497C58.8153 21.9236 58.7256 21.3967 59.2547 21.0177C62.6756 18.5355 68.2889 19.2519 68.9435 20.084C69.5981 20.9206 68.7732 26.7215 65.5585 29.4903C65.0653 29.9155 64.5945 29.689 64.8142 29.1251C65.5361 27.267 67.1546 23.1023 66.3879 22.09Z" fill="#FF9900"/>
        <path fill-rule="evenodd" clip-rule="evenodd" d="M59.5367 3.49464V1.08182C59.5367 0.71666 59.8057 0.47168 60.1286 0.47168H70.6066C70.9428 0.47168 71.2118 0.721283 71.2118 1.08182V3.14797C71.2074 3.49464 70.9249 3.94763 70.4227 4.66408L64.9932 12.656C67.0108 12.6051 69.1405 12.9148 70.9697 13.978C71.3822 14.2183 71.4943 14.5696 71.5257 14.9163V17.4909C71.5257 17.8422 71.1491 18.2536 70.7545 18.0409C67.5309 16.2983 63.2491 16.1088 59.6847 18.0594C59.3215 18.2628 58.9404 17.856 58.9404 17.5047V15.0596C58.9404 14.6667 58.9449 13.9964 59.326 13.4002L65.6164 4.10016H60.142C59.8057 4.10016 59.5367 3.85518 59.5367 3.49464Z" fill="black"/>
        <path fill-rule="evenodd" clip-rule="evenodd" d="M21.3148 18.549H18.127C17.8221 18.5259 17.58 18.2902 17.5576 17.9897V1.12306C17.5576 0.78563 17.8311 0.517537 18.1719 0.517537H21.1444C21.4538 0.531394 21.7004 0.776383 21.7228 1.08145V3.28628H21.7811C22.5567 1.15541 24.0139 0.161621 25.9777 0.161621C27.9728 0.161621 29.2193 1.15541 30.116 3.28628C30.8871 1.15541 32.6402 0.161621 34.5188 0.161621C35.8549 0.161621 37.3165 0.73016 38.2087 2.00591C39.2175 3.42494 39.0113 5.48647 39.0113 7.29378L39.0068 17.9389C39.0068 18.2763 38.7333 18.549 38.3926 18.549H35.2093C34.8909 18.5259 34.6354 18.2624 34.6354 17.9389V8.9994C34.6354 8.28757 34.6981 6.51262 34.5457 5.83777C34.3081 4.70531 33.5952 4.38637 32.6716 4.38637C31.9004 4.38637 31.0934 4.91793 30.7661 5.76843C30.4388 6.61893 30.4702 8.04259 30.4702 8.9994V17.9389C30.4702 18.2763 30.1967 18.549 29.8559 18.549H26.6726C26.3498 18.5259 26.0987 18.2624 26.0987 17.9389L26.0943 8.9994C26.0943 7.11814 26.3946 4.3494 24.1305 4.3494C21.8394 4.3494 21.9291 7.0488 21.9291 8.9994V17.9389C21.9291 18.2763 21.6556 18.549 21.3148 18.549" fill="black"/>
        <path fill-rule="evenodd" clip-rule="evenodd" d="M80.2322 0.161621C84.9624 0.161621 87.5225 4.3494 87.5225 9.67425C87.5225 14.8188 84.6934 18.9003 80.2322 18.9003C75.5873 18.9003 73.0586 14.7125 73.0586 9.49398C73.0586 4.24308 75.6187 0.161621 80.2322 0.161621ZM80.2591 3.60521C77.9098 3.60521 77.7618 6.90551 77.7618 8.96242C77.7618 11.024 77.7304 15.4244 80.2322 15.4244C82.7027 15.4244 82.8192 11.8745 82.8192 9.71123C82.8192 8.28757 82.761 6.58658 82.344 5.23687C81.9853 4.06282 81.2724 3.60521 80.2591 3.60521Z" fill="black"/>
        <path fill-rule="evenodd" clip-rule="evenodd" d="M93.656 18.549H90.4817C90.1634 18.5259 89.9078 18.2624 89.9078 17.9389L89.9033 1.06759C89.9302 0.757894 90.1947 0.517537 90.5176 0.517537H93.4722C93.7502 0.531394 93.9788 0.725539 94.0416 0.989008V3.56823H94.0999C94.9921 1.26172 96.243 0.161621 98.4444 0.161621C99.8747 0.161621 101.269 0.693183 102.166 2.1492C103 3.4989 103 5.76843 103 7.40009V18.0174C102.964 18.3133 102.699 18.549 102.385 18.549H99.1887C98.8973 18.5259 98.6552 18.304 98.6238 18.0174V8.85611C98.6238 7.01182 98.83 4.31242 96.6286 4.31242C95.853 4.31242 95.1401 4.8486 94.7859 5.66212C94.3375 6.69289 94.2792 7.71903 94.2792 8.85611V17.9389C94.2748 18.2763 93.9968 18.549 93.656 18.549" fill="black"/>
        <path fill-rule="evenodd" clip-rule="evenodd" d="M51.184 10.4926C51.184 11.7729 51.2154 12.8407 50.5877 13.9777C50.0811 14.9022 49.274 15.4707 48.3818 15.4707C47.1578 15.4707 46.4404 14.5093 46.4404 13.0903C46.4404 10.2892 48.875 9.78073 51.184 9.78073V10.4926ZM54.3987 18.5029C54.188 18.6971 53.8831 18.7109 53.6455 18.5815C52.5873 17.6756 52.3946 17.2549 51.8162 16.3906C50.0676 18.2302 48.8257 18.7803 46.5615 18.7803C43.8759 18.7803 41.791 17.0747 41.791 13.6588C41.791 10.9918 43.1899 9.17521 45.1895 8.28773C46.9202 7.50194 49.3368 7.36328 51.184 7.14603V6.72078C51.184 5.93962 51.2423 5.01516 50.7939 4.34031C50.4084 3.73479 49.6641 3.48519 49.005 3.48519C47.79 3.48519 46.7094 4.12769 46.4449 5.4589C46.3911 5.75473 46.1804 6.04593 45.889 6.0598L42.7998 5.71775C42.5398 5.65766 42.2483 5.44041 42.3246 5.02903C43.033 1.16482 46.4225 0 49.4534 0C51.0047 0 53.0312 0.42525 54.2552 1.63628C55.8065 3.12928 55.6586 5.12148 55.6586 7.28932V12.4108C55.6586 13.95 56.2773 14.6249 56.8601 15.4569C57.0619 15.7527 57.1067 16.1086 56.8467 16.3305C56.1966 16.8898 55.0398 17.9298 54.4032 18.5122L54.3987 18.5029" fill="black"/>
        <path fill-rule="evenodd" clip-rule="evenodd" d="M9.39298 10.4926C9.39298 11.7729 9.42437 12.8407 8.79667 13.9777C8.29003 14.9022 7.48748 15.4707 6.59078 15.4707C5.36678 15.4707 4.6539 14.5093 4.6539 13.0903C4.6539 10.2892 7.08845 9.78072 9.39298 9.78072V10.4926ZM12.6077 18.5029C12.3969 18.6971 12.0921 18.7109 11.8544 18.5815C10.7963 17.6756 10.608 17.2549 10.0252 16.3906C8.27658 18.2302 7.03913 18.7803 4.77047 18.7803C2.08932 18.7803 0 17.0747 0 13.6588C0 10.9918 1.40334 9.17521 3.39851 8.28773C5.12915 7.50194 7.54577 7.36328 9.39298 7.14603V6.72078C9.39298 5.93962 9.45127 5.01516 9.0074 4.34031C8.61733 3.73479 7.87307 3.48519 7.21847 3.48519C6.00344 3.48519 4.91843 4.12769 4.6539 5.4589C4.60009 5.75473 4.38937 6.04593 4.10242 6.0598L1.00879 5.71775C0.748748 5.65766 0.461802 5.44041 0.533539 5.02903C1.24642 1.16482 4.63148 0 7.66234 0C9.21364 0 11.2402 0.42525 12.4642 1.63628C14.0155 3.12928 13.8675 5.12147 13.8675 7.28932V12.4108C13.8675 13.95 14.4863 14.6249 15.0691 15.4569C15.2754 15.7527 15.3202 16.1086 15.0602 16.3305C14.41 16.8898 13.2533 17.9298 12.6166 18.5122L12.6077 18.5029" fill="black"/>
    </g>
    <defs>
        <clipPath id="clip0_755_6007">
            <rect width="103" height="32" fill="white"/>
        </clipPath>
    </defs>
</svg>