<svg xmlns="http://www.w3.org/2000/svg" width="103" height="32" viewBox="0 0 103 32" fill="none">
    <g clip-path="url(#clip0_755_5981)">
        <path d="M29.5261 22.6795C29.3645 22.2895 29.2131 21.8795 29.0515 21.5295L28.3042 19.8595L28.2739 19.8295C26.0524 15.0295 23.6793 10.1495 21.1649 5.34946L21.0639 5.14946C20.8115 4.67946 20.559 4.15946 20.2965 3.67946C19.9734 3.10946 19.6603 2.49946 19.1453 1.91946C18.6433 1.31259 18.0115 0.823645 17.2956 0.487911C16.5796 0.152178 15.7973 -0.0219727 15.0051 -0.0219727C14.2129 -0.0219727 13.4306 0.152178 12.7147 0.487911C11.9987 0.823645 11.3669 1.31259 10.8649 1.91946C10.3903 2.49946 10.0369 3.10946 9.71374 3.67946C9.46129 4.19946 9.20884 4.70946 8.94629 5.17946L8.84531 5.37946C6.37129 10.1795 3.95786 15.0595 1.73629 19.8595L1.6757 19.9195C1.45355 20.4395 1.191 20.9795 0.938547 21.5595C0.776979 21.9095 0.61541 22.2895 0.453841 22.7095C0.017639 23.8092 -0.121654 25.0026 0.0496898 26.1719C0.221034 27.3413 0.697101 28.4462 1.43097 29.3779C2.16484 30.3095 3.13119 31.0357 4.23477 31.4849C5.33836 31.9341 6.54109 32.0908 7.72443 31.9395C8.85891 31.7916 9.95132 31.4174 10.9356 30.8395C12.2484 30.1095 13.5106 29.0495 14.9243 27.5195C16.3381 29.0495 17.6306 30.1095 18.9131 30.8495C20.1463 31.5663 21.5429 31.962 22.9725 31.9995C24.6279 32.0063 26.2299 31.4197 27.4827 30.3482C28.7356 29.2766 29.5546 27.7924 29.7886 26.1695C30.0591 25.0032 29.9676 23.7833 29.5261 22.6695V22.6795ZM15.0253 24.3395C13.2884 22.1395 12.1575 20.1195 11.7737 18.3895C11.6148 17.7484 11.5805 17.0832 11.6728 16.4295C11.7434 15.9195 11.9353 15.4695 12.1979 15.0895C12.8037 14.2195 13.864 13.6795 15.0253 13.6795C15.5768 13.6628 16.1238 13.782 16.6173 14.0263C17.1108 14.2707 17.5353 14.6325 17.8528 15.0795C18.1153 15.4795 18.3072 15.9195 18.3678 16.4295C18.4687 17.0095 18.4284 17.6795 18.2668 18.3895C17.8831 20.0895 16.7521 22.1295 15.0253 24.3395ZM27.8902 25.8195C27.7755 26.6434 27.4447 27.4232 26.9309 28.0811C26.4171 28.7391 25.7382 29.2522 24.9618 29.5695C24.1943 29.8895 23.3461 29.9795 22.5181 29.8895C21.7102 29.7895 20.9024 29.5295 20.0743 29.0495C18.6995 28.208 17.4632 27.1624 16.4087 25.9495C18.5293 23.3495 19.8118 20.9795 20.2965 18.8695C20.5287 17.8695 20.559 16.9695 20.4581 16.1395C20.332 15.3527 20.0357 14.6023 19.5896 13.9395C19.0803 13.2207 18.4004 12.6369 17.6098 12.2393C16.8192 11.8418 15.9421 11.6426 15.0556 11.6595C13.1875 11.6595 11.5213 12.5195 10.5115 13.9295C10.0569 14.5906 9.76313 15.347 9.65316 16.1395C9.52188 16.9795 9.55217 17.9095 9.81472 18.8695C10.2994 20.9795 11.6122 23.3795 13.7025 25.9695C12.6659 27.2056 11.4267 28.2603 10.0369 29.0895C9.19874 29.5695 8.401 29.8195 7.59315 29.9195C6.33684 30.0788 5.06779 29.7407 4.06183 28.9786C3.05588 28.2164 2.39433 27.0919 2.221 25.8495C2.12002 25.0495 2.1907 24.2495 2.51384 23.3495C2.61482 23.0295 2.76629 22.7095 2.92786 22.3295C3.15002 21.8095 3.41257 21.2695 3.66502 20.7295L3.70541 20.6595C5.88659 15.8895 8.26972 11.0195 10.7437 6.24946L10.8447 6.04946C11.0972 5.56946 11.3496 5.05946 11.6122 4.57946C11.8747 4.06946 12.1575 3.57946 12.521 3.17946C12.8357 2.80748 13.2289 2.50833 13.6729 2.30307C14.1169 2.09782 14.6009 1.99144 15.0909 1.99144C15.581 1.99144 16.065 2.09782 16.509 2.30307C16.953 2.50833 17.3462 2.80748 17.6609 3.17946C18.0143 3.57946 18.3072 4.06946 18.5697 4.57946C18.8222 5.05946 19.0746 5.57946 19.3372 6.04946L19.4382 6.24946C21.9021 11.0195 24.2852 15.8895 26.5068 20.6595L26.5371 20.6895C26.7996 21.2095 27.0218 21.7895 27.2742 22.2895C27.4358 22.6795 27.5974 22.9895 27.6984 23.3195C27.8902 24.2195 27.9912 25.0195 27.8902 25.8195ZM41.9467 24.1195C41.1858 24.1305 40.4321 23.9717 39.7416 23.6549C39.0511 23.3381 38.4415 22.8714 37.958 22.2895C36.8715 21.0494 36.2948 19.4505 36.3423 17.8095C36.3256 16.1327 36.9209 14.5063 38.0185 13.2295C38.5263 12.6401 39.1583 12.1681 39.8701 11.8467C40.582 11.5254 41.3563 11.3625 42.1385 11.3695C42.8746 11.3495 43.6037 11.5153 44.2573 11.8511C44.9109 12.187 45.4675 12.682 45.8748 13.2895L45.9758 11.7195H48.9244V23.7995H45.9657L45.8647 22.0395C45.4448 22.6881 44.8644 23.2197 44.1787 23.5838C43.493 23.9478 42.7246 24.1322 41.9467 24.1195ZM42.7141 21.2395C43.2998 21.2395 43.8148 21.0795 44.2995 20.7895C44.7438 20.4695 45.1074 20.0495 45.3901 19.5395C45.6426 19.0295 45.7738 18.4195 45.7738 17.7395C45.8132 17.1489 45.6971 16.5582 45.4369 16.0254C45.1767 15.4925 44.7813 15.0357 44.2894 14.6995C43.8168 14.4078 43.271 14.2532 42.7141 14.2532C42.1572 14.2532 41.6115 14.4078 41.1388 14.6995C40.6945 15.0195 40.331 15.4395 40.0483 15.9495C39.7812 16.5119 39.6498 17.1281 39.6645 17.7495C39.6252 18.3401 39.7412 18.9307 40.0014 19.4635C40.2616 19.9964 40.657 20.4533 41.1489 20.7895C41.6235 21.0795 42.1385 21.2395 42.7141 21.2395ZM53.9734 8.45946C53.9734 8.80946 53.9129 9.12946 53.7513 9.38946C53.5897 9.63946 53.3676 9.86946 53.0747 10.0295C52.7819 10.1895 52.4688 10.2495 52.1457 10.2495C51.8226 10.2495 51.4994 10.1895 51.2066 10.0295C50.9296 9.87677 50.6967 9.65645 50.53 9.38946C50.3736 9.10459 50.2969 8.78352 50.3079 8.45946C50.3079 8.09946 50.3785 7.77946 50.53 7.52946C50.6916 7.22946 50.9238 7.04946 51.2066 6.88946C51.4994 6.72946 51.8125 6.65946 52.1457 6.65946C52.4671 6.65212 52.785 6.72751 53.0682 6.87825C53.3514 7.02899 53.5902 7.24993 53.7614 7.51946C53.9083 7.811 53.9811 8.13369 53.9734 8.45946ZM50.5401 23.7595V11.6995H53.7513V23.7795H50.53L50.5401 23.7595ZM62.3346 14.8595V14.8995C62.1832 14.8295 61.9812 14.7995 61.8297 14.7695C61.6278 14.7295 61.4662 14.7295 61.2743 14.7295C60.3756 14.7295 59.699 14.9895 59.2547 15.5295C58.77 16.0795 58.5479 16.8495 58.5479 17.8395V23.7695H55.3266V11.6895H58.2853L58.3863 13.5195C58.7094 12.8795 59.0932 12.3995 59.6384 12.0395C60.1808 11.6897 60.8194 11.515 61.4662 11.5395C61.6984 11.5395 61.9206 11.5595 62.1125 11.5995C62.2134 11.6295 62.274 11.6295 62.3346 11.6595V14.8595ZM63.6272 23.7595V6.73946H66.8384V13.2395C67.2928 12.6595 67.8078 12.2095 68.454 11.8595C69.4772 11.3627 70.6395 11.2218 71.7534 11.4595C72.8673 11.6971 73.8679 12.2995 74.5937 13.1695C75.6825 14.4121 76.2593 16.015 76.2093 17.6595C76.226 19.3362 75.6307 20.9626 74.5331 22.2395C74.0253 22.8288 73.3933 23.3008 72.6815 23.6222C71.9696 23.9435 71.1953 24.1065 70.4131 24.0995C69.677 24.1194 68.9479 23.9537 68.2943 23.6178C67.6407 23.2819 67.0841 22.787 66.6768 22.1795L66.5758 23.7495L63.6272 23.7795V23.7595ZM69.8375 21.2395C70.4131 21.2395 70.9281 21.0795 71.4128 20.7895C71.8571 20.4695 72.2206 20.0495 72.5034 19.5395C72.7659 19.0295 72.8871 18.4195 72.8871 17.7395C72.8871 17.0695 72.7659 16.4595 72.5034 15.9495C72.2382 15.4577 71.8656 15.0307 71.4128 14.6995C70.9401 14.4078 70.3944 14.2532 69.8375 14.2532C69.2806 14.2532 68.7348 14.4078 68.2622 14.6995C67.8078 15.0195 67.4543 15.4395 67.1615 15.9495C66.8945 16.5119 66.7631 17.1281 66.7778 17.7495C66.7384 18.3401 66.8545 18.9307 67.1147 19.4635C67.3749 19.9964 67.7703 20.4533 68.2622 20.7895C68.7368 21.0795 69.2518 21.2395 69.8375 21.2395ZM77.4211 23.7695V11.6895H80.3798L80.4808 13.2595C80.8526 12.6576 81.38 12.1651 82.0085 11.8328C82.637 11.5006 83.3437 11.3406 84.0555 11.3695C84.8695 11.3555 85.6696 11.5796 86.3557 12.0136C87.0418 12.4476 87.5835 13.0722 87.913 13.8095C88.2664 14.5695 88.4583 15.5095 88.4583 16.5595V23.7995H85.237V16.9795C85.237 16.1395 85.0451 15.4795 84.6614 14.9895C84.2777 14.5095 83.7526 14.2495 83.0861 14.2495C82.6014 14.2495 82.1773 14.3495 81.8036 14.5695C81.4502 14.7995 81.1574 15.0895 80.9352 15.4995C80.7106 15.9139 80.5992 16.3793 80.6121 16.8495V23.7695H77.4211ZM90.0638 23.7695V6.72946H93.2851V13.2295C93.7214 12.6462 94.289 12.1717 94.9429 11.8437C95.5967 11.5156 96.3187 11.3429 97.0517 11.3395C97.8126 11.3284 98.5663 11.4872 99.2568 11.804C99.9473 12.1208 100.557 12.5875 101.04 13.1695C102.122 14.412 102.694 16.01 102.646 17.6495C102.664 19.3264 102.068 20.9531 100.97 22.2295C100.462 22.8188 99.83 23.2908 99.1181 23.6122C98.4063 23.9335 97.632 24.0965 96.8497 24.0895C96.1136 24.1094 95.3845 23.9437 94.7309 23.6078C94.0773 23.2719 93.5207 22.777 93.1134 22.1695L93.0226 23.7395L90.0638 23.7695ZM96.3044 21.2395C96.8901 21.2395 97.4051 21.0795 97.8797 20.7895C98.3341 20.4695 98.6876 20.0495 98.9804 19.5395C99.2329 19.0295 99.3641 18.4195 99.3641 17.7395C99.4035 17.1489 99.2874 16.5582 99.0272 16.0254C98.767 15.4925 98.3716 15.0357 97.8797 14.6995C97.4071 14.4078 96.8613 14.2532 96.3044 14.2532C95.7475 14.2532 95.2018 14.4078 94.7291 14.6995C94.2848 15.0195 93.9213 15.4395 93.6385 15.9495C93.3567 16.5069 93.2245 17.1268 93.2548 17.7495C93.2155 18.3401 93.3316 18.9307 93.5917 19.4635C93.8519 19.9964 94.2473 20.4533 94.7392 20.7895C95.2138 21.0795 95.6985 21.2395 96.3044 21.2395Z" fill="#FF385C"/>
    </g>
    <defs>
        <clipPath id="clip0_755_5981">
            <rect width="103" height="32" fill="white"/>
        </clipPath>
    </defs>
</svg>