<svg xmlns="http://www.w3.org/2000/svg" width="150" height="18" viewBox="0 0 150 18" fill="none">
    <path d="M5.45527 8.20999C5.40062 8.14083 5.32845 8.08647 5.24573 8.05217C5.163 8.01787 5.07253 8.00479 4.98306 8.01419C4.89358 8.02359 4.80812 8.05516 4.73495 8.10584C4.66177 8.15652 4.60335 8.2246 4.56534 8.3035L0.0559146 17.0231C0.0148344 17.1026 -0.00456151 17.1909 -0.000431552 17.2796C0.0036984 17.3684 0.0312172 17.4546 0.0795119 17.5302C0.127807 17.6058 0.195274 17.6682 0.27551 17.7115C0.355745 17.7547 0.446084 17.7774 0.53795 17.7775H6.81709C6.91766 17.7797 7.01674 17.7537 7.10231 17.7025C7.18788 17.6514 7.25625 17.5773 7.29913 17.4893C8.65361 14.7824 7.83275 10.6666 5.45527 8.20999Z" fill="url(#paint0_linear_1816_903)"/>
    <path d="M8.76268 0.279238C7.63906 1.95129 6.98426 3.87715 6.86254 5.86782C6.74082 7.85848 7.15636 9.84556 8.06838 11.634L11.0956 17.4894C11.1404 17.576 11.2092 17.6488 11.2943 17.6997C11.3795 17.7506 11.4776 17.7776 11.5777 17.7776H17.8557C17.9475 17.7776 18.0379 17.7549 18.1181 17.7116C18.1983 17.6683 18.2658 17.606 18.3141 17.5304C18.3624 17.4548 18.3899 17.3685 18.394 17.2798C18.3982 17.191 18.3788 17.1027 18.3377 17.0233C18.3377 17.0233 9.89166 0.68463 9.67939 0.275966C9.63743 0.192782 9.57206 0.122723 9.4908 0.0738258C9.40954 0.0249286 9.31568 -0.000826468 9.21998 -0.000484928C9.12427 -0.000143388 9.03061 0.0262809 8.94972 0.0757568C8.86884 0.125233 8.80401 0.195756 8.76268 0.279238Z" fill="#2684FF"/>
    <path d="M82.4001 7.2708C82.4001 9.42998 83.4358 11.1442 87.4869 11.901C89.9038 12.3918 90.4101 12.7691 90.4101 13.5482C90.4101 14.305 89.9027 14.7949 88.2003 14.7949C86.1428 14.7592 84.1265 14.2315 82.3311 13.259V16.7758C83.5511 17.3546 85.1621 18.0002 88.1544 18.0002C92.3895 18.0002 94.0699 16.1736 94.0699 13.4591L82.4001 7.2708ZM94.0699 13.4591C94.0699 10.8992 92.6658 9.69688 88.7069 8.87355C86.5202 8.406 85.9909 7.93873 85.9909 7.2708C85.9909 6.42566 86.7734 6.0688 88.2234 6.0688C89.9729 6.0688 91.6992 6.58079 93.3333 7.29315V3.9317C91.7663 3.24195 90.0598 2.89973 88.3384 2.93008C84.4255 2.93008 82.4001 4.57727 82.4001 7.2708" fill="#0052CC"/>
    <path d="M136.811 3.15234V17.7775H140.033V6.62503L141.391 9.58545L145.948 17.7775H149.999V3.15234H146.777V12.5909L145.557 9.85262L141.897 3.15234H136.811Z" fill="#0052CC"/>
    <path d="M116.316 3.15234H112.794V17.7775H116.316V3.15234Z" fill="#0052CC"/>
    <path d="M108.73 13.4591C108.73 10.8992 107.326 9.69688 103.367 8.87355C101.18 8.406 100.651 7.93873 100.651 7.2708C100.651 6.42566 101.434 6.0688 102.884 6.0688C104.633 6.0688 106.359 6.58079 107.993 7.29315V3.9317C106.426 3.24195 104.72 2.89973 102.999 2.93008C99.0857 2.93008 97.0603 4.57727 97.0603 7.2708C97.0603 9.42998 98.0959 11.1442 102.147 11.901C104.564 12.3918 105.07 12.7691 105.07 13.5482C105.07 14.305 104.563 14.7949 102.86 14.7949C100.803 14.7592 98.7866 14.2315 96.9912 13.259V16.7758C98.2112 17.3546 99.8222 18.0002 102.815 18.0002C107.05 18.0002 108.73 16.1736 108.73 13.4591Z" fill="#0052CC"/>
    <path d="M55.043 3.15234V17.7775H62.2814L63.4211 14.6165H58.5875V3.15234H55.043Z" fill="#0052CC"/>
    <path d="M40.7422 3.15234V6.31315H44.6551V17.7775H48.1996V6.31315H52.3888V3.15234H40.7422Z" fill="#0052CC"/>
    <path d="M35.6022 3.15234H30.9569L25.6836 17.7775H29.7107L30.4583 15.3144C32.2994 15.8372 34.2572 15.8372 36.0984 15.3144L36.846 17.7775H40.8739L35.6022 3.15234ZM33.2795 12.677C32.6235 12.677 31.9708 12.5862 31.3414 12.4074L33.2795 6.02498L35.2175 12.4096C34.5879 12.5876 33.9353 12.6777 33.2795 12.677Z" fill="#0052CC"/>
    <path d="M74.7602 3.15234H70.1151L64.8418 17.7775H68.8698L69.6173 15.3144C71.4585 15.8372 73.4163 15.8372 75.2574 15.3144L76.005 17.7775H80.0329L74.7602 3.15234ZM72.4377 12.677C71.7817 12.677 71.1291 12.5862 70.4996 12.4074L72.4377 6.02498L74.3757 12.4096C73.7461 12.5876 73.0935 12.6777 72.4377 12.677Z" fill="#0052CC"/>
    <path d="M129.005 3.15234H124.36L119.087 17.7775H123.115L123.862 15.3144C125.704 15.8372 127.661 15.8372 129.503 15.3144L130.25 17.7775H134.278L129.005 3.15234ZM126.681 12.677C126.025 12.677 125.373 12.5862 124.743 12.4074L126.681 6.02498L128.619 12.4096C127.99 12.5876 127.337 12.6777 126.681 12.677Z" fill="#0052CC"/>
    <defs>
        <linearGradient id="paint0_linear_1816_903" x1="7.92662" y1="9.55566" x2="3.40235" y2="17.6585" gradientUnits="userSpaceOnUse">
            <stop stop-color="#0052CC"/>
            <stop offset="0.923" stop-color="#2684FF"/>
        </linearGradient>
    </defs>
</svg>