<svg xmlns="http://www.w3.org/2000/svg" width="143" height="22" viewBox="0 0 143 22" fill="none">
    <g clip-path="url(#clip0_755_5991)">
        <path fill-rule="evenodd" clip-rule="evenodd" d="M34.5362 7.05518C33.0252 7.05518 31.7301 7.6031 30.6509 8.47978V7.27435H26.9814V21.4108H30.7588V12.4248C31.2984 11.6577 32.5935 10.6715 34.2124 10.6715C34.752 10.6715 35.2916 10.7811 35.7233 10.8906V7.27435C35.2916 7.16476 34.8599 7.05518 34.5362 7.05518Z" fill="#293E40"/>
        <path fill-rule="evenodd" clip-rule="evenodd" d="M2.05101 17.0271C3.02233 17.9038 4.53328 18.4517 5.82837 18.4517C6.79969 18.4517 7.66309 17.9038 7.66309 17.2463C7.66309 15.0546 0.863841 15.8217 0.863841 11.3287C0.863841 8.58909 3.45403 6.94531 6.15214 6.94531C7.98686 6.94531 9.9295 7.60282 10.9008 8.36992L9.17403 11.1095C8.41856 10.6712 7.55516 10.1233 6.47592 10.1233C5.39667 10.1233 4.6412 10.5616 4.6412 11.3287C4.6412 13.1917 11.4404 12.4246 11.4404 17.3559C11.4404 20.0955 8.85026 21.7393 5.93629 21.7393C3.99365 21.7393 1.94309 21.0818 0.324219 19.8763L2.05101 17.0271Z" fill="#293E40"/>
        <path fill-rule="evenodd" clip-rule="evenodd" d="M25.3621 14.1779C25.3621 10.2329 22.664 6.94531 18.7787 6.94531C14.6776 6.94531 11.9795 10.452 11.9795 14.2875C11.9795 18.7805 15.1093 21.6297 19.2104 21.6297C21.3689 21.6297 23.5274 20.753 24.9304 19.1092L22.7719 16.9175C22.1244 17.6846 20.8293 18.5613 19.3184 18.5613C17.3757 18.5613 15.7568 17.1367 15.541 15.1642H25.1463C25.3621 14.945 25.3621 14.6163 25.3621 14.1779ZM15.8648 12.5341C16.0806 11.2191 17.3757 10.0137 18.8867 10.0137C20.3976 10.0137 21.4768 11.2191 21.6927 12.5341H15.8648Z" fill="#293E40"/>
        <path fill-rule="evenodd" clip-rule="evenodd" d="M44.4654 15.9311L48.2427 7.27393H52.128L45.7605 21.4104H43.1703L36.8027 7.27393H40.5801L44.4654 15.9311Z" fill="#293E40"/>
        <path fill-rule="evenodd" clip-rule="evenodd" d="M55.2572 0.589355C56.6602 0.589355 57.7394 1.6852 57.7394 3.00022C57.7394 4.42483 56.6602 5.41109 55.2572 5.41109C53.8541 5.41109 52.8828 4.31524 52.8828 3.00022C52.8828 1.57562 53.8541 0.589355 55.2572 0.589355Z" fill="#293E40"/>
        <path d="M57.2002 7.27393H53.4229V21.4104H57.2002V7.27393Z" fill="#293E40"/>
        <path fill-rule="evenodd" clip-rule="evenodd" d="M72.5257 18.4517C70.9069 20.6434 68.8563 21.6297 66.2661 21.6297C61.9491 21.6297 58.8193 18.3421 58.8193 14.2875C58.8193 10.1233 62.0571 6.94531 66.2661 6.94531C68.7484 6.94531 70.799 8.15075 72.094 9.79452L69.6118 12.0958C68.8563 11.1095 67.7771 10.452 66.482 10.452C64.3235 10.452 62.7046 12.2054 62.7046 14.2875C62.7046 16.4792 64.2156 18.123 66.482 18.123C67.9929 18.123 69.1801 17.2463 69.8276 16.26L72.5257 18.4517Z" fill="#293E40"/>
        <path fill-rule="evenodd" clip-rule="evenodd" d="M86.0154 19.1092C84.6124 20.753 82.4539 21.6297 80.2954 21.6297C76.1943 21.6297 73.0645 18.7805 73.0645 14.2875C73.0645 10.3424 75.6546 6.94531 79.8637 6.94531C83.6411 6.94531 86.4471 10.2329 86.4471 14.1779C86.4471 14.6163 86.4471 14.945 86.3392 15.2738H76.626C76.8418 17.2463 78.4607 18.6709 80.4033 18.6709C81.9143 18.6709 83.2094 17.7942 83.8569 17.0271L86.0154 19.1092ZM82.5618 12.5341C82.4539 11.3287 81.3746 10.0137 79.7558 10.0137C78.2448 10.0137 76.9497 11.2191 76.7339 12.5341H82.5618Z" fill="#293E40"/>
        <path fill-rule="evenodd" clip-rule="evenodd" d="M87.8506 21.4108V7.27435H91.4121V8.47978C92.4913 7.6031 93.7864 7.05518 95.2974 7.05518C97.24 7.05518 98.9668 7.93185 100.154 9.35646C101.017 10.4523 101.665 11.8769 101.665 14.2878V21.5204H97.8876V13.959C97.8876 12.5344 97.5638 11.7673 97.0242 11.329C96.4846 10.7811 95.837 10.4523 94.8657 10.4523C93.3547 10.4523 92.0596 11.4386 91.4121 12.2057V21.4108C91.52 21.4108 87.8506 21.4108 87.8506 21.4108Z" fill="#293E40"/>
        <path fill-rule="evenodd" clip-rule="evenodd" d="M111.27 6.94531C106.737 6.94531 103.176 10.5616 103.176 15.1642C103.176 17.575 104.147 19.7667 105.658 21.3009C106.198 21.8489 107.169 21.8489 107.817 21.4105C108.68 20.6434 109.975 20.2051 111.27 20.2051C112.673 20.2051 113.752 20.6434 114.724 21.4105C115.371 21.9584 116.235 21.8489 116.882 21.1914C118.393 19.6572 119.364 17.575 119.364 15.1642C119.257 10.6712 115.695 6.94531 111.27 6.94531ZM111.162 19.438C108.68 19.438 107.061 17.575 107.061 15.2738C107.061 12.9725 108.68 11.1095 111.162 11.1095C113.644 11.1095 115.263 12.9725 115.263 15.2738C115.263 17.575 113.644 19.438 111.162 19.438Z" fill="#81B5A1"/>
        <path fill-rule="evenodd" clip-rule="evenodd" d="M126.704 21.4104H123.898L118.394 7.27393H122.063L125.085 15.3832L128.107 7.27393H131.237L134.151 15.3832L137.172 7.27393H140.95L135.446 21.4104H132.64L129.618 13.4107L126.704 21.4104Z" fill="#293E40"/>
        <path d="M140.95 19.7667H140.626V20.3147H140.41V18.6709H141.058C141.381 18.6709 141.597 18.8901 141.597 19.2188C141.597 19.438 141.381 19.6572 141.274 19.7667L141.705 20.4243H141.381L140.95 19.7667ZM140.626 19.5476H141.058C141.274 19.5476 141.274 19.438 141.274 19.3284C141.274 19.1092 141.166 19.1092 141.058 19.1092H140.626V19.5476Z" fill="#293E40"/>
        <path d="M140.949 18.1232C141.813 18.1232 142.46 18.7807 142.46 19.6574C142.46 20.5341 141.813 21.1916 140.949 21.1916C140.086 21.1916 139.439 20.5341 139.439 19.6574C139.439 18.7807 140.194 18.1232 140.949 18.1232ZM140.949 17.7944C139.978 17.7944 139.223 18.6711 139.223 19.5478C139.223 20.5341 140.086 21.3011 140.949 21.3011C141.921 21.3011 142.676 20.4245 142.676 19.5478C142.676 18.6711 141.813 17.7944 140.949 17.7944Z" fill="#293E40"/>
    </g>
    <defs>
        <clipPath id="clip0_755_5991">
            <rect width="143" height="22" fill="white"/>
        </clipPath>
    </defs>
</svg>