<svg width="592" height="420" viewBox="0 0 592 420" fill="none" xmlns="http://www.w3.org/2000/svg">
<path d="M151.337 310.28C147.419 310.28 144.244 307.104 144.244 303.187C144.244 299.269 147.419 296.094 151.337 296.094C155.254 296.094 158.43 299.269 158.43 303.187C158.43 307.104 155.254 310.28 151.337 310.28Z" fill="#4E40C4"/>
<path d="M79.9319 350.533H511.232C511.657 350.533 512 350.19 512 349.765C512 349.34 511.657 348.997 511.232 348.997H79.9319C79.5068 348.997 79.1637 349.34 79.1637 349.765C79.1637 350.185 79.5068 350.533 79.9319 350.533Z" fill="#4E40C4"/>
<path d="M284.347 169.895H289.233C292.874 169.895 295.824 166.945 295.824 163.304V158.418C295.824 154.777 292.874 151.827 289.233 151.827H284.347C280.706 151.827 277.756 154.777 277.756 158.418V163.304C277.761 166.945 280.711 169.895 284.347 169.895Z" fill="#4E40C4"/>
<path d="M285.604 164.507L282.48 161.383L284.263 159.596L285.604 160.938L289.323 157.22L291.105 159.002L285.604 164.507Z" fill="white"/>
<path d="M163.989 206.943H168.787C171.148 206.943 173.059 205.027 173.059 202.671V197.873C173.059 195.512 171.143 193.602 168.787 193.602H163.989C161.628 193.602 159.718 195.517 159.718 197.873V202.671C159.718 205.032 161.628 206.943 163.989 206.943Z" fill="#4E40C4"/>
<path d="M165.509 202.964L163.199 200.654L164.521 199.338L165.509 200.326L168.254 197.581L169.575 198.897L165.509 202.964Z" fill="white"/>
<path d="M396.77 303.53C396.964 303.53 397.164 303.453 397.312 303.305C397.615 303.002 397.615 302.516 397.312 302.219L343.687 248.553C343.385 248.251 342.899 248.251 342.602 248.553C342.3 248.855 342.3 249.341 342.602 249.639L396.227 303.305C396.375 303.458 396.57 303.53 396.77 303.53Z" fill="#4E40C4"/>
<path d="M316.551 315.601C316.72 315.601 316.889 315.545 317.027 315.432C317.36 315.166 317.411 314.684 317.15 314.351L260.78 243.683C260.514 243.35 260.033 243.298 259.7 243.56C259.367 243.826 259.316 244.307 259.577 244.64L315.952 315.314C316.106 315.504 316.326 315.601 316.551 315.601Z" fill="#4E40C4"/>
<path d="M202.608 315.201H425.538L444.148 302.925L393.755 243.396H160.803L159.799 251.026L160.531 251.149C160.659 251.17 173.237 253.367 184.663 262.232C199.934 274.087 206.019 291.612 202.736 314.325L202.608 315.201ZM425.077 313.665H204.38C208.21 285.165 196.293 269.294 185.554 260.982C175.286 253.029 164.413 250.371 161.515 249.777L162.15 244.937H393.043L441.854 302.603L425.077 313.665Z" fill="#4E40C4"/>
<path d="M229.606 315.201C229.908 315.201 230.195 315.022 230.318 314.73L263.268 235.647C264.041 233.225 266.269 231.596 268.814 231.596H280.947C281.372 231.596 281.715 231.253 281.715 230.828C281.715 230.403 281.372 230.06 280.947 230.06H268.814C265.614 230.06 262.802 232.103 261.819 235.145L228.904 314.136C228.74 314.525 228.925 314.976 229.319 315.14C229.406 315.186 229.503 315.201 229.606 315.201Z" fill="#4E40C4"/>
<path d="M151.334 303.53C151.703 303.53 152.025 303.264 152.092 302.895L163.82 235.104C164.608 232.708 166.821 231.105 169.346 231.105H181.478C181.903 231.105 182.246 230.762 182.246 230.337C182.246 229.911 181.903 229.568 181.478 229.568H169.346C166.129 229.568 163.313 231.627 162.34 234.69L162.314 234.792L150.576 302.639C150.504 303.059 150.786 303.453 151.201 303.525C151.247 303.53 151.293 303.53 151.334 303.53Z" fill="#4E40C4"/>
<path d="M316.554 315.601C316.856 315.601 317.142 315.422 317.265 315.119L349.012 236.636C349.632 234.695 351.414 233.394 353.452 233.394H366.435C366.86 233.394 367.203 233.051 367.203 232.626C367.203 232.201 366.86 231.857 366.435 231.857H353.452C350.754 231.857 348.393 233.578 347.558 236.139L315.842 314.546C315.683 314.94 315.872 315.386 316.267 315.544C316.359 315.585 316.456 315.601 316.554 315.601Z" fill="#4E40C4"/>
<path d="M396.045 327.539C403.809 327.539 410.129 321.219 410.129 313.455C410.129 305.691 403.809 299.372 396.045 299.372C388.281 299.372 381.962 305.691 381.962 313.455C381.962 321.219 388.281 327.539 396.045 327.539ZM396.045 300.908C402.964 300.908 408.593 306.536 408.593 313.455C408.593 320.374 402.964 326.002 396.045 326.002C389.126 326.002 383.498 320.374 383.498 313.455C383.498 306.536 389.126 300.908 396.045 300.908Z" fill="#4E40C4"/>
<path d="M316.553 328.916C324.317 328.916 330.637 322.596 330.637 314.833C330.637 307.069 324.317 300.749 316.553 300.749C308.789 300.749 302.47 307.069 302.47 314.833C302.47 322.596 308.789 328.916 316.553 328.916ZM316.553 302.285C323.472 302.285 329.1 307.914 329.1 314.833C329.1 321.751 323.472 327.38 316.553 327.38C309.634 327.38 304.006 321.751 304.006 314.833C304.006 307.914 309.634 302.285 316.553 302.285Z" fill="#4E40C4"/>
<path d="M229.608 328.916C237.372 328.916 243.691 322.596 243.691 314.833C243.691 307.069 237.372 300.749 229.608 300.749C221.844 300.749 215.524 307.069 215.524 314.833C215.524 322.596 221.839 328.916 229.608 328.916ZM229.608 302.285C236.527 302.285 242.155 307.914 242.155 314.833C242.155 321.751 236.527 327.38 229.608 327.38C222.689 327.38 217.061 321.751 217.061 314.833C217.061 307.914 222.689 302.285 229.608 302.285Z" fill="#4E40C4"/>
<path d="M442.998 349.765C468.917 349.765 489.996 328.68 489.996 302.767C489.996 276.853 468.912 255.769 442.998 255.769C417.084 255.769 396 276.853 396 302.767C396 328.68 417.084 349.765 442.998 349.765ZM442.998 257.3C468.067 257.3 488.46 277.693 488.46 302.762C488.46 327.83 468.067 348.223 442.998 348.223C417.929 348.223 397.536 327.83 397.536 302.762C397.536 277.693 417.929 257.3 442.998 257.3Z" fill="#4E40C4"/>
<path d="M442.999 343.615C465.522 343.615 483.852 325.291 483.852 302.762C483.852 280.239 465.528 261.91 442.999 261.91C436.162 261.91 429.392 263.63 423.431 266.893C423.057 267.098 422.924 267.564 423.123 267.937C423.328 268.311 423.794 268.444 424.168 268.245C429.904 265.11 436.418 263.451 442.999 263.451C464.677 263.451 482.315 281.089 482.315 302.767C482.315 324.446 464.677 342.084 442.999 342.084C429.627 342.084 417.29 335.38 409.997 324.144C409.767 323.79 409.291 323.688 408.932 323.918C408.579 324.149 408.476 324.625 408.707 324.984C416.286 336.65 429.105 343.615 442.999 343.615Z" fill="#4E40C4"/>
<path d="M151.342 349.765C177.261 349.765 198.34 328.68 198.34 302.767C198.34 276.853 177.256 255.769 151.342 255.769C125.428 255.769 104.344 276.853 104.344 302.767C104.344 328.68 125.428 349.765 151.342 349.765ZM151.342 257.3C176.41 257.3 196.803 277.693 196.803 302.762C196.803 327.83 176.41 348.223 151.342 348.223C126.273 348.223 105.88 327.83 105.88 302.762C105.88 277.693 126.273 257.3 151.342 257.3Z" fill="#4E40C4"/>
<path d="M151.339 343.615C173.862 343.615 192.191 325.291 192.191 302.762C192.191 280.239 173.867 261.91 151.339 261.91C128.815 261.91 110.486 280.234 110.486 302.762C110.486 325.291 128.815 343.615 151.339 343.615ZM151.339 263.451C173.017 263.451 190.655 281.089 190.655 302.767C190.655 324.446 173.017 342.084 151.339 342.084C129.66 342.084 112.023 324.446 112.023 302.767C112.023 281.084 129.66 263.451 151.339 263.451Z" fill="#4E40C4"/>
<path d="M364.05 335.297L384.115 336.772C384.566 336.802 384.96 336.464 384.996 336.014L385.17 333.638C385.201 333.187 384.863 332.793 384.412 332.757L364.347 331.282C363.896 331.251 363.502 331.589 363.466 332.04L363.292 334.416C363.256 334.867 363.594 335.261 364.05 335.297Z" fill="#4E40C4"/>
<path d="M201.73 336.767L221.774 338.524C222.225 338.565 222.625 338.227 222.666 337.776L222.876 335.405C222.917 334.954 222.578 334.555 222.128 334.514L202.083 332.757C201.632 332.716 201.233 333.054 201.192 333.505L200.982 335.876C200.946 336.332 201.279 336.731 201.73 336.767Z" fill="#4E40C4"/>
<path d="M276.535 332.665L296.298 336.45C296.743 336.537 297.173 336.245 297.261 335.8L297.711 333.459C297.798 333.014 297.506 332.583 297.061 332.496L277.298 328.712C276.852 328.625 276.422 328.917 276.335 329.362L275.884 331.702C275.797 332.153 276.089 332.583 276.535 332.665Z" fill="#4E40C4"/>
<path d="M335.233 313.194L350.397 299.965C350.741 299.668 350.776 299.146 350.474 298.808L348.907 297.016C348.61 296.672 348.088 296.637 347.75 296.939L332.586 310.167C332.242 310.464 332.207 310.987 332.509 311.325L334.076 313.117C334.373 313.455 334.89 313.491 335.233 313.194Z" fill="#4E40C4"/>
<path d="M443.001 309.854C439.083 309.854 435.908 306.678 435.908 302.761C435.908 298.844 439.083 295.668 443.001 295.668C446.918 295.668 450.094 298.844 450.094 302.761C450.094 306.678 446.918 309.854 443.001 309.854Z" fill="#4E40C4"/>
<path d="M368.922 224.391L366.161 227.576L364.692 232.877L365.296 235.97C365.491 236.958 364.733 237.88 363.724 237.88H355.417C354.091 237.88 353.01 236.805 353.01 235.473V232.774C353.01 231.699 353.302 230.649 353.85 229.727L357.425 223.746L365.373 218.64L368.922 224.391Z" fill="white"/>
<path d="M355.414 238.654H363.726C364.437 238.654 365.103 238.336 365.554 237.788C366.005 237.24 366.189 236.524 366.051 235.827L365.477 232.913L366.855 227.956L369.871 224.478L365.62 217.585L356.858 223.208L353.191 229.343C352.571 230.383 352.238 231.576 352.238 232.785V235.484C352.238 237.23 353.662 238.654 355.414 238.654ZM367.971 224.314L365.467 227.203L363.9 232.846L364.54 236.119C364.586 236.365 364.524 236.616 364.366 236.81C364.207 237.005 363.971 237.112 363.72 237.112H355.409C354.507 237.112 353.77 236.38 353.77 235.474V232.775C353.77 231.838 354.026 230.921 354.502 230.122L357.985 224.294L365.124 219.71L367.971 224.314Z" fill="#4E40C4"/>
<path d="M412.978 210.01V214.517L384.616 228.698C382.014 229.999 380.417 232.703 380.529 235.606L382.777 292.801L425.305 210.01H412.978Z" fill="#4E40C4"/>
<path d="M381.909 304.818L393.723 310.829L385.868 326.267L374.055 320.256L381.909 304.818Z" fill="#4E40C4"/>
<path d="M382.779 293.569C382.789 293.569 382.799 293.569 382.81 293.569C383.235 293.554 383.562 293.195 383.547 292.77L381.304 235.575C381.201 232.979 382.641 230.546 384.966 229.384L413.752 214.993V210.778H425.306C425.731 210.778 426.074 210.435 426.074 210.01C426.074 209.585 425.731 209.242 425.306 209.242H412.211V214.04L384.274 228.006C381.411 229.44 379.639 232.431 379.767 235.632L382.011 292.826C382.026 293.241 382.369 293.569 382.779 293.569Z" fill="#4E40C4"/>
<path d="M439.891 207.844L441.75 210.737C444.766 215.434 446 220.929 445.432 226.28C444.899 231.304 442.354 235.903 438.508 239.176L436.326 241.035C434.022 242.996 432.106 245.383 430.693 248.056L396.59 312.431C395.807 313.911 394.27 314.838 392.596 314.838H375.967C373.913 314.838 372.581 312.661 373.524 310.833L416.727 226.726L414.202 214.66V210.01L439.891 207.844Z" fill="white"/>
<path d="M375.966 315.601H392.195C394.407 315.601 396.425 314.387 397.46 312.431L431.373 248.415C432.75 245.813 434.584 243.529 436.827 241.619L439.009 239.76C443.101 236.277 445.651 231.52 446.199 226.357C446.793 220.755 445.441 215.06 442.399 210.317L440.54 207.424C440.31 207.065 439.833 206.963 439.48 207.193C439.121 207.424 439.019 207.9 439.249 208.253L441.108 211.147C443.966 215.592 445.231 220.939 444.673 226.193C444.171 230.961 441.805 235.36 438.015 238.587L435.834 240.446C433.442 242.479 431.486 244.917 430.016 247.693L396.103 311.709C395.334 313.158 393.839 314.059 392.195 314.059H375.966C375.269 314.059 374.639 313.706 374.276 313.112C373.912 312.518 373.886 311.796 374.204 311.176L417.407 227.069C417.602 226.69 417.453 226.229 417.074 226.035C416.695 225.84 416.234 225.989 416.04 226.367L372.836 310.474C372.273 311.576 372.319 312.861 372.965 313.911C373.61 314.971 374.731 315.601 375.966 315.601Z" fill="#4E40C4"/>
<path d="M390.361 317.987L392.752 325.633L392.916 330.058C392.973 331.605 391.667 332.854 390.125 332.731L356.847 330.007C355.346 329.884 354.312 328.45 354.67 326.985L354.957 325.823L366.823 323.713L375.012 317.619L377.009 317.265L377.798 319.099C378.571 320.906 380.308 322.12 382.274 322.228L383.887 322.315C386.253 322.448 388.409 320.952 389.116 318.689L389.336 317.987H390.361Z" fill="white"/>
<path d="M390.328 333.51C391.188 333.51 392.018 333.178 392.643 332.583C393.334 331.923 393.713 330.991 393.677 330.038L393.508 325.511L390.917 317.22L388.761 317.24L388.377 318.474C387.773 320.405 385.944 321.67 383.921 321.562L382.308 321.475C380.623 321.383 379.164 320.359 378.498 318.807L377.474 316.416L374.698 316.907L366.509 323.002L354.325 325.168L353.921 326.817C353.695 327.734 353.885 328.696 354.438 329.459C354.991 330.223 355.846 330.704 356.784 330.781L390.062 333.505C390.144 333.505 390.236 333.51 390.328 333.51ZM391.982 325.767L392.141 330.089C392.161 330.617 391.962 331.103 391.583 331.467C391.204 331.831 390.702 332.01 390.18 331.964L356.901 329.239C356.41 329.198 355.964 328.947 355.677 328.548C355.391 328.148 355.293 327.647 355.406 327.17L355.57 326.494L367.123 324.441L375.312 318.346L376.531 318.131L377.079 319.406C377.975 321.496 379.947 322.873 382.216 323.002L383.829 323.089C386.549 323.242 389.017 321.527 389.836 318.93V318.925L391.982 325.767Z" fill="#4E40C4"/>
<path d="M362.335 238.653C362.381 238.653 362.427 238.648 362.473 238.643C362.893 238.566 363.169 238.167 363.093 237.752L362.637 235.253L362.949 233.122C363.011 232.702 362.719 232.313 362.299 232.252C361.879 232.19 361.49 232.482 361.428 232.902L361.08 235.284L361.582 238.034C361.648 238.392 361.971 238.653 362.335 238.653Z" fill="#4E40C4"/>
<path d="M359.444 238.653C359.49 238.653 359.536 238.648 359.583 238.643C359.997 238.566 360.279 238.167 360.202 237.752L359.746 235.253L360.059 233.122C360.12 232.702 359.828 232.313 359.408 232.252C358.988 232.19 358.599 232.482 358.538 232.902L358.19 235.284L358.691 238.034C358.753 238.392 359.081 238.653 359.444 238.653Z" fill="#4E40C4"/>
<path d="M356.55 238.653C356.596 238.653 356.642 238.648 356.688 238.643C357.103 238.566 357.384 238.167 357.308 237.752L356.852 235.253L357.164 233.122C357.226 232.702 356.934 232.313 356.514 232.252C356.094 232.19 355.705 232.482 355.643 232.902L355.295 235.284L355.797 238.034C355.863 238.392 356.186 238.653 356.55 238.653Z" fill="#4E40C4"/>
<path d="M439.886 207.844C442.411 206.056 443.563 202.876 442.734 199.89C440.188 190.698 432.716 171.621 413.322 163.903C409.937 162.556 406.209 162.31 402.68 163.212L392.371 165.839L391.48 175.544C391.203 178.535 400.027 195.875 400.027 195.875L412.984 210.01H433.09C435.523 210.01 437.899 209.252 439.886 207.844Z" fill="white"/>
<path d="M412.644 210.778H433.088C435.7 210.778 438.204 209.979 440.334 208.474C443.126 206.497 444.385 202.968 443.479 199.691C440.616 189.361 432.934 170.884 413.612 163.196C410.047 161.778 406.201 161.527 402.493 162.474L391.657 165.235L390.714 175.477C390.427 178.601 398.427 194.431 399.344 196.229L399.39 196.321L412.644 210.778ZM406.944 163.442C409.013 163.442 411.071 163.837 413.038 164.62C431.746 172.061 439.213 190.042 441.994 200.095C442.731 202.753 441.702 205.611 439.443 207.214C437.574 208.54 435.377 209.237 433.088 209.237H413.32L400.665 195.43C397.29 188.793 392.061 177.618 392.246 175.61L393.085 166.448L402.872 163.954C404.219 163.611 405.581 163.442 406.944 163.442Z" fill="#4E40C4"/>
<path d="M382.842 135.706C382.842 135.706 377.608 138.241 375.299 143.92C374.827 145.073 372.513 147.838 372.354 149.257C372.241 150.25 374.192 149.83 374.29 150.952C374.418 152.457 374.756 154.086 375.355 155.838C376.395 158.874 379.493 160.698 382.648 160.114L387.236 159.264C389.044 158.931 390.801 160.037 391.277 161.809L392.358 165.834L406.195 162.674L399.343 156.872C398.442 156.109 398.058 154.89 398.38 153.748C399.271 150.578 400.142 143.9 393.438 139.823C384.414 134.333 382.842 135.706 382.842 135.706Z" fill="white"/>
<path d="M391.823 166.756L407.883 163.089L399.858 156.293C399.182 155.719 398.9 154.808 399.136 153.968C399.97 150.997 401.133 143.607 393.856 139.177C385.718 134.225 383.209 134.558 382.456 135.05C381.805 135.377 376.879 138.02 374.6 143.638C374.451 144.007 373.99 144.693 373.55 145.359C372.648 146.711 371.721 148.114 371.599 149.179C371.476 150.286 372.5 150.624 372.992 150.787C373.161 150.844 373.478 150.946 373.539 151.023C373.678 152.662 374.047 154.367 374.641 156.098C375.793 159.473 379.306 161.532 382.799 160.882L387.387 160.031C388.791 159.77 390.179 160.646 390.547 162.024L391.823 166.756ZM404.544 162.269L392.924 164.922L392.032 161.614C391.454 159.468 389.293 158.106 387.111 158.51L382.522 159.361C379.767 159.868 377.007 158.249 376.095 155.591C375.542 153.978 375.199 152.396 375.066 150.89C374.973 149.814 373.995 149.492 373.473 149.318C373.376 149.287 373.248 149.246 373.155 149.205C373.324 148.473 374.19 147.172 374.835 146.204C375.363 145.41 375.818 144.719 376.028 144.207C378.19 138.88 383.147 136.417 383.193 136.392L383.285 136.345C383.567 136.279 385.723 136.018 393.057 140.478C399.207 144.222 398.577 150.27 397.656 153.538C397.256 154.956 397.727 156.493 398.864 157.455L404.544 162.269ZM373.125 149.348H373.12H373.125ZM383.357 136.284C383.357 136.284 383.357 136.289 383.357 136.284V136.284Z" fill="#4E40C4"/>
<path d="M394.131 168.491C394.131 168.491 389.107 184.367 381.056 196.085C373.477 207.116 362.804 213.856 363.803 219.136C363.803 219.136 365.6 224.487 371.044 224.82C373.615 224.979 376.109 223.873 377.861 221.983L390.572 208.227C392.543 206.092 394.203 203.685 395.488 201.073L406.207 179.384L394.131 168.491Z" fill="white"/>
<path d="M406.899 182.801L399.514 194.888L412.281 209.248L406.899 182.801Z" fill="#4E40C4"/>
<path d="M371.536 225.599C374.102 225.599 376.586 224.488 378.424 222.501L391.135 208.745C393.153 206.564 394.843 204.11 396.159 201.447L407.554 183.21C407.78 182.852 407.672 182.376 407.308 182.15C406.95 181.925 406.474 182.038 406.248 182.396L394.797 200.73C393.542 203.271 391.929 205.616 390.004 207.7L377.293 221.456C375.638 223.244 373.38 224.191 371.091 224.048C366.451 223.766 364.745 219.474 364.551 218.937C364.09 216.222 367.455 212.704 371.71 208.248C374.911 204.899 378.537 201.104 381.692 196.516C389.732 184.813 392.39 173.726 392.416 173.618C392.513 173.203 392.257 172.794 391.842 172.696C391.432 172.599 391.018 172.855 390.92 173.27C390.895 173.378 388.293 184.199 380.422 195.65C377.339 200.141 373.754 203.885 370.599 207.193C366.01 211.992 362.39 215.787 363.05 219.28L363.076 219.382C363.158 219.623 365.104 225.231 370.999 225.589C371.178 225.594 371.357 225.599 371.536 225.599Z" fill="#4E40C4"/>
<path d="M406.127 142.849C406.317 140.693 406.138 138.379 404.878 136.622C403.613 134.865 400.996 133.959 399.193 135.157C398.543 131.793 396.494 128.725 393.631 126.835C392.495 126.082 391.24 125.519 389.954 125.053C387.383 124.121 384.587 123.578 381.904 124.116C381.135 124.269 380.383 124.515 379.661 124.833C376.849 126.077 374.637 128.402 372.962 130.937C372.537 131.583 372.142 132.248 371.779 132.929C371.42 133.595 371.041 134.276 370.898 135.029C370.601 136.607 369.986 138.056 370.473 139.679C370.913 141.149 372.045 142.394 373.469 142.967C375.471 143.776 377.766 143.244 379.737 142.373C381.709 141.502 383.548 140.299 385.617 139.69C387.066 139.259 388.93 139.285 389.75 140.555C390.139 141.159 390.323 142.045 390.241 142.762C390.216 143.003 390.067 143.182 389.944 143.387C389.647 143.894 389.401 144.437 389.212 144.995C388.838 146.112 388.684 147.31 388.787 148.488C388.802 148.657 388.823 148.831 388.91 148.98C389.13 149.343 389.688 149.353 390.052 149.128C390.415 148.898 390.635 148.514 390.876 148.155C391.209 147.653 391.609 147.197 392.049 146.788C392.392 146.47 392.858 145.973 393.365 145.968C394.584 145.953 394.799 146.977 395.009 147.935C395.101 148.36 395.05 148.79 395.04 149.22C395.024 150.332 395.173 151.448 395.475 152.518C395.721 153.379 396.079 154.234 396.725 154.859C397.206 155.32 398.123 155.837 398.809 155.56C399.06 155.463 399.229 155.243 399.408 155.053C399.675 154.782 399.977 154.572 400.279 154.342C401.508 153.409 402.553 152.242 403.393 150.951C404.965 148.549 405.871 145.712 406.127 142.849Z" fill="#FF4C1E"/>
<path d="M393.384 165.583L402.679 163.212C406.213 162.31 409.936 162.556 413.321 163.903C420.24 166.653 425.633 170.853 429.832 175.534C429.346 176.133 428.798 176.676 428.234 177.162C425.704 179.344 422.012 179.538 419.185 177.756C416.788 176.251 413.557 174.161 410.115 171.764C400.912 165.363 395.489 165.25 393.384 165.583Z" fill="#4E40C4"/>
<path d="M399.353 156.877C399.353 156.877 414.461 148.944 425.308 155.642C434.434 161.281 432.606 166.93 429.687 170.545C427.587 173.147 423.992 173.997 420.888 172.758C418.261 171.708 414.707 170.228 410.891 168.492C397.381 162.331 392.368 165.844 392.368 165.844C392.368 165.844 390.898 162.018 399.353 156.877Z" fill="white"/>
<path d="M423.774 174.079C426.263 174.079 428.696 172.999 430.283 171.027C432.332 168.487 433.151 165.926 432.721 163.407C432.204 160.375 429.843 157.538 425.71 154.982C414.622 148.13 399.627 155.858 398.997 156.191L398.956 156.216C390.05 161.624 391.582 165.931 391.653 166.111L392.007 167.027L392.811 166.464C392.852 166.438 397.758 163.34 410.576 169.183C414.54 170.991 418.217 172.507 420.604 173.465C421.633 173.88 422.709 174.079 423.774 174.079ZM415.058 153.738C418.397 153.738 421.838 154.403 424.901 156.298C428.644 158.613 430.765 161.092 431.205 163.673C431.558 165.737 430.841 167.888 429.085 170.069C427.236 172.359 423.984 173.173 421.172 172.046C418.801 171.099 415.15 169.588 411.211 167.796C400.861 163.079 395.294 163.914 393.077 164.677C393.277 163.381 394.419 160.779 399.729 157.548C400.16 157.328 407.319 153.738 415.058 153.738Z" fill="#4E40C4"/>
<path d="M401.194 155.847C401.839 155.489 402.495 155.156 403.161 154.838C403.596 154.633 404.036 154.434 404.482 154.244C404.82 154.101 405.168 154.034 405.527 153.957C406.244 153.804 406.961 153.666 407.683 153.543C409.281 153.271 410.894 153.087 412.512 153C414.238 152.913 415.974 152.938 417.695 153.133C419.436 153.328 421.167 153.696 422.821 154.29C423.154 154.408 423.477 154.536 423.805 154.674C422.529 155.391 420.993 155.888 419.426 156.18C416.911 156.646 414.289 156.651 411.698 156.656C410.469 156.656 409.24 156.656 408.011 156.661C407.396 156.661 406.782 156.661 406.167 156.661C405.716 156.661 405.24 156.708 404.794 156.656C404.369 156.61 403.996 156.825 403.606 156.984C402.679 157.363 401.768 157.778 400.877 158.234C400.708 158.321 400.539 158.408 400.37 158.495C399.412 159.002 398.449 159.565 397.374 159.698C397.292 159.709 397.2 159.714 397.128 159.673C397.02 159.611 396.99 159.478 396.984 159.355C396.969 158.643 397.604 158.111 398.188 157.706C399.151 157.04 400.16 156.421 401.194 155.847Z" fill="#4E40C4"/>
<path d="M393.068 166.147C392.705 166.116 392.341 166.024 391.983 166.141C391.604 166.264 391.245 166.531 390.938 166.776C390.277 167.314 389.76 168.006 389.325 168.733C388.336 170.382 387.891 172.21 387.568 174.09C387.199 176.235 386.949 178.443 386.129 180.481C385.422 182.238 384.373 183.81 383.143 185.239C381.72 186.888 380.081 188.419 378.242 189.592C377.694 189.94 377.09 189.146 377.551 188.696C379.036 187.256 380.67 185.986 382.053 184.435C383.435 182.878 384.598 181.096 385.233 179.103C386.518 175.068 385.827 170.259 388.592 166.761C389.238 165.947 390.057 165.204 390.999 164.759C391.855 164.354 393.401 164.144 393.647 165.389C393.719 165.732 393.488 166.182 393.068 166.147Z" fill="#4E40C4"/>
<path d="M391.469 166.11C390.358 166.167 389.257 166.32 388.248 166.822C387.208 167.339 386.338 168.077 385.539 168.912C383.966 170.556 382.655 172.425 381.047 174.038C379.496 175.595 377.775 176.988 375.936 178.191C374.134 179.369 372.034 180.655 369.842 180.808C369.489 180.834 369.248 180.306 369.54 180.076C370.928 178.975 372.592 178.289 374.108 177.382C375.634 176.471 377.078 175.431 378.415 174.263C379.798 173.055 381.037 171.718 382.205 170.299C383.378 168.876 384.535 167.452 386.041 166.371C387.577 165.27 389.738 164.359 391.613 165.03C392.196 165.24 392.109 166.08 391.469 166.11Z" fill="#4E40C4"/>
<path d="M392.875 329.741C393.279 329.741 393.618 329.424 393.643 329.019C393.669 328.594 393.346 328.23 392.921 328.21L368.871 326.837C368.451 326.817 368.083 327.139 368.062 327.559C368.037 327.985 368.359 328.348 368.784 328.369L392.834 329.736C392.849 329.741 392.865 329.741 392.875 329.741Z" fill="#4E40C4"/>
<path d="M387.439 195.799C387.864 195.799 388.207 195.456 388.207 195.031C388.207 194.611 387.864 194.267 387.444 194.262C387.388 194.262 386.425 194.227 386.005 193.417C385.81 193.044 385.349 192.895 384.97 193.09C384.591 193.284 384.448 193.75 384.643 194.124C385.498 195.783 387.357 195.799 387.439 195.799Z" fill="#4E40C4"/>
<path d="M378.821 145.548C378.377 145.548 378.017 145.119 378.017 144.591C378.017 144.062 378.377 143.633 378.821 143.633C379.265 143.633 379.625 144.062 379.625 144.591C379.625 145.119 379.265 145.548 378.821 145.548Z" fill="#4E40C4"/>
<path d="M378.822 155.899C378.862 155.899 378.903 155.894 378.944 155.888C380.86 155.586 381.413 153.855 381.433 152.979C381.444 152.554 381.111 152.201 380.686 152.191C380.271 152.17 379.912 152.513 379.897 152.933C379.892 153.067 379.81 154.198 378.704 154.372C378.284 154.439 377.997 154.833 378.064 155.253C378.125 155.627 378.453 155.899 378.822 155.899Z" fill="#4E40C4"/>
<path d="M415.987 128.797L417.247 121.985C416.161 119.553 415.587 116.844 415.705 113.981C416.089 104.64 423.766 97.0959 433.112 96.8808C443.334 96.6453 451.657 105.008 451.359 115.241C451.093 124.418 443.77 131.972 434.608 132.52C430.721 132.75 427.095 131.716 424.068 129.821L418.107 130.917C416.847 131.147 415.751 130.051 415.987 128.797Z" fill="#4E40C4"/>
<path d="M335.836 109.817L337.127 102.822C336.01 100.322 335.421 97.5365 335.539 94.5969C335.933 84.9996 343.82 77.2459 353.423 77.0308C363.921 76.7901 372.479 85.3836 372.172 95.8977C371.9 105.326 364.372 113.09 354.959 113.653C350.964 113.894 347.241 112.829 344.133 110.877L338.008 111.999C336.722 112.229 335.595 111.103 335.836 109.817Z" fill="#FF4C1E"/>
<path d="M225.249 117.299L226.519 110.421C225.418 107.963 224.839 105.223 224.957 102.33C225.346 92.8912 233.1 85.2707 242.544 85.0556C252.868 84.82 261.283 93.2702 260.98 103.605C260.714 112.874 253.309 120.51 244.055 121.063C240.127 121.299 236.465 120.254 233.407 118.334L227.385 119.44C226.12 119.676 225.014 118.569 225.249 117.299Z" fill="#4E40C4"/>
<path d="M325.193 280.344L336.512 276.421L342.184 292.787L330.865 296.71L325.193 280.344Z" fill="#4E40C4"/>
<path d="M339.968 283.592L347.133 287.177L350.436 290.127C351.588 291.156 351.583 292.969 350.426 293.994L325.382 316.077C324.256 317.07 322.504 316.824 321.695 315.549L321.055 314.535L327.769 304.523L329.06 294.398L330.191 292.713L332.056 293.42C333.899 294.117 335.973 293.707 337.412 292.37L338.595 291.269C340.332 289.656 340.751 287.07 339.615 284.99L339.261 284.345L339.968 283.592Z" fill="white"/>
<path d="M323.765 317.449C324.543 317.449 325.296 317.168 325.89 316.645L350.933 294.562C351.65 293.927 352.065 293.016 352.07 292.058C352.075 291.1 351.666 290.184 350.954 289.549L347.574 286.527L339.805 282.645L338.325 284.217L338.944 285.349C339.912 287.121 339.559 289.323 338.079 290.696L336.896 291.797C335.662 292.949 333.91 293.292 332.333 292.693L329.895 291.771L328.323 294.112L327.032 304.236L320.144 314.515L321.056 315.949C321.558 316.743 322.382 317.28 323.319 317.408C323.463 317.439 323.616 317.449 323.765 317.449ZM346.698 287.812L349.924 290.696C350.319 291.044 350.534 291.53 350.529 292.053C350.529 292.58 350.309 293.062 349.914 293.41L324.871 315.493C324.502 315.821 324.011 315.964 323.524 315.898C323.038 315.826 322.607 315.549 322.341 315.135L321.967 314.546L328.502 304.8L329.793 294.675L330.484 293.646L331.78 294.137C333.91 294.941 336.266 294.48 337.935 292.929L339.119 291.827C341.116 289.974 341.592 287.008 340.286 284.617L340.281 284.612L346.698 287.812Z" fill="#4E40C4"/>
<path d="M331.949 306.535C332.133 306.535 332.323 306.469 332.471 306.331L350.145 289.958C350.457 289.671 350.473 289.185 350.186 288.872C349.899 288.56 349.413 288.544 349.1 288.831L331.427 305.204C331.114 305.491 331.099 305.977 331.386 306.29C331.539 306.454 331.744 306.535 331.949 306.535Z" fill="#4E40C4"/>
<path d="M294.468 305.343L306.086 308.261L301.867 325.06L290.249 322.142L294.468 305.343Z" fill="#4E40C4"/>
<path d="M304.381 318.336L305.969 326.187L305.677 330.606C305.574 332.153 304.146 333.259 302.625 332.972L269.807 326.822C268.327 326.545 267.446 325.009 267.953 323.595L268.358 322.468L280.383 321.598L289.161 316.384L291.184 316.236L291.778 318.141C292.361 320.02 293.959 321.408 295.905 321.716L297.498 321.972C299.839 322.346 302.133 321.086 303.075 318.909L303.367 318.233L304.381 318.336Z" fill="white"/>
<path d="M303.096 333.786C303.833 333.786 304.561 333.54 305.149 333.084C305.907 332.496 306.379 331.615 306.44 330.657L306.742 326.135L305.021 317.623L302.876 317.424L302.363 318.612C301.565 320.466 299.608 321.541 297.616 321.218L296.023 320.962C294.359 320.696 293.007 319.528 292.51 317.915L291.737 315.426L288.925 315.631L280.147 320.845L267.805 321.741L267.231 323.339C266.914 324.225 267.001 325.203 267.472 326.022C267.943 326.842 268.742 327.41 269.669 327.579L302.486 333.73C302.681 333.771 302.886 333.786 303.096 333.786ZM305.196 326.237L304.909 330.555C304.873 331.082 304.627 331.548 304.212 331.871C303.797 332.193 303.285 332.316 302.763 332.219L269.946 326.068C269.464 325.976 269.044 325.679 268.799 325.254C268.553 324.829 268.507 324.317 268.676 323.856L268.911 323.2L280.613 322.355L289.386 317.137L290.62 317.05L291.03 318.371C291.706 320.542 293.524 322.12 295.767 322.478L297.36 322.734C300.049 323.165 302.686 321.72 303.762 319.216V319.211L305.196 326.237Z" fill="#4E40C4"/>
<path d="M305.748 330.283C306.117 330.283 306.444 330.017 306.506 329.638C306.572 329.218 306.291 328.824 305.871 328.757L282.088 324.906C281.668 324.839 281.273 325.121 281.207 325.541C281.14 325.961 281.422 326.355 281.842 326.422L305.625 330.273C305.666 330.283 305.712 330.283 305.748 330.283Z" fill="#4E40C4"/>
<path d="M340.023 208.684L305.644 315.632L291.73 312.861L311.78 208.684H340.023Z" fill="#4E40C4"/>
<path d="M306.164 316.517L306.374 315.867L341.07 207.92H311.136L290.825 313.465L306.164 316.517ZM338.965 209.452L305.124 314.74L292.628 312.251L312.412 209.452H338.965Z" fill="#4E40C4"/>
<path d="M353.83 193.273L355.367 198.246C358.757 209.211 352.504 220.826 341.483 224.032L320.906 230.014L338.774 281.17L325.376 284.888L292.969 224.093C290.147 218.803 292.298 212.227 297.701 209.626L324.152 196.889L323.681 194.697L353.83 193.273Z" fill="white"/>
<path d="M324.993 285.795L339.773 281.692L321.905 230.526L341.704 224.769C347.235 223.161 351.783 219.484 354.512 214.414C357.242 209.344 357.81 203.521 356.105 198.021L354.389 192.479L322.745 193.98L323.278 196.464L297.369 208.939C294.568 210.291 292.488 212.663 291.52 215.618C290.552 218.572 290.824 221.717 292.289 224.462L324.993 285.795ZM337.781 280.648L325.766 283.982L293.646 223.73C292.381 221.358 292.145 218.644 292.98 216.089C293.815 213.533 295.612 211.485 298.035 210.317L325.034 197.319L324.63 195.424L353.273 194.067L354.635 198.471C356.213 203.577 355.69 208.98 353.155 213.682C350.62 218.388 346.4 221.799 341.269 223.289L319.913 229.496L337.781 280.648Z" fill="#4E40C4"/>
<path d="M310.475 121.529C310.475 121.529 301.267 123.844 302.931 129.743C303.5 131.751 301.139 133.6 300.98 135.018C300.867 136.012 301.825 135.648 301.922 136.775C302.051 138.281 302.389 139.909 302.988 141.661C304.027 144.698 307.126 146.521 310.28 145.937L314.869 145.087C316.677 144.754 318.434 145.86 318.91 147.637L319.99 151.663L333.828 148.503L326.976 142.7C326.074 141.937 325.69 140.718 326.013 139.576C326.904 136.406 327.775 129.728 321.071 125.652C312.047 120.151 310.475 121.529 310.475 121.529Z" fill="white"/>
<path d="M319.447 152.574L335.508 148.908L327.483 142.112C326.807 141.538 326.525 140.626 326.761 139.787C327.595 136.816 328.758 129.426 321.481 124.996C313.635 120.223 311.018 120.356 310.173 120.817C309.323 121.048 304.555 122.466 302.706 125.662C301.938 126.988 301.769 128.433 302.199 129.954C302.45 130.85 301.825 131.828 301.221 132.775C300.75 133.513 300.304 134.209 300.222 134.937C300.114 135.874 300.642 136.263 300.924 136.473C301.118 136.616 301.139 136.632 301.159 136.847C301.298 138.475 301.671 140.181 302.265 141.917C303.418 145.292 306.926 147.351 310.424 146.7L315.012 145.85C316.416 145.589 317.803 146.465 318.172 147.842L319.447 152.574ZM332.164 148.093L320.543 150.746L319.652 147.438C319.074 145.292 316.912 143.93 314.731 144.334L310.142 145.184C307.387 145.696 304.626 144.073 303.715 141.415C303.162 139.802 302.819 138.219 302.691 136.714C302.614 135.807 302.107 135.433 301.835 135.234C301.805 135.213 301.774 135.193 301.743 135.167C301.743 135.152 301.743 135.131 301.748 135.106C301.789 134.732 302.158 134.153 302.511 133.6C303.223 132.484 304.109 131.096 303.674 129.534C303.356 128.407 303.474 127.393 304.032 126.43C305.692 123.557 310.618 122.287 310.664 122.272L310.844 122.226L310.905 122.169C311.192 122.103 313.348 121.841 320.676 126.302C326.827 130.046 326.197 136.094 325.275 139.361C324.876 140.78 325.352 142.316 326.484 143.279L332.164 148.093Z" fill="#4E40C4"/>
<path d="M335.101 128.637C335.096 128.315 335.071 127.992 335.009 127.669C334.615 125.611 332.413 123.818 330.456 124.566C332.797 123.557 333.872 120.356 332.618 118.134C331.358 115.916 328.06 115.194 325.991 116.684C325.391 117.114 324.797 117.724 324.065 117.642C323.522 117.581 323.107 117.145 322.728 116.751C321.084 115.02 319.113 113.468 316.782 112.961C314.452 112.454 311.718 113.238 310.504 115.291C308.66 113.181 305.644 112.172 302.904 112.751C298.812 113.617 295.468 117.985 297.106 122.144C298.023 124.464 300.225 126.148 302.648 126.727C304.507 127.173 306.606 127.157 308.501 126.968C309.766 126.84 310.396 126.148 311.451 125.6C314.314 124.11 317.597 127.203 317.827 129.974C318.001 132.074 316.88 134.194 317.387 136.243C318.053 136.248 318.606 135.141 319.271 135.147C319.84 135.305 319.789 133.836 320.234 132.683C320.357 132.366 320.48 131.982 320.823 131.838C321.924 131.382 322.462 133.021 322.621 133.769C322.713 134.189 322.657 134.619 322.651 135.044C322.636 136.155 322.785 137.272 323.087 138.342C323.333 139.203 323.696 140.058 324.336 140.683C324.818 141.144 325.734 141.661 326.421 141.384C326.887 141.2 327.276 140.652 327.737 140.396C328.075 140.212 328.321 140.022 328.602 139.751C329.237 139.136 329.837 138.491 330.415 137.82C331.542 136.509 332.551 135.095 333.432 133.61C334.338 132.089 335.117 130.368 335.101 128.637Z" fill="#4E40C4"/>
<path d="M305.642 130.41C305.642 130.937 306 131.368 306.446 131.368C306.886 131.368 307.25 130.937 307.25 130.41C307.25 129.882 306.892 129.452 306.446 129.452C306 129.452 305.642 129.882 305.642 130.41Z" fill="#4E40C4"/>
<path d="M331.156 148.462C331.156 148.462 337.752 147.893 342.32 154.454C345.838 159.513 353.92 181.97 357.443 192.008C358.278 194.394 356.511 196.889 353.981 196.889H324.165C322.275 196.889 320.652 195.552 320.293 193.698L314.767 165.5C314.035 161.762 315.039 156.097 317.978 153.675C320.744 151.406 324.974 149.122 331.156 148.462Z" fill="white"/>
<path d="M330.801 156.421C328.112 153.932 324.276 153.113 320.747 154.091C317.859 154.89 314.668 156.354 314.571 158.941C314.397 163.688 308.84 174.34 308.84 174.34L325.377 185.566C325.377 185.566 336.664 172.671 335.65 165.399C334.98 160.585 332.9 158.367 330.801 156.421Z" fill="white"/>
<path d="M343.847 157.154C344.38 158.214 344.964 159.468 345.578 160.861L327.418 149.103C328.396 148.867 329.436 148.678 330.542 148.54L343.847 157.154Z" fill="#FF4C1E"/>
<path d="M317.583 154.044C317.711 153.921 317.834 153.793 317.967 153.681C318.398 153.327 318.869 152.969 319.376 152.621L350.38 172.691C350.815 173.828 351.251 174.975 351.676 176.117L317.583 154.044Z" fill="#FF4C1E"/>
<path d="M313.754 162.879C313.995 162.105 314.194 161.358 314.338 160.671L355.851 187.548C356.281 188.751 356.681 189.878 357.039 190.902L313.754 162.879Z" fill="#FF4C1E"/>
<path d="M319.394 189.146L318.81 186.181L335.352 196.889H331.357L319.394 189.146Z" fill="#FF4C1E"/>
<path d="M310.093 171.815C310.375 171.221 310.693 170.55 311.02 169.828L352.82 196.889H348.826L310.093 171.815Z" fill="#FF4C1E"/>
<path d="M332.107 178.289L335.922 196.894H324.153C322.263 196.894 320.64 195.558 320.281 193.704L319.923 191.875L332.107 178.289Z" fill="#4E40C4"/>
<path d="M323.658 197.698C323.848 197.698 324.032 197.683 324.216 197.657H353.976C355.436 197.657 356.752 196.976 357.597 195.788C358.437 194.6 358.647 193.13 358.16 191.757C353.966 179.799 346.407 158.996 342.945 154.018C338.177 147.166 331.371 147.673 331.084 147.699C326.203 148.216 321.973 149.768 318.486 152.313C317.83 152.789 317.2 153.378 316.621 154.065C316.191 154.572 315.899 154.935 315.73 155.176C315.49 155.524 315.571 156.005 315.925 156.246C316.273 156.487 316.755 156.4 316.995 156.052C317.087 155.913 317.303 155.632 317.794 155.058C318.301 154.464 318.839 153.957 319.397 153.552C322.659 151.171 326.644 149.717 331.238 149.23C331.473 149.21 337.45 148.8 341.69 154.899C345.178 159.913 353.362 182.703 356.716 192.269C357.033 193.166 356.895 194.128 356.347 194.902C355.794 195.68 354.934 196.126 353.981 196.126H324.104L324.047 196.136C322.444 196.382 321.307 194.902 320.688 191.727C320.606 191.312 320.201 191.04 319.786 191.122C319.371 191.204 319.1 191.609 319.182 192.024C320.068 196.592 321.994 197.698 323.658 197.698Z" fill="#4E40C4"/>
<path d="M325.5 186.575L332.68 178.811C332.967 178.499 332.946 178.012 332.639 177.725C332.327 177.439 331.84 177.454 331.553 177.766L325.275 184.562L309.767 174.033C310.684 171.298 314.858 159.12 317.541 155.386C317.787 155.043 317.71 154.562 317.367 154.316C317.024 154.065 316.543 154.147 316.297 154.49C313.147 158.874 308.333 173.48 308.128 174.099L307.949 174.647L325.5 186.575Z" fill="#4E40C4"/>
<path d="M283.051 223.771L280.377 226.859L278.949 231.996L279.538 234.997C279.727 235.955 278.99 236.851 278.011 236.851H269.956C268.67 236.851 267.625 235.806 267.625 234.521V231.904C267.625 230.864 267.907 229.84 268.44 228.949L271.907 223.151L279.614 218.204L283.051 223.771Z" fill="white"/>
<path d="M325.379 185.565C325.379 185.565 313.39 199.454 308.842 204.022L283.051 223.77L279.615 218.198L299.967 194.845L308.842 174.339L325.379 185.565Z" fill="white"/>
<path d="M269.954 237.614H278.01C278.707 237.614 279.362 237.306 279.803 236.769C280.243 236.231 280.422 235.529 280.289 234.848L279.736 232.026L281.068 227.233L283.628 224.278C283.905 223.955 283.874 223.474 283.551 223.192C283.229 222.915 282.747 222.951 282.466 223.269L279.675 226.485L278.154 231.965L278.778 235.145C278.825 235.376 278.763 235.611 278.615 235.796C278.466 235.98 278.246 236.082 278.01 236.082H269.954C269.094 236.082 268.392 235.381 268.392 234.52V231.903C268.392 231.002 268.638 230.116 269.099 229.343L272.474 223.699L280.028 218.849C280.387 218.619 280.489 218.142 280.258 217.789C280.028 217.431 279.552 217.328 279.198 217.559L271.342 222.603L267.783 228.554C267.179 229.568 266.856 230.725 266.856 231.903V234.52C266.856 236.226 268.244 237.614 269.954 237.614Z" fill="#4E40C4"/>
<path d="M283.053 224.539C283.217 224.539 283.38 224.487 283.519 224.38L309.392 204.566C313.908 200.033 325.846 186.206 325.964 186.068L326.527 185.417L308.511 173.188L299.313 194.431L279.038 217.697C278.761 218.014 278.792 218.501 279.114 218.782C279.432 219.059 279.918 219.028 280.2 218.706L300.634 195.26L309.187 175.497L324.243 185.719C321.821 188.51 312.285 199.485 308.347 203.449L282.597 223.166C282.259 223.422 282.197 223.904 282.453 224.242C282.592 224.436 282.822 224.539 283.053 224.539Z" fill="#4E40C4"/>
<path d="M276.569 236.988C276.615 236.988 276.661 236.983 276.707 236.978C277.122 236.901 277.404 236.502 277.327 236.087L276.871 233.588L277.184 231.457C277.245 231.037 276.953 230.648 276.533 230.587C276.113 230.525 275.724 230.817 275.663 231.237L275.314 233.619L275.816 236.369C275.883 236.727 276.206 236.983 276.569 236.988Z" fill="#4E40C4"/>
<path d="M273.686 236.988C273.733 236.988 273.779 236.983 273.825 236.978C274.24 236.901 274.521 236.502 274.444 236.087L273.989 233.588L274.301 231.457C274.362 231.037 274.071 230.648 273.651 230.587C273.231 230.525 272.841 230.817 272.78 231.237L272.432 233.619L272.934 236.369C272.995 236.727 273.318 236.983 273.686 236.988Z" fill="#4E40C4"/>
<path d="M270.788 236.988C270.834 236.988 270.88 236.983 270.926 236.978C271.346 236.901 271.623 236.502 271.546 236.087L271.09 233.588L271.402 231.457C271.464 231.037 271.172 230.648 270.752 230.587C270.332 230.525 269.943 230.817 269.881 231.237L269.533 233.619L270.035 236.369C270.102 236.727 270.424 236.983 270.788 236.988Z" fill="#4E40C4"/>
<path d="M299.843 138.977C299.997 137.794 300.499 136.744 301.63 136.412C303.346 135.915 305.446 137.139 306.844 138.009C308.175 138.834 309.691 139.361 311.248 139.525C312.288 139.638 313.374 139.587 314.336 139.172C316.912 138.05 316.523 135.7 317.404 133.497C317.66 132.857 318.326 132.304 318.981 132.489C319.596 132.663 319.893 133.4 319.847 134.04C319.78 134.916 319.335 135.695 319.171 136.55C318.797 138.547 319.591 140.918 318.869 142.808C318.444 143.919 317.466 144.769 316.544 145.461C313.676 147.612 310.035 149 306.526 148.329C304.806 148.001 303.095 147.028 301.887 145.686C301.042 144.744 300.504 143.622 300.14 142.414C299.889 141.553 299.684 140.191 299.843 138.977Z" fill="#4E40C4"/>
<path d="M303.007 197.457C303.078 197.457 303.15 197.452 303.206 197.447C303.626 197.396 303.928 197.012 303.872 196.592C303.821 196.177 303.442 195.875 303.032 195.921C302.991 195.921 302.689 195.931 302.505 195.67C302.259 195.327 301.778 195.245 301.434 195.491C301.091 195.736 301.009 196.218 301.255 196.561C301.762 197.273 302.52 197.457 303.007 197.457Z" fill="#4E40C4"/>
<path d="M322.274 234.684C322.356 234.684 322.443 234.669 322.525 234.643C322.924 234.505 323.139 234.07 323.001 233.665L319.037 222.183C318.899 221.784 318.464 221.569 318.059 221.707C317.66 221.845 317.444 222.281 317.583 222.685L321.547 234.167C321.659 234.485 321.956 234.684 322.274 234.684Z" fill="#4E40C4"/>
<path d="M198.44 132.909C198.087 132.735 197.724 132.571 197.365 132.412C195.824 131.731 194.174 131.132 192.495 131.255C190.815 131.378 189.094 132.392 188.633 134.015C188.459 134.625 188.474 135.27 188.51 135.905C188.613 137.713 188.669 139.326 189.837 140.714C190.615 141.646 191.025 142.747 191.409 143.884C192.295 146.506 192.822 149.251 193.939 151.791C194.108 152.17 194.287 152.544 194.482 152.908C197.237 158.07 202.809 161.255 205.621 166.387C207.823 170.407 208.171 175.37 210.988 178.99C212.908 181.459 215.791 183.021 218.762 183.994C221.102 184.762 223.601 185.208 226.029 184.813C228.456 184.419 230.812 183.093 232.041 180.957C233.619 178.217 233.071 174.668 231.534 171.903C229.998 169.137 227.617 166.966 225.373 164.738C221.297 160.682 217.558 156.283 214.219 151.602C213.533 150.644 212.698 149.845 212.171 148.795C211.5 147.459 210.783 146.142 209.979 144.883C208.576 142.686 206.916 140.668 205.262 138.66C204.187 137.354 203.101 136.038 201.79 134.973C200.766 134.143 199.624 133.483 198.44 132.909Z" fill="#FF4C1E"/>
<path d="M192.351 148.073C191.465 146.44 192.074 144.401 193.703 143.515C195.337 142.629 197.375 143.239 198.261 144.867C199.147 146.501 198.537 148.539 196.909 149.425C195.28 150.311 193.237 149.707 192.351 148.073Z" fill="white"/>
<path d="M195.312 150.604C195.978 150.604 196.649 150.445 197.274 150.107C197.648 149.907 197.786 149.436 197.581 149.067C197.381 148.693 196.915 148.555 196.541 148.76C195.287 149.441 193.704 148.975 193.023 147.715C192.69 147.106 192.618 146.404 192.818 145.738C193.018 145.073 193.458 144.525 194.068 144.197C194.196 144.125 194.334 144.069 194.472 144.023C194.872 143.884 195.087 143.449 194.954 143.05C194.815 142.65 194.38 142.435 193.981 142.568C193.76 142.645 193.545 142.737 193.341 142.85C192.373 143.377 191.666 144.248 191.348 145.303C191.036 146.358 191.149 147.48 191.676 148.447C192.419 149.82 193.842 150.604 195.312 150.604Z" fill="#4E40C4"/>
<path d="M209.779 119.773C211.423 119.947 213.046 120.301 214.541 120.936C216.744 121.868 218.715 123.297 220.395 124.992C222.249 126.861 223.463 129.196 225.061 131.255C228.389 135.542 233.977 135.659 237.982 138.998C240.809 141.354 242.017 144.535 243.641 147.71C245.249 150.849 247.989 152.872 251.01 154.572C253.735 156.104 256.613 157.435 258.969 159.489C261.324 161.542 263.127 164.528 262.856 167.637C262.482 171.857 258.38 174.935 254.216 175.734C249.023 176.732 243.589 175.017 239.19 172.087C234.627 169.045 230.766 165.066 226.541 161.599C224.784 160.155 222.879 158.818 221.599 156.897C220.964 155.94 219.919 155.545 218.93 155.033C216.144 153.589 213.358 152.145 210.578 150.696C207.792 149.251 205.006 147.807 202.225 146.358C200.832 145.636 199.439 144.914 198.046 144.191C197.349 143.828 196.653 143.469 195.956 143.106C195.593 142.916 195.234 142.732 194.871 142.542C194.65 142.43 194.189 142.066 193.954 142.066C191.977 141.042 189.939 139.966 188.541 138.225C186.338 135.48 186.195 131.419 187.716 128.244C189.237 125.069 192.202 122.743 195.47 121.427C198.737 120.111 202.302 119.722 205.825 119.64C207.121 119.604 208.457 119.63 209.779 119.773Z" fill="#FF4C1E"/>
<path d="M212.323 162.485L206.08 149.768L214.167 140.335L222.571 157.461C222.648 157.614 222.592 157.804 222.448 157.896L220.886 158.874C218.935 160.093 216.871 161.112 214.715 161.921L212.743 162.659C212.579 162.71 212.4 162.638 212.323 162.485Z" fill="white"/>
<path d="M212.624 163.442C212.752 163.442 212.885 163.421 213.013 163.37L214.985 162.633C217.182 161.808 219.302 160.763 221.294 159.519L222.856 158.541C223.337 158.239 223.512 157.624 223.261 157.117L214.344 138.947L205.172 149.65L211.635 162.822C211.825 163.211 212.214 163.442 212.624 163.442ZM221.714 157.445L220.48 158.218C218.58 159.406 216.547 160.41 214.447 161.194L212.844 161.793L207.001 149.881L213.996 141.717L221.714 157.445Z" fill="#4E40C4"/>
<path d="M191.727 140.012C191.727 140.012 201.099 162.336 212.719 156.36C219.326 152.964 219.029 143.285 217.544 135.567C216.069 127.916 209.032 122.595 201.284 123.435C194.82 124.126 188.987 127.849 191.727 140.012Z" fill="white"/>
<path d="M208.714 158.141C210.189 158.141 211.648 157.772 213.072 157.04C218.665 154.167 220.467 146.69 218.301 135.418C216.754 127.398 209.241 121.795 201.206 122.666C197.109 123.106 194.113 124.622 192.29 127.167C190.149 130.163 189.709 134.537 190.979 140.181L191.02 140.309C191.261 140.887 197.058 154.495 205.421 157.542C206.527 157.941 207.623 158.141 208.714 158.141ZM202.855 124.11C209.528 124.11 215.494 128.96 216.795 135.705C218.209 143.048 218.593 152.472 212.376 155.672C210.261 156.758 208.161 156.896 205.954 156.098C198.487 153.378 192.894 140.759 192.464 139.771C191.312 134.609 191.675 130.67 193.539 128.058C195.091 125.887 197.729 124.586 201.37 124.192C201.867 124.136 202.363 124.11 202.855 124.11Z" fill="#4E40C4"/>
<path d="M219.008 135.66C220.242 137.048 220.119 139.173 218.737 140.407C217.349 141.641 215.224 141.518 213.989 140.136C212.755 138.748 212.878 136.622 214.261 135.388C215.649 134.149 217.774 134.272 219.008 135.66Z" fill="white"/>
<path d="M218.281 141.513C218.419 141.513 218.562 141.477 218.69 141.395C218.885 141.272 219.074 141.129 219.249 140.975C220.073 140.243 220.56 139.229 220.626 138.128C220.688 137.027 220.319 135.967 219.587 135.142C218.854 134.318 217.84 133.831 216.739 133.764C215.638 133.703 214.578 134.072 213.753 134.804C213.436 135.086 213.41 135.572 213.692 135.89C213.974 136.207 214.46 136.233 214.778 135.951C215.295 135.49 215.956 135.26 216.652 135.296C217.343 135.337 217.978 135.644 218.439 136.161C218.9 136.678 219.131 137.344 219.095 138.036C219.054 138.727 218.747 139.362 218.229 139.823C218.122 139.92 218.004 140.007 217.876 140.089C217.518 140.315 217.41 140.791 217.635 141.149C217.774 141.385 218.025 141.513 218.281 141.513Z" fill="#4E40C4"/>
<path d="M187.5 129.186C188.488 127.542 189.958 125.401 191.75 124.577C196.544 122.38 196.754 133.283 196.534 135.613C196.365 137.37 195.848 139.116 194.921 140.627C192.396 144.739 188.642 141.59 187.07 138.123C186.091 135.967 185.969 133.452 186.629 131.173C186.844 130.441 187.141 129.785 187.5 129.186Z" fill="#FF4C1E"/>
<path d="M209.567 123.153C209.654 123.179 209.736 123.204 209.823 123.235C210.924 123.604 211.974 124.131 213.003 124.653C215.185 125.76 217.438 127.014 218.729 129.088C218.836 129.252 218.928 129.432 219.016 129.611C219.313 130.236 219.497 130.953 219.369 131.644C219.338 131.803 219.297 131.972 219.241 132.12C219.179 132.284 219.005 132.381 218.872 132.494C218.514 132.786 218.155 133.083 217.797 133.375C217.105 133.943 216.399 134.522 215.569 134.86C215.021 135.086 214.427 135.198 213.843 135.285C213.592 135.321 213.346 135.357 213.095 135.383C211.707 135.536 210.304 135.541 208.911 135.413C207.518 135.285 206.141 135.019 204.799 134.63C203.457 134.241 202.151 133.718 200.907 133.083C199.662 132.448 198.479 131.69 197.383 130.825C196.835 130.394 196.308 129.933 195.806 129.447C195.555 129.206 195.304 128.96 195.073 128.699C195.022 128.638 194.992 128.587 194.956 128.515C194.848 128.315 194.684 128.136 194.551 127.952C194.106 127.311 193.619 126.497 193.732 125.683C193.762 125.457 193.778 125.232 193.855 125.012C193.978 124.669 194.187 124.367 194.433 124.1C194.93 123.557 195.565 123.158 196.21 122.81C197.306 122.216 198.443 122.421 199.637 122.364C201.311 122.287 202.894 121.919 204.584 122.083C205.424 122.164 206.141 122.39 206.94 122.59C207.805 122.815 208.701 122.902 209.567 123.153Z" fill="#FF4C1E"/>
<path d="M209.12 148.636C209.242 148.636 209.371 148.606 209.483 148.544L210.938 147.756C211.23 147.597 211.424 147.29 211.44 146.957C211.46 146.629 211.311 146.327 211.045 146.137C207.916 143.956 207.296 141.917 207.291 141.897C207.174 141.492 206.754 141.252 206.344 141.369C205.939 141.482 205.699 141.897 205.806 142.306C205.832 142.404 206.431 144.519 209.401 146.839L208.746 147.197C208.372 147.402 208.234 147.868 208.438 148.237C208.587 148.493 208.848 148.636 209.12 148.636Z" fill="#4E40C4"/>
<path d="M199.607 144.284C199.888 144.284 200.16 144.13 200.293 143.859C200.984 142.476 202.393 142.425 202.454 142.425C202.874 142.414 203.212 142.066 203.207 141.641C203.202 141.221 202.859 140.888 202.444 140.888H202.439C202.341 140.888 200.047 140.934 198.926 143.172C198.736 143.551 198.89 144.012 199.269 144.202C199.376 144.258 199.494 144.284 199.607 144.284Z" fill="#4E40C4"/>
<path d="M207.169 139.449C207.44 139.449 207.701 139.306 207.84 139.05C208.587 137.698 209.996 137.698 210.052 137.703C210.057 137.703 210.057 137.703 210.062 137.703C210.477 137.703 210.825 137.37 210.836 136.95C210.846 136.53 210.518 136.177 210.093 136.167C210.001 136.167 207.701 136.115 206.493 138.307C206.288 138.681 206.421 139.147 206.795 139.352C206.913 139.419 207.041 139.449 207.169 139.449Z" fill="#4E40C4"/>
<path d="M202.005 145.41C202.266 145.805 202.742 145.953 203.075 145.733C203.408 145.518 203.464 145.016 203.203 144.622C202.942 144.227 202.466 144.079 202.133 144.299C201.805 144.519 201.744 145.016 202.005 145.41Z" fill="#4E40C4"/>
<path d="M209.223 141.247C209.485 141.641 209.961 141.79 210.294 141.569C210.627 141.354 210.683 140.852 210.422 140.458C210.161 140.064 209.684 139.915 209.351 140.135C209.019 140.35 208.962 140.852 209.223 141.247Z" fill="#4E40C4"/>
<path d="M205.728 150.752C205.18 151.392 205.298 152.401 205.995 152.995C206.691 153.594 207.705 153.558 208.253 152.918C208.801 152.278 208.683 151.269 207.987 150.675C207.29 150.07 206.276 150.106 205.728 150.752Z" fill="#FF4C1E"/>
<path d="M208.031 153.195C208.415 153.195 208.692 153.118 208.743 153.102C209.148 152.985 209.383 152.554 209.26 152.15C209.143 151.745 208.717 151.515 208.313 151.628C208.292 151.633 207.837 151.745 207.437 151.505C207.109 151.31 206.869 150.916 206.72 150.337C206.618 149.927 206.203 149.676 205.788 149.779C205.378 149.881 205.127 150.301 205.23 150.711C205.481 151.725 205.972 152.442 206.684 152.852C207.171 153.123 207.652 153.195 208.031 153.195Z" fill="#4E40C4"/>
<path d="M230.979 203.465V207.972L202.617 222.153C200.016 223.454 198.418 226.158 198.53 229.062L221.172 281.114L243.301 203.47H230.979V203.465Z" fill="#4E40C4"/>
<path d="M217.82 306.154L229.633 312.165L221.778 327.603L209.965 321.592L217.82 306.154Z" fill="#4E40C4"/>
<path d="M221.176 281.883C221.278 281.883 221.381 281.862 221.483 281.821C221.872 281.652 222.051 281.202 221.882 280.813L199.298 228.898C199.251 226.353 200.68 223.987 202.964 222.845L231.751 208.454V204.239H243.31C243.735 204.239 244.078 203.896 244.078 203.471C244.078 203.046 243.735 202.703 243.31 202.703H230.215V207.501L202.278 221.467C199.415 222.901 197.643 225.892 197.771 229.093L197.777 229.236L197.833 229.369L220.474 281.422C220.597 281.709 220.879 281.883 221.176 281.883Z" fill="#4E40C4"/>
<path d="M257.883 201.304L259.742 204.198C262.758 208.894 263.993 214.389 263.424 219.741C262.891 224.765 260.346 229.364 256.5 232.636L254.318 234.495C252.014 236.457 250.098 238.843 248.685 241.517L232.507 313.768C231.723 315.248 230.187 316.17 228.512 316.17H211.883C209.83 316.17 208.498 313.993 209.44 312.165L234.724 220.181L232.2 208.116V203.465L257.883 201.304Z" fill="white"/>
<path d="M232.669 227.648L232.756 227.576C236.51 224.493 238.897 220.248 239.476 215.608C240.008 211.306 239.291 206.922 237.453 203.025L240.054 202.805C241.811 206.912 242.477 211.449 241.924 215.91C241.268 221.175 238.569 225.994 234.324 229.482L232.106 231.3C231.911 231.458 231.722 231.627 231.532 231.791L232.669 227.648Z" fill="#CA2D09"/>
<path d="M222.876 316.17L241.154 239.013L241.189 238.869L241.256 238.736C242.71 235.889 244.672 233.379 247.074 231.269L249.23 229.379C252.881 226.179 255.13 221.851 255.555 217.201C256.026 212.039 254.71 206.82 251.852 202.503L251.422 201.847L254.208 201.612C257.168 206.303 258.52 211.89 258.013 217.421C257.531 222.706 254.986 227.613 250.858 231.228L248.702 233.118C246.567 234.987 244.826 237.21 243.52 239.724L225.411 316.17H222.876Z" fill="#CA2D09"/>
<path d="M232.815 236.934L232.851 236.79L232.918 236.657C234.372 233.81 236.334 231.3 238.736 229.19L240.892 227.3C244.543 224.1 246.791 219.772 247.217 215.122C247.616 210.733 246.72 206.303 244.687 202.416L247.329 202.196C249.26 206.272 250.084 210.83 249.675 215.347C249.193 220.632 246.648 225.539 242.52 229.154L240.364 231.044C238.229 232.913 236.487 235.136 235.181 237.651L216.596 316.175H214.066L232.815 236.934Z" fill="#CA2D09"/>
<path d="M211.882 316.937H228.112C230.324 316.937 232.342 315.724 233.376 313.767L233.422 313.675L249.411 241.782C250.784 239.217 252.602 236.963 254.819 235.079L257.001 233.22C261.093 229.737 263.643 224.979 264.191 219.817C264.785 214.215 263.433 208.52 260.391 203.777L258.532 200.884C258.302 200.525 257.825 200.423 257.472 200.653C257.114 200.884 257.011 201.36 257.242 201.713L259.101 204.607C261.958 209.052 263.223 214.399 262.665 219.653C262.163 224.421 259.797 228.82 256.007 232.047L253.826 233.906C251.434 235.939 249.478 238.377 248.008 241.153L247.962 241.245L231.973 313.132C231.19 314.53 229.72 315.396 228.112 315.396H211.882C211.186 315.396 210.556 315.043 210.192 314.448C209.829 313.854 209.803 313.132 210.121 312.513L210.177 312.364L235.461 220.381C235.573 219.971 235.333 219.551 234.923 219.438C234.513 219.326 234.093 219.566 233.981 219.976L208.717 311.888C208.195 312.968 208.251 314.223 208.881 315.252C209.527 316.307 210.648 316.937 211.882 316.937Z" fill="#4E40C4"/>
<path d="M226.286 319.324L228.678 326.97L228.842 331.395C228.898 332.942 227.592 334.191 226.051 334.068L192.773 331.344C191.272 331.221 190.238 329.787 190.596 328.322L190.883 327.16L202.749 325.05L210.938 318.955L212.935 318.602L213.724 320.435C214.497 322.243 216.233 323.457 218.2 323.565L219.813 323.652C222.179 323.785 224.335 322.289 225.042 320.026L225.262 319.324H226.286Z" fill="white"/>
<path d="M226.258 334.846C227.118 334.846 227.948 334.513 228.573 333.919C229.264 333.259 229.643 332.332 229.607 331.374L229.438 326.847L226.847 318.556L224.691 318.576L224.307 319.81C223.702 321.741 221.869 323.006 219.851 322.898L218.238 322.811C216.553 322.719 215.093 321.695 214.428 320.143L213.403 317.751L210.628 318.243L202.439 324.337L190.255 326.504L189.85 328.153C189.625 329.07 189.815 330.032 190.368 330.795C190.921 331.558 191.776 332.04 192.713 332.117L225.991 334.841C226.073 334.841 226.166 334.846 226.258 334.846ZM227.907 327.103L228.071 331.425C228.091 331.943 227.886 332.444 227.512 332.803C227.133 333.167 226.632 333.341 226.109 333.3L192.831 330.575C192.339 330.534 191.894 330.283 191.607 329.884C191.32 329.484 191.223 328.982 191.336 328.506L191.5 327.83L203.053 325.777L211.242 319.682L212.461 319.467L213.009 320.742C213.905 322.837 215.877 324.209 218.146 324.337L219.759 324.425C222.473 324.578 224.947 322.863 225.761 320.266V320.261L227.907 327.103Z" fill="#4E40C4"/>
<path d="M257.89 201.304C260.415 199.517 261.567 196.337 260.738 193.351C258.192 184.158 250.72 165.081 231.326 157.364C227.941 156.017 224.212 155.771 220.684 156.672L213.832 160.436L209.484 168.999C209.207 171.99 218.031 189.331 218.031 189.331L230.988 203.465H251.094C253.527 203.465 255.903 202.713 257.89 201.304Z" fill="white"/>
<path d="M230.641 204.233H251.085C253.697 204.233 256.201 203.434 258.332 201.928C261.123 199.952 262.383 196.408 261.466 193.104C258.603 182.785 250.916 164.328 231.609 156.651C228.044 155.232 224.198 154.981 220.49 155.929L220.316 155.996L214.171 159.324C212.184 160.4 210.734 162.182 210.084 164.343L208.716 168.927C208.43 172.051 216.429 187.881 217.346 189.678L217.392 189.77L230.641 204.233ZM224.946 156.902C227.015 156.902 229.074 157.296 231.04 158.08C249.733 165.516 257.2 183.476 259.986 193.519C260.728 196.198 259.709 199.076 257.446 200.679C255.576 202.005 253.379 202.702 251.09 202.702H231.322L218.667 188.895C215.328 182.324 210.171 171.318 210.243 169.142L211.554 164.794C212.086 163.022 213.28 161.562 214.903 160.681L220.967 157.394C222.278 157.066 223.614 156.902 224.946 156.902Z" fill="#4E40C4"/>
<path d="M224.904 176.261L217.514 188.347L230.281 202.707L224.904 176.261Z" fill="#4E40C4"/>
<path d="M228.793 331.073C229.197 331.073 229.535 330.755 229.561 330.351C229.587 329.926 229.259 329.562 228.839 329.541L204.789 328.169C204.369 328.148 204.001 328.471 203.98 328.891C203.955 329.316 204.282 329.68 204.702 329.7L228.752 331.073C228.762 331.073 228.778 331.073 228.793 331.073Z" fill="#4E40C4"/>
<path d="M223.778 162.802C221.448 160.646 218.124 159.934 215.062 160.784C212.558 161.476 209.792 162.746 209.71 164.989C209.562 169.107 204.743 178.34 204.743 178.34L219.077 188.071C219.077 188.071 228.864 176.891 227.983 170.587C227.404 166.413 225.602 164.492 223.778 162.802Z" fill="white"/>
<path d="M219.197 189.074L225.481 182.278C225.767 181.966 225.747 181.48 225.44 181.193C225.132 180.906 224.641 180.926 224.354 181.234L218.972 187.062L205.646 178.012C206.394 175.452 209.871 164.282 214.286 161.056C214.629 160.805 214.706 160.323 214.455 159.98C214.204 159.637 213.722 159.56 213.379 159.811C207.971 163.76 204.171 177.546 204.012 178.13L203.869 178.658L219.197 189.074Z" fill="#4E40C4"/>
<path d="M182.387 221.18L180.067 223.853L178.827 228.309L179.34 230.91C179.503 231.74 178.863 232.518 178.018 232.518H171.038C169.921 232.518 169.015 231.612 169.015 230.495V228.227C169.015 227.325 169.261 226.439 169.722 225.666L172.723 220.642L179.401 216.355L182.387 221.18Z" fill="white"/>
<path d="M219.074 188.065C219.074 188.065 208.683 200.106 204.74 204.064L182.38 221.18L179.4 216.35L197.042 196.106L204.735 178.335L219.074 188.065Z" fill="white"/>
<path d="M171.042 233.282H178.023C178.658 233.282 179.252 233 179.656 232.508C180.061 232.017 180.22 231.382 180.097 230.757L179.621 228.334L180.763 224.222L182.97 221.677C183.246 221.354 183.211 220.873 182.893 220.591C182.57 220.314 182.089 220.35 181.807 220.668L179.375 223.474L178.043 228.268L178.586 231.044C178.632 231.279 178.53 231.443 178.463 231.525C178.397 231.602 178.253 231.735 178.018 231.735H171.037C170.346 231.735 169.788 231.172 169.788 230.485V228.217C169.788 227.454 169.993 226.706 170.387 226.05L173.296 221.18L179.825 216.991C180.184 216.76 180.286 216.284 180.056 215.931C179.825 215.572 179.349 215.47 178.996 215.7L172.164 220.084L169.071 225.262C168.538 226.153 168.256 227.177 168.256 228.217V230.485C168.251 232.032 169.506 233.282 171.042 233.282Z" fill="#4E40C4"/>
<path d="M182.387 221.948C182.55 221.948 182.714 221.897 182.853 221.789L205.289 204.607C209.207 200.674 219.557 188.69 219.659 188.567L220.223 187.917L204.408 177.183L196.393 195.696L178.832 215.848C178.556 216.166 178.587 216.652 178.909 216.934C179.227 217.211 179.713 217.18 179.995 216.857L197.715 196.526L205.089 179.497L217.939 188.224C215.726 190.775 207.619 200.095 204.244 203.491L181.926 220.575C181.588 220.831 181.526 221.313 181.782 221.651C181.926 221.845 182.156 221.948 182.387 221.948Z" fill="#4E40C4"/>
<path d="M176.772 232.738C176.818 232.738 176.864 232.733 176.91 232.728C177.33 232.651 177.607 232.251 177.53 231.837L177.141 229.686L177.407 227.857C177.469 227.437 177.177 227.048 176.757 226.987C176.337 226.925 175.948 227.217 175.886 227.637L175.584 229.716L176.019 232.113C176.081 232.477 176.409 232.738 176.772 232.738Z" fill="#4E40C4"/>
<path d="M174.261 232.738C174.307 232.738 174.353 232.733 174.399 232.728C174.814 232.651 175.095 232.251 175.019 231.837L174.629 229.686L174.896 227.857C174.957 227.437 174.665 227.048 174.245 226.987C173.825 226.925 173.436 227.217 173.375 227.637L173.073 229.716L173.508 232.113C173.574 232.477 173.897 232.738 174.261 232.738Z" fill="#4E40C4"/>
<path d="M171.757 232.738C171.803 232.738 171.849 232.733 171.895 232.728C172.31 232.651 172.592 232.251 172.515 231.837L172.125 229.686L172.392 227.857C172.453 227.437 172.161 227.048 171.741 226.987C171.321 226.925 170.932 227.217 170.871 227.637L170.569 229.716L171.004 232.113C171.07 232.477 171.393 232.738 171.757 232.738Z" fill="#4E40C4"/>
<path d="M199.694 198.477C199.76 198.477 199.822 198.472 199.878 198.467C200.298 198.416 200.6 198.032 200.544 197.612C200.493 197.197 200.119 196.9 199.704 196.941C199.658 196.941 199.463 196.941 199.335 196.767C199.09 196.423 198.608 196.341 198.265 196.587C197.922 196.833 197.84 197.315 198.086 197.658C198.552 198.308 199.248 198.477 199.694 198.477Z" fill="#4E40C4"/>
<path d="M460.074 182.207H464.98C468.017 182.207 470.48 179.744 470.48 176.707V171.801C470.48 168.764 468.017 166.3 464.98 166.3H460.074C457.037 166.3 454.574 168.764 454.574 171.801V176.707C454.574 179.744 457.037 182.207 460.074 182.207Z" fill="#FF4C1E"/>
<path d="M461.638 176.967L459.312 174.637L460.639 173.311L461.638 174.309L464.408 171.539L465.735 172.865L461.638 176.967Z" fill="white"/>
<path d="M155.976 131.859H160.883C163.919 131.859 166.383 129.396 166.383 126.359V121.452C166.383 118.415 163.919 115.952 160.883 115.952H155.976C152.939 115.952 150.476 118.415 150.476 121.452V126.359C150.481 129.401 152.939 131.859 155.976 131.859Z" fill="#FF4C1E"/>
<path d="M157.545 126.619L155.215 124.294L156.546 122.963L157.545 123.962L160.311 121.191L161.642 122.522L157.545 126.619Z" fill="white"/>
<path d="M288.656 84.9736H293.562C296.599 84.9736 299.062 82.5103 299.062 79.4734V74.5672C299.062 71.5302 296.599 69.0669 293.562 69.0669H288.656C285.619 69.0669 283.156 71.5302 283.156 74.5672V79.4734C283.156 82.5103 285.619 84.9736 288.656 84.9736Z" fill="#FF4C1E"/>
<path d="M290.233 79.7347L287.902 77.4045L289.234 76.0781L290.233 77.0768L292.998 74.3062L294.33 75.6326L290.233 79.7347Z" fill="white"/>
<path d="M438.417 116.961C438.34 117.141 438.381 117.345 438.52 117.484L439.395 118.359C439.621 118.585 439.621 118.948 439.395 119.174L437.982 120.587C437.757 120.813 437.393 120.813 437.168 120.587L436.297 119.722C436.154 119.578 435.939 119.548 435.754 119.635C435.641 119.686 435.529 119.732 435.416 119.778C435.227 119.85 435.093 120.024 435.093 120.229V121.458C435.093 121.775 434.837 122.031 434.52 122.031L432.523 122.037C432.205 122.037 431.949 121.781 431.949 121.463V120.224C431.949 120.029 431.831 119.855 431.647 119.783C431.529 119.737 431.396 119.686 431.273 119.63C431.094 119.553 430.889 119.594 430.751 119.732L429.88 120.608C429.655 120.833 429.291 120.833 429.066 120.608L427.647 119.199C427.422 118.974 427.422 118.61 427.647 118.385L428.513 117.514C428.656 117.371 428.687 117.156 428.6 116.966C428.548 116.854 428.502 116.741 428.456 116.628C428.385 116.439 428.21 116.306 428.006 116.306L426.777 116.311C426.459 116.311 426.203 116.055 426.203 115.737L426.198 113.74C426.198 113.423 426.454 113.166 426.771 113.166L428.011 113.161C428.205 113.161 428.379 113.044 428.451 112.859C428.497 112.741 428.548 112.608 428.605 112.485C428.682 112.306 428.641 112.101 428.502 111.963L427.627 111.092C427.401 110.867 427.401 110.503 427.627 110.278L429.035 108.859C429.26 108.634 429.624 108.634 429.849 108.859L430.72 109.725C430.863 109.868 431.078 109.899 431.263 109.812C431.381 109.761 431.498 109.71 431.616 109.664C431.806 109.592 431.939 109.418 431.939 109.213V107.984C431.939 107.666 432.195 107.41 432.512 107.41H434.51C434.827 107.41 435.083 107.666 435.083 107.984V109.223C435.083 109.418 435.201 109.592 435.385 109.664C435.503 109.71 435.636 109.761 435.759 109.817C435.939 109.894 436.143 109.853 436.282 109.715L437.157 108.839C437.383 108.614 437.746 108.614 437.972 108.839L439.385 110.252C439.61 110.478 439.61 110.841 439.385 111.067L438.52 111.932C438.376 112.076 438.346 112.291 438.427 112.48C438.479 112.593 438.525 112.706 438.571 112.818C438.643 113.008 438.817 113.141 439.022 113.141H440.251C440.568 113.141 440.824 113.397 440.824 113.714V115.712C440.824 116.029 440.568 116.285 440.251 116.285H438.684C438.678 116.306 438.545 116.664 438.417 116.961ZM432.492 117.356C434.136 117.991 435.969 116.992 436.302 115.225C436.548 113.909 435.79 112.557 434.535 112.076C432.891 111.441 431.058 112.439 430.725 114.206C430.479 115.522 431.242 116.874 432.492 117.356Z" fill="white"/>
<path d="M353.847 95.3495H362.307C362.307 99.9894 358.487 103.81 353.847 103.81C349.207 103.81 345.387 99.9894 345.387 95.3495C345.387 90.7096 349.207 86.8892 353.847 86.8892C353.857 86.8892 353.862 86.8892 353.873 86.8892L353.847 95.3495Z" fill="white"/>
<path d="M355.535 93.6595L355.469 86.8892C355.489 86.8892 355.51 86.8892 355.535 86.8892C359.248 86.8892 362.306 89.9466 362.306 93.6595H355.535Z" fill="white"/>
<path d="M247.644 99.528C247.644 96.7728 245.252 94.5706 242.431 94.8933C240.351 95.1289 238.651 96.7779 238.359 98.852C238.149 100.363 238.661 101.761 239.604 102.749C240.111 103.282 240.382 103.999 240.382 104.736V105.72H245.58V104.736C245.58 104.004 245.841 103.287 246.348 102.76C247.152 101.925 247.644 100.783 247.644 99.528Z" fill="white"/>
<path d="M245.554 106.626H240.355V107.824H245.554V106.626Z" fill="white"/>
<path d="M245.554 108.455H240.355V109.653H245.554V108.455Z" fill="white"/>
<path d="M243.648 110.088H242.25V111.287H243.648V110.088Z" fill="white"/>
</svg>
