<svg width="592" height="420" viewBox="0 0 592 420" fill="none" xmlns="http://www.w3.org/2000/svg">
<path d="M378.381 137.833C379.474 137.7 380.475 137.904 381.466 138.349C381.926 138.558 382.432 138.589 382.902 138.767C383.438 138.972 383.934 139.273 384.419 139.575C385.686 140.367 387.071 141.332 387.331 142.803C387.454 143.483 387.306 144.183 387.153 144.857C386.836 146.252 386.647 147.749 385.809 148.934C384.9 150.222 384.516 151.851 383.949 153.297C382.361 157.354 380.654 161.364 378.948 165.375C377.533 168.706 375.99 172.195 373.078 174.341C372.163 175.015 370.942 175.542 369.915 175.051C369.062 174.642 368.653 173.667 368.357 172.767C365.874 165.288 365.797 157.027 368.142 149.501C369.261 145.905 370.998 142.374 373.885 139.958C375.172 138.88 376.71 138.032 378.381 137.833Z" fill="#FF4C1E"/>
<path d="M272.294 87.867C285.511 81.4604 286.829 93.3744 286.855 93.6197C286.834 93.4051 286.272 86.9372 296.332 84.7455C298.922 84.1835 299.576 85.3381 299.622 86.5438C299.663 87.7138 299.085 88.8173 298.15 89.5172L295.172 91.755C293.782 92.7972 292.755 94.2532 292.234 95.9136L289.976 103.127C289.603 104.328 289.496 105.59 289.654 106.826C289.838 108.216 289.966 109.606 289.956 111.005L289.92 115.91L270.578 124.437L267.732 118.28L264.896 110.821C264.902 110.821 258.939 94.34 272.294 87.867Z" fill="white"/>
<path d="M270.206 125.438L267.023 118.551L264.188 111.092C264.122 110.908 258.149 93.8753 271.964 87.1775C276.567 84.9449 280.332 84.6077 283.158 86.1812C285.002 87.2081 286.095 88.8736 286.739 90.3603C287.73 88.1022 290.177 85.3025 296.175 83.9997C297.6 83.6932 298.694 83.8209 299.429 84.3931C299.843 84.715 300.349 85.3485 300.39 86.5185C300.441 87.9081 299.777 89.2619 298.612 90.1356L295.633 92.3733C294.361 93.3286 293.442 94.6314 292.967 96.1488L290.709 103.363C290.371 104.441 290.269 105.605 290.417 106.729C290.637 108.405 290.734 109.769 290.729 111.016L290.688 116.416L270.206 125.438ZM268.449 117.984L270.968 123.43L289.171 115.409L289.206 111C289.217 109.825 289.12 108.533 288.91 106.929C288.736 105.585 288.854 104.195 289.258 102.903L291.516 95.689C292.088 93.8651 293.197 92.2915 294.724 91.1471L297.703 88.9094C298.464 88.3372 298.903 87.4636 298.867 86.5746C298.852 86.1097 298.724 85.7879 298.495 85.6091C298.142 85.3383 297.437 85.2974 296.507 85.5017C287.137 87.5402 287.602 93.3031 287.628 93.5483L286.105 93.7016C286.1 93.6556 285.61 89.2926 282.422 87.5198C280.061 86.2068 276.771 86.5593 272.643 88.5569C260.075 94.6519 265.404 109.917 265.639 110.561L268.449 117.984Z" fill="#4E40C4"/>
<path d="M272.086 88.9701L270.063 78.8494C269.69 76.9744 270.063 75.033 271.11 73.4339C272.924 70.6699 275.872 66.7872 277.762 67.3951C279.698 68.0184 277.971 71.9165 276.623 74.425C275.867 75.8249 275.851 77.5006 276.567 78.9209L281.119 87.979L272.086 88.9701Z" fill="white"/>
<path d="M271.903 88.8378C271.546 88.8378 271.224 88.5875 271.152 88.2196L269.308 79.0031C268.889 76.9186 269.303 74.7934 270.468 73.0206C275.224 65.7812 277.308 66.4556 277.998 66.6752C278.57 66.8592 278.989 67.2475 279.209 67.8044C279.403 68.2948 280.001 69.7764 277.298 74.7985C276.665 75.9735 276.649 77.3887 277.252 78.5893L281.242 85.7213C281.447 86.0892 281.319 86.5592 280.946 86.7636C280.578 86.9679 280.108 86.8402 279.904 86.4672L275.898 79.3046C275.055 77.6288 275.081 75.6823 275.949 74.073C278.146 70.0011 277.911 68.6831 277.789 68.3766C277.738 68.2488 277.666 68.1824 277.528 68.1364C276.767 67.8912 274.79 69.24 271.75 73.8635C270.81 75.2992 270.473 77.0157 270.81 78.7068L272.654 87.9233C272.736 88.3371 272.47 88.7407 272.051 88.8224C272 88.8327 271.949 88.8378 271.903 88.8378Z" fill="#4E40C4"/>
<path d="M281.812 102.636C280.862 102.636 279.856 102.095 278.737 100.981C278.435 100.685 278.435 100.199 278.732 99.898C279.028 99.5966 279.518 99.5965 279.815 99.8929C280.913 100.986 281.577 101.124 281.868 101.104C281.96 101.099 282.241 101.078 282.548 100.69C282.86 100.297 282.982 99.7498 282.895 99.1929C282.384 96.0458 281.036 93.7264 278.885 92.2908C274.818 89.5779 269.203 90.8603 269.147 90.8756C268.733 90.9727 268.325 90.7172 268.228 90.3034C268.131 89.8896 268.386 89.4809 268.8 89.3838C269.055 89.3225 275.13 87.938 279.743 91.0135C282.257 92.6944 283.83 95.3613 284.413 98.9426C284.571 99.9235 284.336 100.904 283.759 101.635C283.278 102.243 282.66 102.59 281.971 102.631C281.914 102.636 281.863 102.636 281.812 102.636Z" fill="#4E40C4"/>
<path d="M277.904 106.081C276.999 106.081 275.998 105.596 274.925 104.64C274.608 104.359 274.583 103.874 274.864 103.557C275.145 103.24 275.63 103.215 275.947 103.496C276.969 104.405 277.607 104.564 277.965 104.548C278.21 104.533 278.425 104.415 278.624 104.196C278.9 103.884 279.012 103.45 278.931 103.016C278.471 100.482 277.296 98.5657 275.446 97.3191C271.487 94.6522 265.642 95.8375 265.586 95.8528C265.167 95.9397 264.763 95.6741 264.677 95.2602C264.59 94.8464 264.855 94.4428 265.269 94.3508C265.535 94.2946 271.793 93.0174 276.294 96.0419C278.506 97.5234 279.896 99.7765 280.438 102.74C280.601 103.639 280.361 104.538 279.774 105.207C279.309 105.739 278.716 106.04 278.057 106.081C278.006 106.076 277.955 106.081 277.904 106.081Z" fill="#4E40C4"/>
<path d="M271.457 110.817C271.141 110.817 270.849 110.622 270.737 110.306C268.106 102.903 271.886 99.3521 272.05 99.2039C272.362 98.9178 272.847 98.9434 273.133 99.255C273.419 99.5667 273.394 100.047 273.087 100.333C272.949 100.461 269.914 103.409 272.188 109.79C272.331 110.188 272.121 110.628 271.723 110.771C271.631 110.806 271.544 110.817 271.457 110.817Z" fill="#4E40C4"/>
<path d="M396.69 207.59L305.818 170.657C303.284 169.625 301.47 167.341 301.046 164.639L293.567 113.59L268.972 125.535L267.613 178.387C267.613 190.873 271.046 203.119 282.674 207.661L299.238 214.134C303.795 215.912 306.61 220.505 306.13 225.374L297.904 359.182H404.201V218.737C404.19 213.838 401.222 209.434 396.69 207.59Z" fill="white"/>
<path d="M404.963 360.393H297.087L305.364 225.323C305.808 220.792 303.177 216.49 298.957 214.845L282.394 208.372C272.222 204.397 266.848 194.026 266.848 178.382L268.222 125.045L294.18 112.441L301.808 164.527C302.186 166.943 303.836 169.023 306.11 169.947L396.982 206.88C401.831 208.852 404.957 213.501 404.957 218.733V360.393H404.963ZM298.712 358.86H403.425V218.733C403.425 214.13 400.671 210.032 396.405 208.3L305.533 171.368C302.763 170.244 300.756 167.71 300.291 164.757L292.965 114.735L269.729 126.016L268.38 178.403C268.38 193.556 273.285 203.166 282.951 206.946L299.514 213.419C304.368 215.315 307.402 220.26 306.886 225.446L298.712 358.86Z" fill="#4E40C4"/>
<path d="M395.924 218.788L397.983 208.448C406.377 212.08 412.558 219.468 414.658 228.367L427.522 282.803C431.308 298.83 419.149 314.197 402.683 314.197H322.682C322.682 314.197 312.209 298.554 322.682 291.003L382.83 283.942L395.924 218.788Z" fill="white"/>
<path d="M402.67 314.959H324.641C323.093 314.959 321.673 314.121 320.932 312.767C318.398 308.139 313.453 296.7 322.22 290.375L322.383 290.257L322.587 290.237L361.257 286.216C361.676 286.175 362.054 286.477 362.1 286.901C362.141 287.32 361.839 287.698 361.415 287.744L322.955 291.744C315.404 297.379 319.956 307.796 322.276 312.037C322.746 312.9 323.655 313.431 324.641 313.431H402.67C410.282 313.431 417.363 310.008 422.084 304.036C426.81 298.064 428.516 290.39 426.764 282.982L413.899 228.547C411.861 219.923 405.792 212.678 397.663 209.153C397.275 208.984 397.096 208.535 397.265 208.147C397.433 207.758 397.883 207.579 398.271 207.748C406.844 211.462 413.24 219.105 415.391 228.194L428.256 282.63C430.115 290.497 428.301 298.646 423.285 304.991C418.273 311.321 410.757 314.959 402.67 314.959Z" fill="#4E40C4"/>
<path d="M373.111 172.466L371.854 197.5L362.213 203.988C354.315 209.306 343.545 204.841 341.737 195.487L339.586 184.38L340.628 168.261L373.111 172.466Z" fill="white"/>
<path d="M354.944 206.89C353.095 206.89 351.235 206.528 349.467 205.797C345.033 203.958 341.845 200.044 340.93 195.334L338.82 184.436L339.919 167.403L373.914 171.797L372.606 197.919L362.904 204.448C360.508 206.063 357.739 206.89 354.944 206.89ZM340.363 184.334L342.437 195.038C343.25 199.242 346.101 202.732 350.055 204.377C354.014 206.017 358.495 205.572 362.051 203.176L371.114 197.076L372.314 173.136L341.344 169.13L340.363 184.334Z" fill="#4E40C4"/>
<path d="M340.421 132.177C336.824 136.269 334.54 141.342 333.667 146.722C331.429 160.557 329.038 190.884 350.935 191.67C369.863 192.35 375.519 170.095 377.19 155.182C378.411 144.285 373.424 133.515 364.06 127.819C357.316 123.716 348.845 122.592 340.421 132.177Z" fill="white"/>
<path d="M351.782 192.452C351.496 192.452 351.21 192.447 350.919 192.437C345.335 192.237 340.875 190.148 337.656 186.229C329.553 176.354 331.209 157.165 332.92 146.604C333.835 140.959 336.231 135.794 339.853 131.676C347.154 123.374 355.665 121.816 364.463 127.17C373.924 132.928 379.222 143.958 377.955 155.274C376.392 169.242 370.91 192.452 351.782 192.452ZM341.002 132.683C337.574 136.586 335.301 141.485 334.432 146.845C332.762 157.149 331.117 175.843 338.841 185.253C341.769 188.82 345.851 190.72 350.97 190.904C351.236 190.914 351.501 190.919 351.762 190.919C369.72 190.919 374.926 168.563 376.433 155.101C377.633 144.377 372.622 133.924 363.666 128.478C355.466 123.487 347.843 124.902 341.002 132.683Z" fill="#4E40C4"/>
<path d="M371.31 161.441C371.821 164.281 374.534 166.172 377.374 165.661C380.215 165.15 382.105 162.437 381.594 159.596C381.083 156.756 378.37 154.865 375.53 155.376C372.689 155.887 370.799 158.6 371.31 161.441Z" fill="white"/>
<path d="M376.447 166.508C376.058 166.508 375.675 166.473 375.297 166.396C374.883 166.314 374.613 165.911 374.694 165.497C374.776 165.083 375.185 164.812 375.593 164.894C376.135 165.001 376.692 165.006 377.244 164.904C379.665 164.47 381.28 162.15 380.845 159.729C380.411 157.312 378.087 155.698 375.67 156.127C375.256 156.199 374.853 155.923 374.781 155.509C374.704 155.09 374.985 154.696 375.399 154.62C378.643 154.037 381.77 156.209 382.353 159.458C382.935 162.707 380.764 165.829 377.514 166.411C377.157 166.478 376.799 166.508 376.447 166.508Z" fill="#4E40C4"/>
<path d="M374.753 161.665C375.402 160.117 375.908 158.416 376.945 157.067C378.12 155.535 379.775 155.085 381.288 153.992C385.273 151.1 387.04 146.487 388.425 141.95C389.355 138.905 389.942 135.661 389.339 132.534C388.951 130.526 387.919 128.462 386.039 127.655C383.699 126.649 381.809 128.738 379.888 128.268C378.422 127.906 377.655 125.274 376.73 124.248C375.193 122.541 373.507 120.963 371.708 119.537C368.52 117.013 364.954 114.96 361.158 113.493C356.484 111.69 351.462 110.786 346.455 110.816C343.936 110.832 341.423 111.082 338.95 111.572C336.84 111.991 335.067 112.768 333.371 114.086C331.496 115.547 329.963 117.504 329.269 119.803C327.904 124.314 329.677 129.602 332.022 133.485C337.116 141.894 345.433 143.498 354.634 142.594C356.801 142.379 359.294 141.495 361.465 141.95C363.028 142.277 363.805 143.605 364.28 145.02C365.511 148.668 367.555 152.5 371.458 153.798C370.973 155.979 367.279 164.639 371.627 165.012C373.481 165.17 374.171 163.055 374.753 161.665Z" fill="#FF4C1E"/>
<path d="M376.453 280.08C376.142 280.08 375.845 279.886 375.733 279.574C373.735 274.087 377.352 269.387 377.506 269.193C377.766 268.861 378.252 268.8 378.584 269.065C378.916 269.326 378.977 269.806 378.717 270.138C378.686 270.179 375.477 274.379 377.179 279.053C377.322 279.452 377.117 279.891 376.719 280.034C376.632 280.065 376.54 280.08 376.453 280.08Z" fill="#4E40C4"/>
<path d="M325.714 290.835L305.422 288.275L280.996 296.01C279.77 296.399 279.07 297.691 279.417 298.933C279.759 300.143 280.975 300.879 282.207 300.619L297.794 297.334C298.06 297.277 298.177 297.65 297.932 297.758L281.057 305.186C279.877 305.707 279.351 307.097 279.892 308.267C280.403 309.365 281.675 309.886 282.809 309.457L301.621 302.32C301.81 302.248 301.937 302.509 301.769 302.616L294.08 307.449C292.348 308.537 292.562 311.123 294.448 311.914C295.045 312.165 295.715 312.175 296.317 311.95L303.981 309.059L322.199 312.497C328.187 313.616 333.94 309.651 335.023 303.663C336.147 297.523 331.906 291.683 325.714 290.835Z" fill="white"/>
<path d="M324.257 313.467C323.531 313.467 322.801 313.401 322.07 313.263L304.061 309.861L296.597 312.676C295.805 312.977 294.942 312.957 294.16 312.63C293.026 312.149 292.254 311.092 292.157 309.866C292.055 308.639 292.642 307.464 293.685 306.81L296.28 305.181L283.089 310.182C281.587 310.755 279.88 310.055 279.206 308.599C278.859 307.842 278.828 306.999 279.119 306.218C279.415 305.441 279.993 304.828 280.759 304.491L292.867 299.162L282.379 301.375C280.759 301.717 279.145 300.736 278.695 299.142C278.23 297.492 279.145 295.796 280.78 295.28L305.369 287.494L325.835 290.074C329.039 290.513 331.848 292.194 333.749 294.815C335.649 297.43 336.375 300.629 335.798 303.806C335.236 306.908 333.499 309.6 330.903 311.383C328.916 312.752 326.617 313.467 324.257 313.467ZM303.923 308.277L322.356 311.756C325.048 312.257 327.771 311.679 330.03 310.126C332.283 308.573 333.795 306.233 334.285 303.536C334.786 300.767 334.153 297.992 332.502 295.714C330.852 293.44 328.41 291.974 325.626 291.591L305.507 289.052L281.239 296.736C280.401 297.001 279.931 297.875 280.166 298.718C280.396 299.535 281.229 300.041 282.062 299.862L297.649 296.577C298.15 296.475 298.64 296.761 298.799 297.247C298.952 297.732 298.717 298.253 298.252 298.457L281.377 305.886C280.994 306.054 280.703 306.361 280.555 306.754C280.407 307.143 280.422 307.567 280.596 307.95C280.933 308.68 281.791 309.028 282.542 308.747L301.358 301.61C301.813 301.441 302.314 301.635 302.523 302.064C302.738 302.493 302.59 303.015 302.186 303.27L294.497 308.103C293.93 308.461 293.623 309.069 293.68 309.738C293.736 310.402 294.134 310.959 294.752 311.214C295.171 311.388 295.631 311.398 296.055 311.24L303.923 308.277Z" fill="#4E40C4"/>
<path d="M295.971 181.14C295.665 181.14 295.378 180.956 295.261 180.655C295.241 180.599 293.131 175.015 298.505 170.524C298.832 170.253 299.312 170.294 299.583 170.621C299.854 170.948 299.813 171.428 299.486 171.699C294.98 175.464 296.615 179.909 296.686 180.093C296.84 180.486 296.64 180.931 296.247 181.084C296.16 181.125 296.068 181.14 295.971 181.14Z" fill="#4E40C4"/>
<path d="M342.876 174.652C342.534 174.652 342.207 174.499 341.987 174.234C341.747 173.942 341.666 173.554 341.763 173.196L344.68 162.447C344.792 162.039 345.211 161.793 345.62 161.911C346.029 162.023 346.269 162.442 346.156 162.851L343.377 173.089L346.212 172.88C346.631 172.844 346.999 173.166 347.035 173.59C347.066 174.014 346.749 174.377 346.325 174.412L342.958 174.658C342.933 174.652 342.902 174.652 342.876 174.652Z" fill="#4E40C4"/>
<path d="M352.48 180.277C351.969 180.277 351.428 180.201 350.845 180.047C350.437 179.94 350.191 179.521 350.299 179.112C350.406 178.704 350.83 178.458 351.234 178.566C352.352 178.862 353.252 178.786 353.9 178.341C354.886 177.672 355.065 176.328 355.07 176.313C355.122 175.894 355.5 175.587 355.918 175.638C356.337 175.689 356.639 176.068 356.593 176.486C356.583 176.568 356.337 178.53 354.764 179.603C354.12 180.053 353.354 180.277 352.48 180.277Z" fill="#4E40C4"/>
<path d="M342.976 152.235C342.812 152.235 342.649 152.183 342.511 152.076C342.393 151.989 339.731 150.007 336.411 151.565C336.027 151.744 335.573 151.581 335.389 151.197C335.21 150.814 335.373 150.36 335.757 150.176C339.941 148.214 343.297 150.753 343.441 150.86C343.778 151.121 343.839 151.601 343.578 151.933C343.43 152.132 343.2 152.235 342.976 152.235Z" fill="#4E40C4"/>
<path d="M362.236 157.476C361.996 157.476 361.761 157.363 361.612 157.154C361.52 157.031 359.548 154.359 355.931 154.88C355.512 154.936 355.124 154.65 355.063 154.231C355.002 153.813 355.293 153.424 355.712 153.363C360.284 152.709 362.757 156.122 362.859 156.265C363.104 156.612 363.023 157.087 362.675 157.333C362.542 157.43 362.389 157.476 362.236 157.476Z" fill="#4E40C4"/>
<path d="M337.527 156.945C337.445 157.91 338.028 158.743 338.835 158.814C339.642 158.886 340.363 158.161 340.444 157.195C340.526 156.229 339.944 155.397 339.137 155.325C338.329 155.259 337.609 155.979 337.527 156.945Z" fill="#4E40C4"/>
<path d="M354.176 160.618C353.849 161.528 354.207 162.488 354.968 162.759C355.729 163.03 356.608 162.514 356.935 161.604C357.262 160.695 356.904 159.734 356.143 159.464C355.382 159.193 354.503 159.709 354.176 160.618Z" fill="#4E40C4"/>
<path d="M349.161 285.761C349.054 285.761 348.946 285.741 348.839 285.69C348.456 285.511 348.287 285.056 348.466 284.673L372.335 232.879L371.472 224.291H380.806L377.802 200.315C377.75 199.896 378.047 199.512 378.466 199.461C378.885 199.41 379.268 199.707 379.319 200.125L382.537 225.823H373.163L373.898 233.139L349.856 285.312C349.728 285.593 349.452 285.761 349.161 285.761Z" fill="#4E40C4"/>
<path d="M319.279 287.743C319.268 287.743 319.258 287.743 319.248 287.743C318.824 287.728 318.497 287.37 318.512 286.946L321.475 210.88L327.448 206.481L322.104 202.925L332.419 181.411C332.603 181.028 333.062 180.87 333.441 181.054C333.824 181.238 333.982 181.692 333.798 182.075L324.055 202.383L330.115 206.409L322.972 211.666L320.035 286.992C320.03 287.422 319.687 287.743 319.279 287.743Z" fill="#4E40C4"/>
<path d="M337.305 219.177L358.527 224.25L360.106 218.416L338.699 212.627L337.305 219.177Z" fill="#4E40C4"/>
<path d="M334.902 231.842L355.588 236.787L357.167 230.947L336.149 225.261L334.902 231.842Z" fill="#4E40C4"/>
<path d="M332.5 244.502L352.021 249.171L353.508 243.291L333.747 237.942L332.5 244.502Z" fill="#4E40C4"/>
<path d="M330.109 257.167L348.706 261.612L350.223 255.742L331.295 250.914L330.109 257.167Z" fill="#4E40C4"/>
<path d="M327.707 269.826L345.435 274.066L346.932 268.165L328.943 263.302L327.707 269.826Z" fill="#4E40C4"/>
<path d="M325.305 282.492L342.123 286.512L343.748 280.213L326.597 275.666L325.305 282.492Z" fill="#4E40C4"/>
<path d="M342.489 285.761C342.422 285.761 342.356 285.751 342.295 285.736C341.886 285.628 341.641 285.209 341.748 284.801L363.609 202.138L371.436 196.866C371.788 196.631 372.264 196.723 372.499 197.075C372.734 197.428 372.642 197.903 372.289 198.138L364.937 203.088L343.224 285.194C343.137 285.531 342.826 285.761 342.489 285.761Z" fill="#4E40C4"/>
<path d="M324.461 287.744C324.415 287.744 324.364 287.739 324.318 287.728C323.904 287.652 323.628 287.248 323.71 286.834L340.993 195.614L339.507 187.936C339.425 187.522 339.696 187.118 340.114 187.037C340.523 186.955 340.932 187.226 341.014 187.644L342.557 195.609L342.531 195.752L325.222 287.115C325.145 287.488 324.823 287.744 324.461 287.744Z" fill="#4E40C4"/>
<path d="M317.811 223.152C317.811 214.129 310.5 206.818 301.478 206.818C292.455 206.818 285.145 214.129 285.145 223.152C285.145 228.874 288.092 233.901 292.547 236.818V247.24L310.403 245.406V236.818C314.863 233.901 317.811 228.874 317.811 223.152Z" fill="#FF4C1E"/>
<path d="M306.987 251.246L305.628 252.385H296.79L295.517 251.215C292.891 248.799 291.395 245.386 291.395 241.815V241.447H311.57C311.565 245.232 309.889 248.819 306.987 251.246Z" fill="#2D2382"/>
<path d="M311.701 242.943H291.25C291.148 242.943 291.066 242.862 291.066 242.76V241.636C291.066 241.533 291.148 241.452 291.25 241.452H311.701C311.804 241.452 311.885 241.533 311.885 241.636V242.76C311.885 242.862 311.804 242.943 311.701 242.943Z" fill="#4E40C4"/>
<path d="M311.701 245.993H291.25C291.148 245.993 291.066 245.911 291.066 245.809V244.685C291.066 244.583 291.148 244.501 291.25 244.501H311.701C311.804 244.501 311.885 244.583 311.885 244.685V245.809C311.885 245.911 311.804 245.993 311.701 245.993Z" fill="#4E40C4"/>
<path d="M304.962 255.083H297.258C296.854 255.083 296.527 254.756 296.527 254.352V252.15H305.693V254.352C305.693 254.756 305.366 255.083 304.962 255.083Z" fill="#4E40C4"/>
<path d="M242.818 251.373C247.595 251.358 252.014 253.917 254.374 258.071L281.298 305.395L293.202 308.087C315.681 316.681 308.079 359.233 308.079 359.233L144.716 358.952C133.747 358.707 123.637 352.458 119.013 342.511C103.012 308.123 165.642 261.479 177.679 252.931C178.941 252.037 180.448 251.557 181.991 251.552L242.818 251.373Z" fill="white"/>
<path d="M175.657 254.377C172.898 256.385 168.887 259.4 164.238 263.175C174.655 271.007 191.167 279.447 209.299 274.594C209.299 274.588 182.789 270.573 175.657 254.377Z" fill="#4E40C4"/>
<path d="M237.332 274.694C245.971 274.398 253.497 271.66 259.908 267.782L255.632 260.272C251.305 270.158 237.332 274.694 237.332 274.694Z" fill="#4E40C4"/>
<path d="M248.906 237.338C230.825 216.156 203.993 220.243 189.274 224.678C179.256 227.692 172.614 237.501 174.009 247.867C176.885 269.197 209.894 274.694 209.894 274.694H237.334C237.334 274.694 272.049 264.446 248.906 237.338Z" fill="white"/>
<path d="M237.327 275.461C236.995 275.461 236.693 275.247 236.591 274.909C236.474 274.506 236.704 274.077 237.107 273.959C237.26 273.913 252.337 269.336 255.499 258.678C257.313 252.558 254.897 245.543 248.311 237.834C230.507 216.974 203.812 221.097 189.482 225.409C179.765 228.336 173.429 237.946 174.758 247.766C177.527 268.283 209.682 273.888 210.009 273.939C210.428 274.01 210.709 274.404 210.638 274.822C210.566 275.241 210.173 275.522 209.754 275.451C209.672 275.436 201.299 274.01 192.69 269.974C181.175 264.569 174.446 256.962 173.235 247.97C171.81 237.415 178.605 227.085 189.037 223.943C203.72 219.523 231.099 215.319 249.471 236.843C256.414 244.976 258.933 252.471 256.961 259.123C253.558 270.582 238.185 275.241 237.536 275.436C237.475 275.451 237.398 275.461 237.327 275.461Z" fill="#4E40C4"/>
<path d="M203.026 216.499C203.542 219.733 201.345 222.773 198.111 223.289C194.877 223.805 191.837 221.603 191.321 218.374C190.805 215.14 193.007 212.1 196.236 211.584C199.465 211.068 202.505 213.265 203.026 216.499Z" fill="white"/>
<path d="M197.159 224.137C195.759 224.137 194.4 223.698 193.245 222.865C191.794 221.817 190.844 220.264 190.558 218.502C190.277 216.734 190.696 214.966 191.748 213.515C192.795 212.07 194.349 211.114 196.111 210.833C197.874 210.552 199.647 210.971 201.098 212.024C202.548 213.071 203.499 214.624 203.785 216.387C204.066 218.154 203.647 219.922 202.594 221.373C201.547 222.819 199.994 223.774 198.231 224.06C197.874 224.106 197.516 224.137 197.159 224.137ZM197.184 212.274C196.908 212.274 196.632 212.294 196.356 212.34C194.992 212.56 193.797 213.296 192.99 214.409C192.182 215.528 191.855 216.892 192.075 218.251C192.295 219.61 193.031 220.806 194.144 221.618C195.263 222.425 196.627 222.752 197.986 222.533C199.35 222.313 200.541 221.577 201.353 220.464C202.16 219.345 202.487 217.981 202.267 216.622C202.048 215.258 201.312 214.067 200.198 213.255C199.309 212.611 198.262 212.274 197.184 212.274Z" fill="#4E40C4"/>
<path d="M199.484 223.237V246.044C199.484 249.262 201.16 252.251 203.914 253.922L228.186 268.702L237.331 251.352V229.741L199.484 223.237Z" fill="white"/>
<path d="M228.491 269.78L204.515 255.183C200.944 253.007 198.727 249.063 198.727 244.879V223.237H200.259V244.879C200.259 248.527 202.196 251.975 205.312 253.876L227.893 267.624L234.969 254.197C236.017 252.21 236.568 249.977 236.568 247.729V243.77H238.101V247.729C238.101 250.223 237.488 252.706 236.323 254.913L228.491 269.78Z" fill="#4E40C4"/>
<path d="M232.407 245.14C217.637 247.505 203.5 238.238 199.776 223.749L192.133 193.999C192.133 193.999 240.749 172.792 245.669 185.427C249.593 195.501 249.629 213.464 248.99 226.589C248.535 235.923 241.628 243.663 232.407 245.14Z" fill="white"/>
<path d="M227.707 246.284C214.046 246.284 202.07 236.95 198.806 223.048C198.709 222.634 198.964 222.226 199.378 222.129C199.792 222.031 200.2 222.287 200.298 222.701C203.756 237.43 217.515 246.759 232.29 244.388C241.092 242.978 247.795 235.483 248.23 226.563C248.587 219.196 248.424 208.554 247.826 200.691C247.795 200.267 248.112 199.9 248.531 199.869C248.96 199.833 249.323 200.155 249.353 200.574C249.951 208.493 250.12 219.211 249.757 226.64C249.287 236.28 242.043 244.383 232.53 245.905C230.91 246.156 229.296 246.284 227.707 246.284Z" fill="#4E40C4"/>
<path d="M214.093 199.818C212.315 199.44 210.548 199.021 208.785 198.571C208.555 205.295 206.175 211.952 202.062 217.362C201.556 218.031 200.856 218.752 200.018 218.629C199.492 218.553 199.083 218.159 198.715 217.786C197.597 216.652 196.478 215.513 195.359 214.378C194.026 213.025 192.61 212.468 191.057 211.318C187.256 208.503 184.257 204.462 183.389 199.859C182.52 195.256 184.017 190.116 187.706 187.107C191.394 184.098 197.259 183.725 200.917 186.719C203.62 174.36 215.6 164.52 228.47 164.076C236.394 163.805 244.18 167.116 249.774 172.506C251.864 174.519 253.662 176.828 255.047 179.357C256.63 182.238 258.408 185.722 257.662 189.089C256.462 194.515 252.855 198.975 247.664 201.019C242.622 203.001 237.007 202.883 231.607 202.429C225.721 201.928 219.866 201.054 214.093 199.818Z" fill="#FF4C1E"/>
<path d="M308.08 359.999C308.034 359.999 307.988 359.994 307.942 359.989C307.523 359.912 307.247 359.519 307.323 359.1C307.4 358.681 314.542 317.14 292.978 308.828L280.803 306.069L254.921 261.07C254.712 260.702 254.839 260.232 255.202 260.022C255.57 259.813 256.035 259.936 256.25 260.303L281.794 304.72L293.473 307.372C302.96 310.999 308.616 321.187 309.832 336.825C310.736 348.499 308.851 359.258 308.831 359.366C308.764 359.738 308.442 359.999 308.08 359.999Z" fill="#4E40C4"/>
<path d="M169.738 359.999C159.29 359.999 149.956 359.83 144.704 359.713C133.107 359.452 122.751 352.821 118.316 342.818C114.566 334.352 115.266 324.369 120.406 313.145C124.472 304.261 131.324 294.569 140.765 284.346C156.802 266.981 175.041 253.881 175.225 253.749C175.567 253.503 176.047 253.58 176.292 253.927C176.538 254.27 176.461 254.75 176.114 254.995C175.935 255.123 157.803 268.146 141.873 285.398C127.287 301.2 111.598 323.879 119.716 342.194C123.91 351.656 133.73 357.93 144.74 358.18C176.64 358.895 213.399 358.436 220.904 354.997C230.815 350.455 228.025 332.707 227.366 329.192C227.055 327.527 225.655 326.3 223.964 326.209L168.169 320.752C167.75 320.711 167.439 320.338 167.479 319.914C167.52 319.495 167.893 319.189 168.317 319.225L224.076 324.681C226.442 324.809 228.424 326.551 228.868 328.911C229.849 334.122 232.21 351.498 221.542 356.392C215.084 359.35 190.265 359.999 169.738 359.999Z" fill="#4E40C4"/>
<path d="M224.341 332.395L243.643 333.437L265.06 344.748C266.138 345.315 266.567 346.638 266.035 347.732C265.514 348.799 264.258 349.28 263.159 348.83L249.212 343.149C248.977 343.052 248.803 343.379 249.013 343.522L263.455 353.275C264.467 353.959 264.722 355.339 264.017 356.34C263.358 357.275 262.086 357.546 261.105 356.953L244.813 347.144C244.649 347.047 244.486 347.267 244.624 347.395L250.959 353.183C252.384 354.486 251.751 356.856 249.866 357.275C249.268 357.408 248.645 357.306 248.118 356.994L241.477 353.009L223.953 353.137C218.195 353.168 213.516 348.513 213.516 342.756C213.516 336.855 218.441 332.139 224.341 332.395Z" fill="white"/>
<path d="M249.341 358.103C248.774 358.103 248.217 357.95 247.722 357.654L241.264 353.781L223.955 353.909C220.987 353.924 218.151 352.775 216.031 350.67C213.911 348.56 212.746 345.755 212.746 342.766C212.746 339.701 213.967 336.84 216.179 334.72C218.397 332.599 221.304 331.501 224.369 331.634H224.379L243.849 332.681L243.997 332.758L265.409 344.069C266.86 344.835 267.432 346.593 266.712 348.064C266.017 349.49 264.326 350.138 262.855 349.536L253.842 345.867L263.871 352.642C264.53 353.086 264.975 353.766 265.123 354.552C265.266 355.339 265.092 356.126 264.638 356.78C263.749 358.042 262.022 358.405 260.704 357.613L249.638 350.951L251.467 352.621C252.34 353.418 252.693 354.624 252.386 355.763C252.08 356.903 251.176 357.771 250.026 358.027C249.801 358.078 249.571 358.103 249.341 358.103ZM241.688 352.248L248.514 356.341C248.871 356.555 249.295 356.622 249.699 356.535C250.302 356.402 250.757 355.968 250.915 355.37C251.073 354.772 250.9 354.169 250.445 353.756L244.11 347.967C243.757 347.645 243.706 347.114 243.992 346.731C244.278 346.348 244.8 346.245 245.208 346.491L261.501 356.3C262.134 356.683 262.967 356.504 263.391 355.901C263.611 355.59 263.692 355.206 263.626 354.828C263.554 354.45 263.345 354.123 263.028 353.914L248.585 344.161C248.166 343.88 248.033 343.333 248.268 342.889C248.509 342.444 249.035 342.255 249.5 342.444L263.442 348.125C264.168 348.422 265 348.1 265.343 347.4C265.695 346.675 265.414 345.806 264.699 345.428L243.435 334.193L224.302 333.161C221.671 333.049 219.153 333.994 217.242 335.823C215.331 337.652 214.279 340.12 214.279 342.766C214.279 345.346 215.285 347.768 217.114 349.582C218.928 351.385 221.334 352.376 223.889 352.376C223.909 352.376 223.93 352.376 223.945 352.376L241.688 352.248Z" fill="#4E40C4"/>
<path d="M207.962 341.172C207.952 341.172 207.942 341.172 207.932 341.172C207.508 341.152 207.181 340.799 207.196 340.375C207.385 335.879 210.031 331.899 214.108 329.984C214.491 329.805 214.946 329.968 215.13 330.351C215.309 330.735 215.145 331.189 214.762 331.373C211.206 333.044 208.892 336.523 208.729 340.442C208.708 340.845 208.371 341.172 207.962 341.172Z" fill="#4E40C4"/>
<path d="M177.003 318.094C176.993 318.094 176.983 318.094 176.972 318.094C176.548 318.079 176.221 317.721 176.237 317.297C176.431 312.199 173.529 310.237 173.406 310.155C173.054 309.925 172.952 309.45 173.182 309.097C173.412 308.745 173.882 308.638 174.234 308.868C174.387 308.965 177.999 311.345 177.769 317.359C177.754 317.767 177.412 318.094 177.003 318.094Z" fill="#4E40C4"/>
<path d="M263.634 325.043C263.603 325.043 263.573 325.043 263.542 325.038C263.123 324.987 262.822 324.604 262.873 324.185C264.896 307.652 279.109 307.243 279.252 307.238C279.697 307.243 280.023 307.57 280.029 307.994C280.034 308.418 279.697 308.766 279.278 308.771C278.746 308.781 266.25 309.19 264.395 324.369C264.344 324.757 264.012 325.043 263.634 325.043Z" fill="#4E40C4"/>
<path d="M274.736 330.693C274.716 330.693 274.696 330.693 274.675 330.688C274.394 330.652 274.195 330.397 274.231 330.121C275.82 317.144 286.967 316.822 287.08 316.817C287.085 316.817 287.085 316.817 287.09 316.817C287.366 316.817 287.596 317.042 287.601 317.318C287.606 317.599 287.381 317.834 287.1 317.839C286.676 317.844 276.729 318.166 275.247 330.244C275.212 330.499 274.992 330.693 274.736 330.693Z" fill="#4E40C4"/>
<path d="M223.852 303.585C223.832 303.585 223.806 303.585 223.786 303.585C223.224 303.55 222.795 303.064 222.831 302.502C224.246 280.263 215.045 272.385 214.953 272.308C214.518 271.951 214.457 271.307 214.815 270.868C215.172 270.433 215.816 270.372 216.255 270.73C216.669 271.072 226.356 279.364 224.869 302.63C224.838 303.171 224.389 303.585 223.852 303.585Z" fill="#4E40C4"/>
<path d="M231.387 303.585C230.876 303.585 230.432 303.202 230.375 302.681C227.417 277.06 233.584 271.011 233.844 270.766C234.258 270.382 234.907 270.403 235.29 270.822C235.673 271.231 235.653 271.869 235.244 272.257C235.132 272.37 229.609 278.276 232.404 302.446C232.47 303.008 232.066 303.514 231.504 303.58C231.464 303.585 231.423 303.585 231.387 303.585Z" fill="#4E40C4"/>
<path d="M236.902 227.447C236.892 227.447 236.887 227.447 236.877 227.447L233.689 227.376C233.265 227.365 232.932 227.013 232.938 226.594C232.948 226.17 233.3 225.833 233.719 225.843L236.35 225.904L233.265 216.427C233.132 216.024 233.351 215.594 233.755 215.462C234.159 215.329 234.588 215.554 234.721 215.952L237.98 225.966C238.092 226.313 238.031 226.701 237.811 226.993C237.602 227.279 237.26 227.447 236.902 227.447Z" fill="#4E40C4"/>
<path d="M232.219 233.91C231.468 233.91 230.794 233.726 230.206 233.358C228.663 232.398 228.352 230.533 228.342 230.457C228.275 230.038 228.561 229.644 228.98 229.578C229.399 229.516 229.787 229.797 229.854 230.211C229.854 230.227 230.079 231.478 231.024 232.061C231.642 232.444 232.48 232.475 233.507 232.158C233.91 232.035 234.339 232.26 234.467 232.664C234.59 233.067 234.365 233.496 233.961 233.624C233.343 233.813 232.761 233.91 232.219 233.91Z" fill="#4E40C4"/>
<path d="M235.056 209.76C234.872 209.76 234.693 209.699 234.545 209.566C234.228 209.285 234.203 208.805 234.484 208.488C234.596 208.36 237.294 205.397 241.544 206.496C241.953 206.603 242.198 207.022 242.096 207.431C241.989 207.839 241.575 208.085 241.161 207.982C237.83 207.124 235.715 209.413 235.628 209.51C235.475 209.673 235.265 209.76 235.056 209.76Z" fill="#4E40C4"/>
<path d="M217.331 214.251C217.158 214.251 216.989 214.195 216.846 214.078C216.519 213.807 216.473 213.332 216.739 213.005C216.846 212.872 219.416 209.801 223.712 210.731C224.126 210.818 224.387 211.227 224.3 211.641C224.213 212.054 223.799 212.32 223.391 212.228C220.029 211.503 218.011 213.878 217.924 213.975C217.771 214.154 217.551 214.251 217.331 214.251Z" fill="#4E40C4"/>
<path d="M241.063 213.132C241.309 214.01 240.91 214.894 240.174 215.098C239.439 215.303 238.642 214.756 238.397 213.877C238.151 212.999 238.55 212.115 239.286 211.911C240.021 211.706 240.818 212.253 241.063 213.132Z" fill="#4E40C4"/>
<path d="M224.677 217.709C224.922 218.588 224.523 219.472 223.788 219.676C223.052 219.88 222.255 219.334 222.01 218.455C221.765 217.576 222.163 216.692 222.899 216.488C223.634 216.284 224.432 216.83 224.677 217.709Z" fill="#4E40C4"/>
<path d="M263.323 359.381H194.807C189.045 359.381 184.375 354.711 184.375 348.948H263.323V359.381Z" fill="#2D2382"/>
<path d="M346.074 359.382H229.371L253.628 295.147C255.83 289.313 261.419 285.45 267.657 285.45H362.234C367.92 285.45 371.849 291.136 369.841 296.455L346.074 359.382Z" fill="#4E40C4"/>
<path d="M307.698 324.978C306.988 328.631 303.453 331.022 299.795 330.312C296.137 329.601 293.751 326.066 294.461 322.408C295.171 318.75 298.707 316.364 302.365 317.074C306.017 317.784 308.408 321.325 307.698 324.978Z" fill="#8F7CDB"/>
<path d="M511.025 360.137H80.7663C80.3423 360.137 80 359.795 80 359.371C80 358.947 80.3423 358.604 80.7663 358.604H511.025C511.449 358.604 511.792 358.947 511.792 359.371C511.792 359.795 511.449 360.137 511.025 360.137Z" fill="#4E40C4"/>
<path d="M410.456 286.645C424.593 291.049 446.975 282.808 456.089 274.644C462.966 268.488 463.732 257.902 462.853 249.37C460.779 229.236 450.336 211.002 442.29 192.814C437.37 181.687 423.964 172.946 412.152 170.912C403.12 169.359 393.52 172.552 386.812 178.795C380.104 185.044 376.277 194.122 375.894 203.277C375.189 220.178 381.969 239.694 389.586 254.54C394.848 264.809 397.566 282.624 410.456 286.645Z" fill="#FF4C1E"/>
<path d="M376.213 265.167L343.087 302.488L325.16 285.465C322.728 283.156 318.927 283.13 316.464 285.403L306.282 294.799C304.336 296.592 303.702 299.402 304.693 301.854C309.603 313.988 325.124 348.77 341.835 348.979C362.082 349.229 387.575 299.489 387.575 299.489L376.213 265.167Z" fill="white"/>
<path d="M341.983 349.75C341.927 349.75 341.876 349.75 341.82 349.75C324.955 349.541 309.736 316.389 303.978 302.145C302.874 299.417 303.589 296.239 305.756 294.236L315.938 284.841C318.686 282.307 322.968 282.333 325.681 284.913L343.036 301.389L376.514 263.665L388.403 299.555L388.255 299.841C387.207 301.884 362.439 349.75 341.983 349.75ZM320.771 284.494C319.407 284.494 318.048 284.984 316.975 285.97L306.793 295.365C305.092 296.934 304.53 299.432 305.398 301.573C309.802 312.465 325.451 348.013 341.84 348.217C341.886 348.217 341.937 348.217 341.983 348.217C360.723 348.217 384.638 303.438 386.742 299.427L375.896 266.674L343.128 303.596L324.623 286.026C323.55 285.004 322.16 284.494 320.771 284.494Z" fill="#4E40C4"/>
<path d="M436.267 256.451L422.31 255.246L388.187 258.817C380.12 259.66 373.591 265.744 372.181 273.73L367.409 300.725C366.413 306.35 368.308 312.103 372.452 316.037L375.813 319.235L376.564 359.228H473.118L462.716 278.328C459.314 266.245 448.779 257.534 436.267 256.451Z" fill="white"/>
<path d="M470.527 338.99L473.128 359.232H405.332L470.527 338.99Z" fill="#4E40C4"/>
<path d="M474.011 359.999H375.833L375.067 319.255C375.056 318.831 375.394 318.483 375.818 318.473C376.221 318.478 376.589 318.8 376.599 319.224L377.335 358.466H472.264L461.98 278.486C458.659 266.807 448.313 258.264 436.21 257.217L422.329 256.016L388.284 259.583C383.793 260.053 379.711 262.214 376.799 265.662L372.901 270.056C372.62 270.373 372.134 270.398 371.817 270.122C371.501 269.841 371.47 269.356 371.751 269.039L375.639 264.656C378.801 260.916 383.241 258.566 388.125 258.055L422.319 254.474L422.391 254.479L436.348 255.684C449.1 256.783 459.998 265.8 463.477 278.118L463.497 278.23L474.011 359.999Z" fill="#4E40C4"/>
<path d="M422.32 255.25L438.475 256.645C450.859 257.713 462.247 263.895 469.844 273.73C481.814 289.23 498.045 313.237 499.286 330.801C500.666 350.358 452.989 353.838 435.706 355.682C431.276 356.152 427.051 353.597 425.483 349.429C424.016 345.52 423.082 339.798 424.563 331.93C425.248 328.303 428.012 325.417 431.608 324.589L451.564 319.991C451.564 319.991 431.567 299.494 431.317 289.746C431.072 279.993 422.32 255.25 422.32 255.25Z" fill="white"/>
<path d="M434.649 356.504C430.281 356.504 426.317 353.827 424.769 349.699C422.853 344.606 422.536 338.577 423.813 331.787C424.554 327.858 427.548 324.737 431.441 323.843L451.396 319.245C451.81 319.148 452.219 319.408 452.316 319.817C452.413 320.231 452.152 320.64 451.744 320.737L431.788 325.335C428.488 326.096 425.954 328.737 425.325 332.073C424.099 338.582 424.396 344.335 426.209 349.163C427.65 352.989 431.517 355.355 435.635 354.926C436.744 354.808 437.97 354.686 439.303 354.548C449.256 353.541 464.291 352.019 476.931 348.447C491.788 344.248 499.057 338.332 498.531 330.863C497.331 313.819 481.943 290.645 469.247 274.205C461.819 264.584 450.579 258.464 438.42 257.411L422.265 256.017C421.841 255.981 421.53 255.608 421.565 255.189C421.601 254.765 421.979 254.453 422.393 254.489L438.547 255.884C451.136 256.972 462.764 263.307 470.458 273.264C483.281 289.874 498.828 313.329 500.054 330.755C501.392 349.806 459.56 354.037 439.452 356.075C438.123 356.208 436.892 356.336 435.789 356.453C435.41 356.484 435.027 356.504 434.649 356.504Z" fill="#4E40C4"/>
<path d="M431.242 332.584L412.436 333.596L391.571 344.616C390.524 345.167 390.1 346.455 390.621 347.523C391.127 348.565 392.353 349.03 393.426 348.596L407.016 343.057C407.246 342.965 407.414 343.282 407.21 343.42L393.135 352.923C392.149 353.587 391.898 354.936 392.583 355.906C393.227 356.821 394.463 357.081 395.418 356.504L411.297 346.945C411.455 346.848 411.619 347.063 411.481 347.191L405.309 352.831C403.92 354.103 404.538 356.407 406.372 356.816C406.954 356.943 407.562 356.846 408.073 356.54L414.546 352.657L431.62 352.78C437.23 352.81 441.792 348.274 441.792 342.669C441.792 336.932 436.995 332.339 431.242 332.584Z" fill="white"/>
<path d="M406.883 357.653C406.658 357.653 406.433 357.628 406.208 357.577C405.079 357.326 404.19 356.473 403.894 355.354C403.598 354.236 403.94 353.055 404.793 352.274L406.428 350.777L395.817 357.163C394.524 357.945 392.828 357.587 391.96 356.346C391.51 355.707 391.341 354.925 391.479 354.159C391.622 353.388 392.057 352.723 392.706 352.284L402.321 345.791L393.717 349.295C392.276 349.883 390.616 349.244 389.937 347.849C389.231 346.404 389.793 344.682 391.214 343.931L412.227 332.829L431.212 331.807C434.195 331.685 437.041 332.747 439.207 334.822C441.368 336.891 442.558 339.685 442.558 342.679C442.558 345.596 441.419 348.335 439.35 350.394C437.281 352.453 434.537 353.587 431.615 353.556L414.756 353.433L408.472 357.204C407.986 357.505 407.44 357.653 406.883 357.653ZM411.379 346.169C411.66 346.169 411.936 346.296 412.114 346.542C412.395 346.925 412.344 347.451 411.997 347.773L405.825 353.413C405.386 353.812 405.217 354.394 405.371 354.966C405.524 355.538 405.958 355.957 406.541 356.085C406.934 356.172 407.338 356.105 407.68 355.901L414.337 351.911L431.625 352.039C434.134 352.039 436.489 351.088 438.267 349.321C440.045 347.553 441.026 345.198 441.026 342.694C441.026 340.12 440.004 337.724 438.144 335.946C436.29 334.168 433.858 333.253 431.278 333.355L412.641 334.362L391.924 345.305C391.239 345.668 390.963 346.501 391.306 347.201C391.638 347.875 392.44 348.182 393.135 347.901L406.724 342.362C407.189 342.173 407.716 342.362 407.951 342.807C408.186 343.246 408.053 343.793 407.639 344.074L393.564 353.582C393.257 353.786 393.053 354.098 392.987 354.46C392.92 354.823 393.002 355.186 393.211 355.487C393.62 356.07 394.417 356.238 395.025 355.87L410.904 346.312C411.052 346.215 411.215 346.169 411.379 346.169Z" fill="#4E40C4"/>
<path d="M423.856 228.147L428.771 253.013C429.103 254.699 430.498 255.971 432.209 256.149L441.793 257.141C442.258 257.187 442.452 257.759 442.11 258.081L411.39 307.075L395.491 259.44C395.067 258.847 395.44 258.019 396.166 257.948L401.53 257.411C402.996 257.263 404.115 256.032 404.115 254.555V229.358L423.856 228.147Z" fill="white"/>
<path d="M405.629 289.808C410.84 291.228 416.256 291.575 421.559 290.86L418.784 295.284C417.916 295.336 417.047 295.366 416.179 295.366C413.165 295.366 410.145 295.055 407.177 294.436L405.629 289.808Z" fill="#4E40C4"/>
<path d="M437.95 264.712L433.567 271.701C428.019 274.072 422.097 275.267 416.171 275.267C410.592 275.267 405.003 274.209 399.71 272.089L397.922 266.73C410.653 273.213 425.827 272.488 437.925 264.722C437.935 264.717 437.945 264.717 437.95 264.712Z" fill="#4E40C4"/>
<path d="M428.943 279.084L425.684 284.28C422.557 284.969 419.369 285.317 416.181 285.317C411.92 285.317 407.654 284.698 403.516 283.462L401.871 278.527C410.602 281.863 420.166 282.032 428.943 279.084Z" fill="#4E40C4"/>
<path d="M409.254 300.673C411.17 301.011 413.106 301.2 415.042 301.256L412.529 305.266C411.926 305.215 411.328 305.159 410.725 305.082L409.254 300.673Z" fill="#4E40C4"/>
<path d="M411.173 308.859L394.794 259.782C394.498 259.297 394.462 258.715 394.697 258.188C394.952 257.626 395.473 257.253 396.086 257.192L401.451 256.656C402.534 256.548 403.346 255.649 403.346 254.561V228.643L424.477 227.346L429.524 252.87C429.795 254.234 430.904 255.251 432.288 255.394L441.873 256.385C442.389 256.436 442.813 256.778 442.981 257.269C443.135 257.723 443.032 258.209 442.721 258.561L411.173 308.859ZM404.879 230.079V254.556C404.879 256.431 403.469 257.989 401.604 258.173L396.24 258.709C396.153 258.72 396.112 258.771 396.097 258.817C396.076 258.858 396.066 258.924 396.117 258.996L396.183 259.087L396.219 259.2L411.602 305.293L441.341 257.866L432.13 256.916C430.071 256.702 428.421 255.195 428.017 253.166L423.23 228.955L404.879 230.079Z" fill="#4E40C4"/>
<path d="M431.734 219.355C435.416 219.355 438.401 216.37 438.401 212.688C438.401 209.006 435.416 206.021 431.734 206.021C428.051 206.021 425.066 209.006 425.066 212.688C425.066 216.37 428.051 219.355 431.734 219.355Z" fill="white"/>
<path d="M431.72 220.121C427.94 220.121 424.696 217.24 424.328 213.403C423.934 209.321 426.928 205.684 431.01 205.285C435.082 204.892 438.73 207.891 439.128 211.968C439.522 216.05 436.528 219.687 432.446 220.086C432.201 220.111 431.96 220.121 431.72 220.121ZM431.731 206.787C431.542 206.787 431.352 206.797 431.158 206.813C427.919 207.124 425.539 210.016 425.855 213.255C426.167 216.494 429.059 218.87 432.298 218.558C435.537 218.247 437.917 215.355 437.601 212.116C437.304 209.076 434.729 206.787 431.731 206.787Z" fill="#4E40C4"/>
<path d="M429.865 196.084C429.865 196.084 440.752 239.224 409.935 244.834C379.118 250.443 386.362 192.712 386.362 192.712C386.362 192.712 405.505 165.921 429.865 196.084Z" fill="white"/>
<path d="M405.907 245.983C401.437 245.983 397.616 244.507 394.515 241.569C381.221 228.991 385.426 194.097 385.61 192.621C385.661 192.202 386.049 191.905 386.463 191.956C386.882 192.008 387.183 192.391 387.127 192.81C387.081 193.162 382.83 228.409 395.562 240.455C399.22 243.914 404.007 245.135 409.8 244.078C421.914 241.871 428.908 233.523 430.589 219.253C430.64 218.834 431.023 218.528 431.437 218.584C431.856 218.635 432.157 219.013 432.106 219.437C430.364 234.238 422.741 243.281 410.071 245.59C408.631 245.851 407.241 245.983 405.907 245.983Z" fill="#4E40C4"/>
<path d="M432.1 170.912C430.552 172.93 429.694 175.439 429.566 177.968C429.52 178.918 429.357 180.221 429.776 181.089C430.368 182.305 431.273 183.419 432.253 184.338C432.872 184.916 433.561 185.34 434.231 185.84C435.063 186.464 435.61 187.026 436.637 187.511C440.693 189.422 445.869 188.701 449.21 185.713C452.551 182.724 453.834 177.615 452.24 173.426C450.778 169.579 447.028 166.738 442.941 166.258C438.859 165.783 434.604 167.648 432.1 170.912Z" fill="#FF4C1E"/>
<path d="M402.004 230.196C401.759 230.196 401.513 230.115 401.314 229.961C401.028 229.737 400.865 229.389 400.88 229.026L401.003 223.769C401.013 223.35 401.355 223.023 401.769 223.023C401.774 223.023 401.779 223.023 401.789 223.023C402.213 223.034 402.545 223.386 402.535 223.81L402.423 228.521L404.86 227.78C405.263 227.657 405.693 227.882 405.815 228.291C405.938 228.694 405.708 229.124 405.304 229.246L402.331 230.15C402.224 230.181 402.111 230.196 402.004 230.196ZM402.413 229.062V229.072C402.413 229.072 402.413 229.067 402.413 229.062Z" fill="#4E40C4"/>
<path d="M388.747 210.88C388.481 210.88 388.226 210.742 388.082 210.497C387.873 210.129 387.996 209.664 388.363 209.449C392.078 207.298 395.393 209.378 395.531 209.47C395.889 209.7 395.991 210.175 395.761 210.527C395.531 210.88 395.061 210.987 394.704 210.757C394.586 210.686 392.011 209.107 389.13 210.772C389.012 210.844 388.879 210.88 388.747 210.88Z" fill="#4E40C4"/>
<path d="M415.85 210.843C415.697 210.843 415.543 210.797 415.411 210.705C415.293 210.624 412.79 208.948 409.842 210.501C409.469 210.695 409.004 210.557 408.805 210.179C408.605 209.806 408.748 209.341 409.127 209.142C412.922 207.139 416.151 209.352 416.289 209.449C416.637 209.694 416.718 210.169 416.478 210.516C416.325 210.731 416.09 210.843 415.85 210.843Z" fill="#4E40C4"/>
<path d="M390.551 215.57C390.551 216.458 391.154 217.184 391.9 217.184C392.645 217.184 393.248 216.464 393.248 215.57C393.248 214.681 392.645 213.955 391.9 213.955C391.154 213.955 390.551 214.681 390.551 215.57Z" fill="#4E40C4"/>
<path d="M410.07 215.968C410.07 216.857 410.673 217.583 411.419 217.583C412.165 217.583 412.768 216.863 412.768 215.968C412.768 215.079 412.165 214.354 411.419 214.354C410.673 214.354 410.07 215.079 410.07 215.968Z" fill="#4E40C4"/>
<path d="M410.743 235.476C411.902 234.571 412.167 232.974 411.335 231.909C410.503 230.844 408.89 230.714 407.731 231.618C406.572 232.523 406.307 234.12 407.139 235.185C407.971 236.251 409.584 236.381 410.743 235.476Z" fill="#FF4C1E"/>
<path d="M406.459 235.719C406.05 235.719 405.713 235.397 405.692 234.989C405.672 234.565 405.999 234.207 406.423 234.186C407.746 234.125 408.722 233.747 409.33 233.063C410.117 232.179 410.04 231.019 410.035 231.009C410.004 230.59 410.316 230.217 410.735 230.186C411.159 230.145 411.522 230.462 411.562 230.881C411.568 230.953 411.706 232.674 410.495 234.064C409.606 235.081 408.257 235.637 406.494 235.719C406.484 235.719 406.469 235.719 406.459 235.719Z" fill="#4E40C4"/>
<path d="M447.045 316.864C446.846 316.864 446.646 316.788 446.498 316.634C444.087 314.167 445.436 311.377 446.483 310.243C446.769 309.931 447.254 309.916 447.566 310.202C447.878 310.488 447.893 310.974 447.607 311.285C447.397 311.515 445.64 313.564 447.592 315.562C447.888 315.863 447.883 316.348 447.576 316.645C447.433 316.793 447.239 316.864 447.045 316.864Z" fill="#4E40C4"/>
<path d="M271.102 262.679C272.262 261.34 274.306 261.243 275.583 262.464L287.241 273.586L283.686 262.055C285.556 259.654 288.013 262.055 288.013 262.055L294.246 272.605L293.229 263.425C294.379 260.676 297.281 263.67 297.281 263.67L301.684 273.152L302.323 270.705C302.323 270.705 304.561 267.885 306.328 266.863C306.752 266.618 307.289 266.756 307.549 267.17C307.989 267.864 308.53 269.096 308.234 270.679C307.759 273.188 307.166 272.856 307.166 272.856L307.079 277.352L307.667 277.377L312.418 272.294L314.738 268.237C315.749 266.464 317.634 265.371 319.678 265.371H319.714C319.939 265.371 320.117 265.565 320.097 265.795L318.472 275.814L320.138 282.394L320.281 282.598C323.581 287.432 322.662 293.976 318.166 297.716C314.498 300.766 309.312 301.19 305.194 298.784L298.813 295.054C295.906 293.353 293.331 291.146 291.211 288.53L271.097 263.721C270.837 263.409 270.847 262.975 271.102 262.679Z" fill="white"/>
<path d="M310.894 301.088C308.794 301.088 306.684 300.547 304.794 299.438L298.413 295.709C295.419 293.956 292.793 291.703 290.607 289.006L270.493 264.197C270.012 263.604 270.023 262.751 270.528 262.174C271.228 261.366 272.199 260.896 273.267 260.845C274.335 260.794 275.346 261.172 276.118 261.908L287.485 272.754C287.792 273.045 287.802 273.531 287.511 273.837C287.219 274.144 286.734 274.154 286.427 273.863L275.06 263.017C274.595 262.572 273.977 262.342 273.338 262.373C272.695 262.404 272.107 262.69 271.688 263.175C271.673 263.19 271.673 263.211 271.688 263.226L291.802 288.035C293.871 290.584 296.359 292.72 299.195 294.38L305.576 298.11C309.402 300.348 314.261 299.949 317.674 297.114C321.894 293.609 322.742 287.545 319.651 283.018L319.431 282.701L317.694 275.835L319.268 266.148C317.653 266.292 316.213 267.211 315.41 268.611L312.984 272.81L308.232 277.894C307.941 278.2 307.461 278.221 307.149 277.93C306.843 277.638 306.822 277.158 307.114 276.847L311.803 271.83L314.077 267.85C315.227 265.842 317.372 264.595 319.681 264.595C320.039 264.595 320.351 264.733 320.565 264.973C320.785 265.214 320.892 265.535 320.862 265.857L319.257 275.769L320.851 282.063L320.913 282.155C324.453 287.345 323.483 294.283 318.655 298.294C316.422 300.143 313.668 301.088 310.894 301.088Z" fill="#4E40C4"/>
<path d="M315.785 283.942C315.714 283.942 315.642 283.932 315.571 283.912L306.114 281.178V273.04L306.885 271.911C307.841 270.511 307.805 268.672 306.799 267.313L303.013 271.099L300.494 280.79C300.387 281.199 299.968 281.444 299.559 281.342C299.151 281.235 298.905 280.816 299.008 280.407L301.634 270.307L305.818 266.122C306.104 265.836 306.507 265.688 306.901 265.714C307.304 265.739 307.677 265.939 307.923 266.26L307.974 266.327C309.42 268.217 309.486 270.807 308.142 272.769L307.637 273.51V280.019L315.99 282.43C316.398 282.548 316.633 282.972 316.516 283.38C316.424 283.723 316.117 283.942 315.785 283.942Z" fill="#4E40C4"/>
<path d="M294.999 280.182C294.611 280.182 294.279 279.891 294.238 279.497L292.476 263.297C292.384 262.699 292.731 262.081 293.313 261.831C295.005 261.105 296.946 261.708 297.932 263.266L297.993 263.389L302.188 273.678C302.346 274.072 302.157 274.516 301.769 274.68C301.375 274.838 300.931 274.654 300.767 274.261L296.598 264.043C296.026 263.195 294.959 262.852 294.003 263.215L295.761 279.344C295.807 279.763 295.505 280.141 295.081 280.187C295.056 280.182 295.03 280.182 294.999 280.182ZM293.993 263.103V263.113C293.998 263.113 293.998 263.108 293.993 263.103Z" fill="#4E40C4"/>
<path d="M288.768 279.39C288.441 279.39 288.14 279.18 288.038 278.848L282.99 262.413C282.755 261.728 283.113 260.957 283.802 260.681L284.14 260.548C285.693 259.925 287.435 260.318 288.574 261.534L288.671 261.667L294.904 272.13C295.119 272.493 295.001 272.963 294.638 273.182C294.276 273.397 293.806 273.279 293.586 272.917L287.399 262.53C286.694 261.82 285.647 261.6 284.707 261.973L284.477 262.065L289.494 278.404C289.616 278.807 289.392 279.236 288.988 279.359C288.922 279.379 288.845 279.39 288.768 279.39ZM284.451 261.943V261.953C284.451 261.948 284.451 261.943 284.451 261.943Z" fill="#4E40C4"/>
<path d="M411.389 315.74C411.2 315.74 411.006 315.668 410.858 315.525C410.551 315.234 410.541 314.749 410.837 314.442L437.531 286.68L434.369 276.733L445.731 274.214L445.486 258.024C445.481 257.6 445.818 257.253 446.242 257.248C446.247 257.248 446.252 257.248 446.252 257.248C446.671 257.248 447.013 257.585 447.019 258.004L447.279 275.44L436.331 277.867L439.258 287.084L411.93 315.5C411.792 315.663 411.588 315.74 411.389 315.74Z" fill="#4E40C4"/>
<path d="M409.828 332.232C409.404 332.232 409.062 331.89 409.062 331.466V318.244L389.53 280.647L394.108 272.304L385.734 271.099L385.801 259.062C385.801 258.638 386.148 258.301 386.567 258.301H386.572C386.996 258.301 387.339 258.648 387.333 259.072L387.272 269.77L396.509 271.104L391.262 280.668L410.589 317.871V331.466C410.594 331.89 410.252 332.232 409.828 332.232Z" fill="#4E40C4"/>
<path d="M412.64 224.796C406.856 224.796 402.156 220.091 402.156 214.313C402.156 208.534 406.862 203.829 412.64 203.829C418.423 203.829 423.123 208.534 423.123 214.313C423.123 220.091 418.418 224.796 412.64 224.796ZM412.64 205.357C407.705 205.357 403.689 209.372 403.689 214.308C403.689 219.243 407.705 223.258 412.64 223.258C417.575 223.258 421.591 219.243 421.591 214.308C421.591 209.372 417.575 205.357 412.64 205.357Z" fill="#4E40C4"/>
<path d="M421.134 210.343C420.797 210.343 420.491 210.123 420.399 209.781C420.286 209.372 420.527 208.953 420.93 208.836L433.759 205.28C434.167 205.168 434.586 205.408 434.704 205.811C434.816 206.22 434.576 206.639 434.172 206.757L421.344 210.312C421.272 210.338 421.201 210.343 421.134 210.343Z" fill="#4E40C4"/>
<path d="M398.934 189.861C396.338 199.205 388.481 206.879 379.106 209.229C378.442 201.836 380.102 194.326 383.259 187.613C384.777 184.384 386.682 181.263 389.38 178.933C393.748 175.163 399.771 173.85 405.534 173.885C413.816 173.937 422.062 176.547 428.872 181.278C434.671 185.304 438.686 190.597 441.557 196.993C441.992 197.964 442.758 198.715 443.264 199.634C443.821 200.641 443.918 201.785 443.718 202.909C443.473 204.289 442.881 205.561 441.45 205.954C440.03 206.348 438.426 206.225 436.964 206.414C435.043 206.664 433.107 206.792 431.171 206.756C423.405 206.629 415.686 204.197 409.213 199.895C405.202 197.233 401.667 193.841 398.934 189.861Z" fill="#FF4C1E"/>
<path d="M391.921 224.796C386.138 224.796 381.438 220.091 381.438 214.313C381.438 208.534 386.143 203.829 391.921 203.829C397.699 203.829 402.405 208.534 402.405 214.313C402.405 220.091 397.704 224.796 391.921 224.796ZM391.921 205.357C386.986 205.357 382.97 209.372 382.97 214.308C382.97 219.243 386.986 223.258 391.921 223.258C396.856 223.258 400.872 219.243 400.872 214.308C400.872 209.372 396.861 205.357 391.921 205.357Z" fill="#4E40C4"/>
<path d="M436.147 228.419H433.143C432.315 228.419 431.641 227.744 431.641 226.917V217.608C431.641 217.184 431.983 216.842 432.407 216.842C432.831 216.842 433.173 217.184 433.173 217.608V226.917L436.101 226.886L434.088 221.522C433.94 221.123 434.139 220.684 434.537 220.536C434.931 220.387 435.375 220.587 435.523 220.985L437.552 226.39C437.725 226.85 437.659 227.366 437.378 227.775C437.102 228.179 436.637 228.419 436.147 228.419Z" fill="#4E40C4"/>
<g clip-path="url(#clip0_116_14108)">
<rect x="419.801" y="93" width="48" height="48" fill="#1BA8FF"/>
<path d="M440.148 126.457C439.435 126.457 438.857 125.878 438.857 125.166V115.122C438.857 114.409 439.436 113.832 440.148 113.832C440.862 113.832 441.439 114.41 441.439 115.122V125.166C441.439 125.88 440.862 126.457 440.148 126.457Z" fill="white"/>
<path d="M454.98 126.457C454.266 126.457 453.689 125.878 453.689 125.166V115.122C453.689 114.409 454.268 113.832 454.98 113.832C455.693 113.832 456.27 114.41 456.27 115.122V125.166C456.27 125.88 455.691 126.457 454.98 126.457Z" fill="white"/>
<path d="M437.035 113.931H430.625C429.95 113.931 429.401 114.478 429.401 115.155C429.401 115.83 429.948 116.378 430.625 116.378H432.568V125.197C432.568 125.872 433.115 126.42 433.791 126.42H433.908C434.583 126.42 435.132 125.874 435.132 125.197V116.378H437.037C437.712 116.378 438.26 115.831 438.26 115.155C438.257 114.478 437.71 113.931 437.035 113.931Z" fill="white"/>
<path d="M445.638 120.876C445.638 122.275 445.64 123.645 445.638 125.013C445.636 125.922 445.159 126.424 444.31 126.417C443.478 126.412 443.023 125.938 443.021 125.033C443.016 121.786 443.016 118.541 443.021 115.294C443.023 114.386 443.515 113.846 444.32 113.841C445.183 113.836 445.636 114.338 445.638 115.307C445.64 116.445 445.638 117.584 445.638 118.878C446.089 118.405 446.453 118.025 446.815 117.64C447.873 116.516 448.928 115.387 449.991 114.268C450.392 113.845 450.878 113.723 451.43 113.936C451.92 114.125 452.187 114.492 452.222 115.012C452.257 115.535 451.943 115.903 451.608 116.24C450.715 117.133 449.812 118.02 448.906 118.9C448.07 119.712 448.066 119.707 448.887 120.565C450.015 121.743 451.146 122.922 452.275 124.1C452.531 124.368 452.767 124.653 452.81 125.04C452.866 125.547 452.756 125.984 452.272 126.252C451.789 126.52 451.093 126.497 450.692 126.122C450.118 125.582 449.583 125 449.044 124.423C448.014 123.319 446.996 122.205 445.968 121.1C445.891 121.015 445.837 120.89 445.638 120.876Z" fill="white"/>
<path d="M440.082 112.183C438.78 112.183 437.725 111.128 437.725 109.826C437.725 109.611 437.754 109.405 437.808 109.207H442.357C442.41 109.405 442.441 109.611 442.441 109.826C442.439 111.128 441.384 112.183 440.082 112.183ZM440.082 106.6C438.403 106.6 437.042 107.961 437.042 109.64C437.042 111.319 438.403 112.68 440.082 112.68C441.761 112.68 443.122 111.319 443.122 109.64C443.122 107.961 441.761 106.6 440.082 106.6Z" fill="white"/>
<path d="M454.998 112.183C453.696 112.183 452.641 111.128 452.641 109.826C452.641 109.611 452.67 109.405 452.725 109.207H457.274C457.327 109.405 457.357 109.611 457.357 109.826C457.355 111.128 456.3 112.183 454.998 112.183ZM454.998 106.6C453.32 106.6 451.958 107.961 451.958 109.64C451.958 111.319 453.32 112.68 454.998 112.68C456.677 112.68 458.039 111.319 458.039 109.64C458.039 107.961 456.677 106.6 454.998 106.6Z" fill="white"/>
</g>
<g clip-path="url(#clip1_116_14108)">
<rect x="290.199" y="21" width="48" height="48" fill="url(#paint0_linear_116_14108)"/>
<path d="M308.95 38.8726C308.991 38.4368 309.015 38.0252 309.072 37.617C309.289 36.0686 309.709 34.5908 310.632 33.2991C311.328 32.3277 312.243 31.668 313.438 31.47C315.048 31.203 316.4 31.7008 317.473 32.9339C318.3 33.8847 318.786 35.0128 319.118 36.2133C319.356 37.0727 319.501 37.9477 319.516 38.8623C319.594 38.8657 319.668 38.8726 319.74 38.8726C321.547 38.8726 323.352 38.8726 325.159 38.8743C325.772 38.8743 326.276 39.2791 326.345 39.8664C326.38 40.1626 326.335 40.4692 326.313 40.7706C326.276 41.2925 326.228 41.8144 326.187 42.3362C326.13 43.0493 326.073 43.7623 326.018 44.4754C325.968 45.1368 325.922 45.7981 325.87 46.4595C325.816 47.1554 325.758 47.8512 325.703 48.547C325.651 49.2084 325.606 49.8698 325.555 50.5312C325.501 51.2218 325.444 51.9107 325.389 52.6014C325.35 53.1061 325.317 53.6107 325.276 54.1154C325.221 54.794 325.186 55.4743 325.095 56.1477C324.942 57.2793 323.887 58.311 322.759 58.4712C322.496 58.5091 322.227 58.5297 321.96 58.5297C316.752 58.5332 311.543 58.5332 306.335 58.5332C304.825 58.5332 303.641 57.5859 303.355 56.1081C303.271 55.6706 303.268 55.2177 303.231 54.7716C303.175 54.0533 303.121 53.3334 303.066 52.6152C303.026 52.0761 302.99 51.5353 302.949 50.9962C302.896 50.2831 302.84 49.5701 302.787 48.857C302.747 48.3179 302.709 47.7771 302.67 47.238C302.616 46.5129 302.56 45.7878 302.506 45.0627C302.465 44.5064 302.429 43.9483 302.389 43.392C302.336 42.6549 302.277 41.9194 302.229 41.1823C302.201 40.7655 302.15 40.3435 302.181 39.9301C302.229 39.298 302.725 38.8812 303.361 38.8812C305.138 38.8795 306.914 38.8795 308.691 38.8795C308.776 38.8726 308.855 38.8726 308.95 38.8726ZM318.059 38.8657C318.059 38.814 318.062 38.7589 318.059 38.7038C318.006 37.7824 317.842 36.8816 317.561 36.0032C317.308 35.2161 316.96 34.4772 316.392 33.8606C315.319 32.698 313.615 32.5619 312.393 33.554C311.759 34.0673 311.378 34.7596 311.085 35.5054C310.774 36.2994 310.603 37.1296 310.494 37.9735C310.457 38.2646 310.443 38.5609 310.417 38.8674C312.971 38.8657 315.503 38.8657 318.059 38.8657ZM314.378 42.0607C314.273 42.0555 314.168 42.0452 314.065 42.0469C313.955 42.0486 313.844 42.0607 313.734 42.0693C312.725 42.1451 311.871 42.5291 311.213 43.3162C310.338 44.3617 310.295 45.7499 311.121 46.7833C311.542 47.3069 312.079 47.6927 312.692 47.9476C313.307 48.2043 313.946 48.4041 314.576 48.6262C315.383 48.9104 316.151 49.2601 316.774 49.8715C317.706 50.7826 317.659 52.1863 316.642 52.9975C315.88 53.6038 314.988 53.8191 314.024 53.7537C312.858 53.6744 311.802 53.2869 310.854 52.6014C310.813 52.5704 310.768 52.5411 310.72 52.5205C310.426 52.3878 310.119 52.5962 310.176 52.9132C310.198 53.0389 310.3 53.1801 310.407 53.2576C312.014 54.4288 313.791 54.8766 315.744 54.4236C317.138 54.0998 318.262 53.1732 318.31 51.4147C318.338 50.4226 317.99 49.6097 317.219 48.9793C316.643 48.5091 315.978 48.2043 315.288 47.9494C314.613 47.6996 313.927 47.4757 313.259 47.2105C312.78 47.021 312.349 46.7385 311.988 46.3648C311.628 45.9911 311.385 45.5518 311.423 45.0214C311.471 44.3393 311.797 43.7899 312.346 43.3886C313.111 42.8305 313.972 42.7479 314.874 42.9115C315.596 43.0424 316.273 43.2956 316.907 43.6642C317.12 43.7882 317.337 43.7382 317.458 43.5505C317.579 43.3628 317.535 43.1492 317.341 42.9976C317.258 42.9339 317.17 42.8753 317.081 42.8219C316.252 42.3207 315.343 42.0917 314.378 42.0607Z" fill="white"/>
</g>
<g clip-path="url(#clip2_116_14108)">
<rect x="363" y="41" width="48" height="48" rx="24" fill="white"/>
<rect x="363" y="41" width="48" height="48" fill="url(#paint1_linear_116_14108)"/>
<path fill-rule="evenodd" clip-rule="evenodd" d="M387.218 76.7269C387.01 76.7292 386.807 76.6749 386.625 76.5732C385.078 75.6798 373.627 68.5012 373.195 68.2814C372.866 68.1277 372.641 67.8133 372.601 67.4517V57.3847C372.592 57.0088 372.779 56.6543 373.093 56.4486L373.176 56.4014C374.285 55.7135 377.992 53.4515 378.578 53.1253C378.713 53.0449 378.867 53.0024 379.023 53C379.17 53.0024 379.314 53.0378 379.444 53.1064C379.444 53.1064 384.634 56.4888 385.428 56.789C385.986 57.0443 386.592 57.1719 387.206 57.1625C387.901 57.1767 388.587 57.0088 389.197 56.6779C389.973 56.269 394.931 53.1253 394.985 53.1253C395.111 53.0496 395.255 53.0118 395.399 53.0118C395.555 53.0118 395.709 53.0544 395.844 53.1371C396.52 53.5106 401.116 56.3234 401.313 56.4486C401.637 56.6425 401.833 56.9947 401.828 57.3729V67.4399C401.793 67.8015 401.566 68.1183 401.235 68.2695C400.802 68.5059 389.386 75.6845 387.809 76.5614C387.632 76.6678 387.429 76.7245 387.218 76.7269Z" fill="url(#paint2_linear_116_14108)"/>
<path fill-rule="evenodd" clip-rule="evenodd" d="M387.219 76.7626H387.159C386.952 76.765 386.75 76.7102 386.569 76.6102C385.028 75.7195 373.623 68.5631 373.192 68.3463C372.863 68.1963 372.637 67.8796 372.601 67.5199V57.4842C372.599 57.3152 372.637 57.1461 372.713 56.9937L387.219 64.9574V76.7626Z" fill="url(#paint3_linear_116_14108)"/>
<path fill-rule="evenodd" clip-rule="evenodd" d="M387.16 76.7597H387.22C387.427 76.7621 387.629 76.7073 387.81 76.6073C389.351 75.7166 400.756 68.5601 401.187 68.3434C401.516 68.1934 401.742 67.8766 401.778 67.517V57.4813C401.78 57.3122 401.742 57.1431 401.666 56.9907L387.16 64.9545V76.7597Z" fill="url(#paint4_linear_116_14108)"/>
<path fill-rule="evenodd" clip-rule="evenodd" d="M378.641 59.4707H380.116V66.5629H382.655V67.9626H378.648L378.641 59.4707Z" fill="white"/>
<path fill-rule="evenodd" clip-rule="evenodd" d="M386.07 61.5974C386.851 61.5872 387.59 61.9439 388.071 62.5589V61.7231H389.445V67.9727H388.071V67.1369C387.59 67.7535 386.851 68.1086 386.07 68.0984C384.356 68.0984 383.054 66.6341 383.054 64.8453C383.054 63.06 384.356 61.5974 386.07 61.5974ZM386.319 62.8493C385.207 62.8493 384.469 63.7259 384.469 64.847C384.469 65.9699 385.219 66.8481 386.319 66.8481C387.42 66.8481 388.169 65.9733 388.169 64.847C388.169 63.7225 387.432 62.8493 386.319 62.8493Z" fill="white"/>
<path fill-rule="evenodd" clip-rule="evenodd" d="M390.515 66.8892L393.794 62.9737H390.565V61.7251H395.569V62.8259L392.304 66.7261H395.644V67.9747H390.515V66.8892Z" fill="white"/>
</g>
<path d="M173.405 209.629L169.946 207.207V202.727C169.946 198.588 166.595 195.237 162.457 195.237H99.1928C95.0545 195.237 91.7031 198.588 91.7031 202.727V219.918C91.7031 224.056 95.0545 227.408 99.1928 227.408H162.457C166.595 227.408 169.946 224.056 169.946 219.918V214.891L173.216 213.087C174.544 212.357 174.641 210.492 173.405 209.629Z" fill="#4E40C4"/>
<path d="M113.794 223.335H102.907C99.2748 223.335 96.332 220.393 96.332 216.76V205.873C96.332 202.241 99.2748 199.298 102.907 199.298H113.794C117.427 199.298 120.37 202.241 120.37 205.873V216.76C120.364 220.393 117.422 223.335 113.794 223.335Z" fill="white"/>
<path d="M106.768 216.168L102.609 212.014L104.985 209.639L106.768 211.422L111.713 206.471L114.089 208.847L106.768 216.168Z" fill="#4E40C4"/>
<path d="M161.959 206.471H124.255C123.989 206.471 123.77 206.257 123.77 205.986V202.951C123.77 202.685 123.984 202.466 124.255 202.466H161.959C162.224 202.466 162.444 202.68 162.444 202.951V205.986C162.444 206.257 162.23 206.471 161.959 206.471Z" fill="white"/>
<path d="M161.959 213.665H124.255C123.989 213.665 123.77 213.45 123.77 213.179V210.145C123.77 209.879 123.984 209.659 124.255 209.659H161.959C162.224 209.659 162.444 209.874 162.444 210.145V213.179C162.444 213.445 162.23 213.665 161.959 213.665Z" fill="white"/>
<path d="M142.625 220.853H124.259C123.993 220.853 123.773 220.638 123.773 220.367V217.332C123.773 217.067 123.988 216.847 124.259 216.847H142.625C142.891 216.847 143.111 217.062 143.111 217.332V220.367C143.106 220.638 142.891 220.853 142.625 220.853Z" fill="white"/>
<path d="M125.895 359.37H135.336C141.896 359.37 147.215 354.052 147.215 347.492V326.606C147.215 325.043 145.948 323.771 144.379 323.771H116.847C115.284 323.771 114.012 325.038 114.012 326.606V347.492C114.017 354.052 119.335 359.37 125.895 359.37Z" fill="white"/>
<path d="M135.336 360.137H125.895C118.921 360.137 113.25 354.466 113.25 347.493V326.607C113.25 324.62 114.864 323.005 116.852 323.005H144.384C146.371 323.005 147.986 324.62 147.986 326.607V347.493C147.98 354.466 142.31 360.137 135.336 360.137ZM116.852 324.543C115.713 324.543 114.783 325.473 114.783 326.612V347.493C114.783 353.618 119.769 358.604 125.895 358.604H135.336C141.461 358.604 146.448 353.618 146.448 347.493V326.607C146.448 325.468 145.518 324.538 144.379 324.538H116.852V324.543Z" fill="#4E40C4"/>
<path d="M125.667 301.436C126.541 297.134 129.729 293.548 133.551 291.386C137.372 289.225 141.786 288.336 146.154 287.907C145.245 291.177 147.038 294.493 148.131 297.706C149.383 301.385 149.715 305.487 148.407 309.145C147.656 311.245 146.323 313.15 144.576 314.545C142.803 315.96 140.759 316.282 138.67 317.003C137.592 317.376 136.59 318.06 135.451 318.106C133.796 318.178 132.386 316.885 131.481 315.495C130.73 314.346 130.174 313.064 129.305 311.986C128.482 310.974 127.527 310.203 126.873 309.038C125.586 306.764 125.146 304 125.667 301.436Z" fill="#FF4C1E"/>
<path d="M103.603 305.717C104.006 302.263 105.217 298.957 105.938 295.55C106.678 292.035 106.893 288.413 106.571 284.836C110.556 289.48 117.744 289.511 122.884 292.827C125.903 294.773 128.049 297.849 129.193 301.226C130.465 304.991 130.552 308.879 129.004 312.552C128.938 312.716 128.866 312.879 128.795 313.043C128.325 314.126 127.86 315.214 127.39 316.297C127.16 316.834 126.864 317.426 126.307 317.6C126.056 317.677 125.791 317.651 125.53 317.646C123.66 317.6 121.918 318.407 120.105 318.734C118.475 319.03 116.605 319.01 114.945 318.969C111.711 318.887 108.282 318.029 106.045 315.541C103.72 312.951 103.194 309.17 103.603 305.717Z" fill="#FF4C1E"/>
<path d="M134.466 324.543C134.451 324.543 134.441 324.543 134.426 324.543C134.002 324.522 133.68 324.16 133.7 323.736C134.247 313.221 135.555 302.263 141.364 293.368C141.593 293.011 142.069 292.913 142.426 293.143C142.779 293.373 142.881 293.848 142.651 294.206C137.041 302.794 135.769 313.513 135.233 323.812C135.207 324.226 134.87 324.543 134.466 324.543Z" fill="#4E40C4"/>
<path d="M127.597 324.543C127.245 324.543 126.928 324.298 126.851 323.94C124.588 313.687 119.198 304 111.683 296.664C111.382 296.367 111.377 295.882 111.668 295.581C111.964 295.279 112.449 295.274 112.751 295.565C120.481 303.106 126.019 313.063 128.348 323.608C128.44 324.022 128.18 324.431 127.766 324.523C127.705 324.538 127.649 324.543 127.597 324.543Z" fill="#4E40C4"/>
<defs>
<linearGradient id="paint0_linear_116_14108" x1="290.199" y1="45" x2="338.199" y2="45" gradientUnits="userSpaceOnUse">
<stop stop-color="#FF6633"/>
<stop offset="1" stop-color="#F53E2D"/>
</linearGradient>
<linearGradient id="paint1_linear_116_14108" x1="387" y1="41" x2="387" y2="89" gradientUnits="userSpaceOnUse">
<stop stop-color="#0001BE"/>
<stop offset="1" stop-color="#0F1472"/>
</linearGradient>
<linearGradient id="paint2_linear_116_14108" x1="372.678" y1="64.9458" x2="401.633" y2="64.7215" gradientUnits="userSpaceOnUse">
<stop stop-color="#FB8D02"/>
<stop offset="0.33" stop-color="#F26418"/>
<stop offset="0.49975" stop-color="#F54856"/>
<stop offset="0.78" stop-color="#FD20B6"/>
<stop offset="1" stop-color="#FF04FA"/>
</linearGradient>
<linearGradient id="paint3_linear_116_14108" x1="372.601" y1="63.4614" x2="387.268" y2="71.2266" gradientUnits="userSpaceOnUse">
<stop stop-color="#FA7402"/>
<stop offset="1" stop-color="#F23C2E"/>
</linearGradient>
<linearGradient id="paint4_linear_116_14108" x1="401.778" y1="63.4584" x2="387.111" y2="71.2236" gradientUnits="userSpaceOnUse">
<stop stop-color="#F7019D"/>
<stop offset="1" stop-color="#F00A38"/>
</linearGradient>
<clipPath id="clip0_116_14108">
<rect x="419.801" y="93" width="48" height="48" rx="24" fill="white"/>
</clipPath>
<clipPath id="clip1_116_14108">
<rect x="290.199" y="21" width="48" height="48" rx="24" fill="white"/>
</clipPath>
<clipPath id="clip2_116_14108">
<rect x="363" y="41" width="48" height="48" rx="24" fill="white"/>
</clipPath>
</defs>
</svg>
