<svg width="592" height="420" viewBox="0 0 592 420" fill="none" xmlns="http://www.w3.org/2000/svg">
<path d="M301.883 191.648C301.458 191.648 301.115 191.305 301.115 190.88C301.115 190.456 301.458 190.113 301.883 190.113H307.989C308.414 190.113 308.772 190.456 308.772 190.88C308.772 191.305 308.444 191.648 308.02 191.648V190.88L308.009 191.648H301.883ZM295.776 191.648H289.67C289.245 191.648 288.902 191.305 288.902 190.88C288.902 190.456 289.245 190.113 289.67 190.113H295.776C296.201 190.113 296.544 190.456 296.544 190.88C296.544 191.305 296.201 191.648 295.776 191.648ZM283.559 191.648H277.452C277.028 191.648 276.685 191.305 276.685 190.88C276.685 190.456 277.028 190.113 277.452 190.113H283.559C283.983 190.113 284.326 190.456 284.326 190.88C284.326 191.305 283.983 191.648 283.559 191.648ZM271.341 191.648H271.336C269.058 191.633 266.919 190.732 265.312 189.115C265.015 188.813 265.015 188.326 265.317 188.029C265.619 187.727 266.105 187.733 266.402 188.035C267.722 189.36 269.478 190.102 271.351 190.113C271.776 190.118 272.114 190.461 272.114 190.885C272.104 191.31 271.761 191.648 271.341 191.648ZM313.501 189.335C313.307 189.335 313.112 189.263 312.964 189.115C312.662 188.818 312.657 188.331 312.954 188.029C314.085 186.873 314.781 185.342 314.909 183.725L314.97 182.978C315.001 182.553 315.375 182.235 315.794 182.271C316.219 182.307 316.531 182.676 316.501 183.095L316.439 183.843C316.286 185.818 315.436 187.681 314.049 189.099C313.901 189.258 313.701 189.335 313.501 189.335ZM263.576 183.843C263.152 183.843 262.809 183.5 262.809 183.075V183.07C262.809 182.844 262.819 182.614 262.834 182.384L263.264 176.922C263.295 176.498 263.674 176.18 264.088 176.216C264.513 176.252 264.825 176.62 264.795 177.04L264.365 182.502C264.349 182.691 264.344 182.88 264.344 183.07C264.344 183.494 264.001 183.843 263.576 183.843ZM316.219 177.716C316.199 177.716 316.178 177.716 316.158 177.716C315.733 177.685 315.421 177.311 315.451 176.892L315.933 170.801C315.963 170.376 316.337 170.059 316.757 170.094C317.181 170.13 317.494 170.499 317.463 170.919L316.982 177.009C316.951 177.409 316.613 177.716 316.219 177.716ZM264.518 171.661C264.498 171.661 264.477 171.661 264.457 171.661C264.032 171.625 263.72 171.256 263.75 170.837L264.232 164.746C264.267 164.321 264.641 164.004 265.056 164.039C265.48 164.075 265.793 164.444 265.762 164.864L265.281 170.954C265.25 171.359 264.912 171.661 264.518 171.661ZM317.181 165.534C317.161 165.534 317.141 165.534 317.12 165.534C316.695 165.503 316.383 165.13 316.414 164.71L316.895 158.619C316.926 158.194 317.299 157.877 317.719 157.913C318.144 157.949 318.456 158.317 318.425 158.737L317.944 164.828C317.913 165.232 317.576 165.534 317.181 165.534ZM265.48 159.484C265.46 159.484 265.44 159.484 265.419 159.484C264.994 159.448 264.682 159.08 264.713 158.66L265.194 152.569C265.23 152.144 265.598 151.827 266.018 151.863C266.443 151.899 266.755 152.267 266.724 152.687L266.243 158.778C266.212 159.177 265.88 159.484 265.48 159.484ZM318.144 153.357C318.123 153.357 318.103 153.357 318.082 153.357C317.657 153.327 317.345 152.953 317.376 152.533L317.806 147.087C317.821 146.898 317.826 146.708 317.826 146.519C317.826 146.094 318.169 145.741 318.594 145.741C319.019 145.741 319.362 146.074 319.362 146.499V146.519C319.362 146.744 319.352 146.975 319.336 147.205L318.906 152.651C318.876 153.05 318.543 153.357 318.144 153.357ZM266.448 147.302C266.427 147.302 266.407 147.302 266.386 147.302C265.962 147.266 265.649 146.898 265.68 146.478L265.736 145.746C265.895 143.765 266.745 141.897 268.137 140.479C268.434 140.177 268.92 140.172 269.222 140.469C269.524 140.766 269.529 141.252 269.232 141.554C268.091 142.716 267.395 144.247 267.267 145.869L267.21 146.601C267.18 146.995 266.842 147.302 266.448 147.302ZM316.311 141.769C316.117 141.769 315.917 141.692 315.769 141.544C314.448 140.218 312.688 139.481 310.814 139.471C310.389 139.471 310.046 139.123 310.052 138.698C310.052 138.273 310.415 137.941 310.824 137.936C313.102 137.951 315.247 138.847 316.854 140.459C317.156 140.761 317.151 141.247 316.854 141.544C316.705 141.698 316.511 141.769 316.311 141.769ZM304.713 139.471H298.602C298.177 139.471 297.834 139.128 297.834 138.703C297.834 138.278 298.177 137.936 298.602 137.936H304.713C305.138 137.936 305.481 138.278 305.481 138.703C305.481 139.128 305.138 139.471 304.713 139.471ZM292.495 139.471H286.384C285.959 139.471 285.616 139.128 285.616 138.703C285.616 138.278 285.959 137.936 286.384 137.936H292.495C292.92 137.936 293.263 138.278 293.263 138.703C293.263 139.128 292.92 139.471 292.495 139.471ZM280.278 139.471H274.182C273.757 139.471 273.409 139.128 273.409 138.703C273.409 138.278 273.747 137.936 274.171 137.936H280.278C280.703 137.936 281.045 138.278 281.045 138.703C281.045 139.128 280.703 139.471 280.278 139.471Z" fill="#4E40C4"/>
<path d="M324.37 334.431H309.915C308.6 334.431 307.535 333.366 307.535 332.051C307.535 329.676 309.46 327.746 311.84 327.746H322.45C324.825 327.746 326.755 329.671 326.755 332.051C326.75 333.361 325.685 334.431 324.37 334.431Z" fill="#4E40C4"/>
<path d="M256.305 240.242L269.838 269.227C270.227 270.062 271.328 270.267 271.988 269.627L314.148 228.981L330.015 246.062L276.472 305.553C269.122 313.717 256.3 313.64 249.047 305.394L233.861 288.12L231.43 258.781L256.305 240.242Z" fill="white"/>
<path d="M262.842 312.396C262.806 312.396 262.765 312.396 262.729 312.396C257.273 312.365 252.083 309.995 248.479 305.901L233.124 288.431L230.637 258.417L256.608 239.064L270.54 268.905C270.622 269.074 270.77 269.191 270.96 269.227C271.149 269.263 271.328 269.207 271.466 269.074L314.19 227.886L331.065 246.051L330.594 246.573L277.05 306.064C273.432 310.092 268.257 312.396 262.842 312.396ZM234.619 287.797L249.636 304.882C252.948 308.649 257.723 310.824 262.739 310.855C262.775 310.855 262.806 310.855 262.842 310.855C267.822 310.855 272.577 308.736 275.909 305.035L328.987 246.066L314.128 230.076L272.531 270.179C272.04 270.65 271.349 270.86 270.678 270.737C270.008 270.614 269.439 270.169 269.148 269.555L256.014 241.424L232.239 259.144L234.619 287.797Z" fill="#4E40C4"/>
<path d="M203.219 244.812C185.749 250.258 158.1 240.068 146.839 229.984C138.343 222.378 137.396 209.296 138.481 198.762C141.045 173.887 153.944 151.355 163.889 128.886C169.969 115.138 186.533 104.338 201.125 101.83C212.288 99.9103 224.143 103.851 232.434 111.57C240.721 119.289 245.45 130.503 245.926 141.82C246.802 162.703 238.423 186.811 229.01 205.16C222.5 217.838 219.137 239.853 203.219 244.812Z" fill="#FF4C1E"/>
<path d="M147.464 333.627L153.084 262.68H118.668C118.668 262.68 119.042 215.181 180.007 206.204L186.661 172.54L211.05 174.035V207.698C211.05 207.698 246.208 208.072 256.307 240.236L242.841 252.203L245.297 263.73C247.381 273.501 242.708 283.466 233.863 288.109L233.914 333.621H147.464V333.627Z" fill="white"/>
<path d="M234.689 334.394H146.642L152.262 263.448H117.902L117.907 262.675C117.913 262.184 118.092 250.442 125.821 237.416C132.945 225.413 148.111 210.125 179.902 205.446L180.127 206.966C148.935 211.558 134.097 226.488 127.146 238.204C120.733 249.009 119.658 259.103 119.479 261.918H153.926L148.306 332.864H233.154L233.102 287.658L233.512 287.443C242.019 282.98 246.559 273.296 244.552 263.904L241.998 251.942L255.424 240.006C251.252 227.159 242.582 217.956 229.653 212.648C219.846 208.625 211.129 208.476 211.042 208.476L211.057 206.941C211.421 206.946 220.112 207.084 230.18 211.204C239.5 215.023 251.728 223.115 257.036 240.016L257.184 240.492L243.682 252.495L246.047 263.581C248.161 273.496 243.477 283.702 234.628 288.579L234.689 334.394Z" fill="#4E40C4"/>
<path d="M186.226 174.757L180.928 201.568C180.37 204.398 178.22 206.655 175.421 207.351L164.8 210.003C162.722 210.52 162.143 213.202 163.827 214.532L197.102 240.816C198.254 241.727 199.938 241.491 200.798 240.299L220.77 212.516C221.824 211.052 221.087 208.989 219.347 208.518C217.458 208.012 215.17 207.479 213.44 207.351C212.094 207.249 211.055 206.133 211.055 204.782V176.472C211.055 175.111 209.995 173.979 208.634 173.897L188.918 172.689C187.628 172.602 186.476 173.488 186.226 174.757Z" fill="white"/>
<path d="M199.376 243.584L158.004 210.903L176.538 206.276C178.247 205.851 179.573 204.453 179.916 202.729L186.042 171.731L211.824 173.313V204.141C211.824 205.416 212.791 206.491 214.071 206.634C217.685 207.038 222.91 208.758 223.131 208.835L224.123 209.162L199.376 243.584ZM161.408 211.64L199.069 241.383L221.646 209.976C219.947 209.454 216.436 208.446 213.897 208.159C211.839 207.929 210.288 206.199 210.288 204.141V174.762L187.291 173.349L181.426 203.025C180.97 205.334 179.199 207.197 176.911 207.765L161.408 211.64Z" fill="#4E40C4"/>
<path d="M185.144 153.637C185.256 149.09 181.66 145.314 177.113 145.202C172.566 145.091 168.79 148.687 168.678 153.234C168.567 157.781 172.163 161.557 176.71 161.669C181.257 161.78 185.033 158.184 185.144 153.637Z" fill="white"/>
<path d="M176.947 162.447C176.655 162.447 176.359 162.431 176.062 162.406C173.666 162.176 171.506 161.024 169.976 159.166C168.445 157.308 167.734 154.969 167.964 152.573C168.195 150.178 169.346 148.018 171.204 146.488C173.062 144.957 175.401 144.246 177.797 144.476C180.192 144.706 182.352 145.858 183.883 147.716C185.413 149.574 186.124 151.913 185.894 154.309C185.664 156.704 184.512 158.864 182.654 160.394C181.027 161.735 179.03 162.447 176.947 162.447ZM176.916 145.971C175.192 145.971 173.533 146.564 172.182 147.675C170.641 148.944 169.689 150.736 169.495 152.722C169.3 154.708 169.894 156.648 171.163 158.188C172.433 159.729 174.224 160.681 176.21 160.875C178.196 161.07 180.136 160.476 181.677 159.207C183.217 157.937 184.169 156.146 184.364 154.16C184.558 152.174 183.965 150.234 182.695 148.694C181.426 147.153 179.634 146.201 177.648 146.006C177.408 145.981 177.162 145.971 176.916 145.971Z" fill="#4E40C4"/>
<path d="M179.236 132.929C179.236 132.929 165.785 186.227 203.855 193.157C241.926 200.088 232.979 128.763 232.979 128.763C232.979 128.763 209.337 95.6569 179.236 132.929Z" fill="white"/>
<path d="M208.838 194.397C207.201 194.397 205.496 194.233 203.72 193.911C188.15 191.075 178.783 179.958 176.638 161.752C176.587 161.332 176.889 160.948 177.309 160.902C177.729 160.856 178.113 161.153 178.164 161.572C180.252 179.287 188.943 189.657 203.996 192.401C211.213 193.711 217.181 192.191 221.742 187.876C237.537 172.93 232.276 129.296 232.219 128.856C232.168 128.436 232.465 128.052 232.885 128.001C233.304 127.95 233.688 128.247 233.739 128.666C233.97 130.488 239.155 173.509 222.796 188.992C218.993 192.59 214.315 194.397 208.838 194.397Z" fill="#4E40C4"/>
<path d="M217.455 125.241C220.664 136.783 230.369 146.268 241.952 149.17C242.771 140.034 240.718 130.759 236.818 122.462C234.94 118.47 232.59 114.616 229.253 111.739C223.853 107.076 216.416 105.459 209.296 105.5C199.065 105.561 188.874 108.791 180.459 114.631C173.299 119.606 168.334 126.147 164.787 134.045C164.249 135.243 163.307 136.174 162.678 137.311C161.992 138.554 161.869 139.967 162.12 141.354C162.422 143.064 163.159 144.625 164.92 145.116C166.675 145.603 168.656 145.449 170.463 145.684C172.838 145.997 175.228 146.15 177.624 146.109C187.221 145.951 196.756 142.946 204.756 137.633C209.711 134.347 214.082 130.155 217.455 125.241Z" fill="#FF4C1E"/>
<path d="M176.471 101.83C178.38 104.323 179.444 107.419 179.603 110.552C179.659 111.724 179.864 113.336 179.342 114.406C178.61 115.911 177.494 117.288 176.276 118.424C175.513 119.135 174.664 119.663 173.835 120.282C172.801 121.05 172.13 121.746 170.861 122.345C165.845 124.704 159.457 123.814 155.326 120.123C151.196 116.433 149.614 110.117 151.585 104.942C153.392 100.192 158.024 96.6758 163.071 96.0872C168.122 95.4883 173.379 97.7916 176.471 101.83Z" fill="#FF4C1E"/>
<path d="M152.612 262.681C152.612 262.681 160.715 303.382 188.625 308.941C190.959 309.407 233.765 321.701 233.765 321.701C233.765 321.701 233.652 329.675 233.765 333.627H146.992L152.612 262.681Z" fill="#4E40C4"/>
<path d="M286.084 254.963L264.422 275.843L265.488 276.948L287.149 256.069L286.084 254.963Z" fill="#4E40C4"/>
<path d="M215.593 172.126C215.475 172.126 215.357 172.11 215.239 172.075L211.564 170.959C211.16 170.836 210.93 170.406 211.053 170.002C211.175 169.597 211.605 169.367 212.01 169.49L215.25 170.473L214.733 158.265C214.712 157.84 215.045 157.482 215.47 157.467C215.889 157.446 216.253 157.779 216.268 158.204L216.806 170.867C216.821 171.261 216.647 171.634 216.335 171.875C216.12 172.039 215.859 172.126 215.593 172.126ZM215.27 170.923H215.275H215.27Z" fill="#4E40C4"/>
<path d="M226.928 151.003C226.795 151.003 226.667 150.967 226.544 150.901C222.854 148.761 219.506 150.86 219.475 150.88C219.117 151.111 218.646 151.008 218.416 150.65C218.186 150.292 218.288 149.821 218.646 149.59C218.815 149.483 222.823 146.97 227.317 149.57C227.685 149.785 227.808 150.251 227.598 150.619C227.45 150.87 227.189 151.003 226.928 151.003Z" fill="#4E40C4"/>
<path d="M197.06 150.47C196.82 150.47 196.579 150.357 196.431 150.142C196.19 149.794 196.272 149.318 196.62 149.078C196.784 148.965 200.689 146.288 205.28 148.709C205.654 148.909 205.797 149.37 205.603 149.748C205.403 150.122 204.937 150.265 204.564 150.071C200.817 148.095 197.633 150.245 197.5 150.337C197.367 150.424 197.214 150.47 197.06 150.47Z" fill="#4E40C4"/>
<path d="M224.694 156.98C224.694 158.081 223.947 158.971 223.031 158.971C222.109 158.971 221.367 158.081 221.367 156.98C221.367 155.88 222.114 154.989 223.031 154.989C223.947 154.989 224.694 155.88 224.694 156.98Z" fill="#4E40C4"/>
<path d="M204.202 156.98C204.202 158.081 203.455 158.971 202.538 158.971C201.622 158.971 200.875 158.081 200.875 156.98C200.875 155.88 201.622 154.989 202.538 154.989C203.455 154.989 204.202 155.88 204.202 156.98Z" fill="#4E40C4"/>
<path d="M209.961 177.312C210.504 175.733 209.554 173.973 207.838 173.383C206.122 172.792 204.29 173.594 203.746 175.174C203.202 176.754 204.153 178.513 205.869 179.103C207.585 179.694 209.417 178.892 209.961 177.312Z" fill="#FF4C1E"/>
<path d="M208.44 177.894C207.416 177.894 206.495 177.664 205.691 177.198C203.782 176.103 203.27 174.107 203.249 174.025C203.147 173.615 203.398 173.196 203.813 173.093C204.222 172.991 204.637 173.242 204.739 173.651C204.744 173.672 205.133 175.12 206.474 175.878C207.498 176.461 208.839 176.512 210.461 176.036C210.866 175.919 211.296 176.149 211.413 176.558C211.531 176.968 211.301 177.393 210.891 177.51C210.021 177.766 209.202 177.894 208.44 177.894Z" fill="#4E40C4"/>
<path d="M303.411 334.349H225.457C224.643 334.349 223.988 333.689 223.988 332.88V332.819C223.988 332.005 224.649 331.35 225.457 331.35H303.411C304.224 331.35 304.88 332.01 304.88 332.819V332.88C304.88 333.694 304.219 334.349 303.411 334.349Z" fill="#2D2382"/>
<path d="M511.227 335.418H80.1701C79.7453 335.418 79.4023 335.075 79.4023 334.651C79.4023 334.226 79.7453 333.883 80.1701 333.883H511.227C511.652 333.883 511.995 334.226 511.995 334.651C511.995 335.07 511.652 335.418 511.227 335.418Z" fill="#4E40C4"/>
<path d="M460.919 301.396H296.428C287.287 301.396 280.08 293.616 280.782 284.501L288.915 178.539C289.826 166.649 299.74 157.467 311.666 157.467H476.156C485.298 157.467 492.504 165.247 491.803 174.363L483.67 280.324C482.754 292.214 472.84 301.396 460.919 301.396Z" fill="#4E40C4"/>
<path d="M282.355 284.501L290.488 178.539C291.4 166.649 301.314 157.467 313.24 157.467H311.658C299.732 157.467 289.823 166.649 288.907 178.539L280.774 284.501C280.073 293.616 287.279 301.396 296.421 301.396H298.002C288.861 301.396 281.654 293.616 282.355 284.501Z" fill="#2D2382"/>
<path d="M377.216 334.651H365.52L361.938 228.479H366.979L377.216 334.651Z" fill="#2D2382"/>
<path d="M413.257 334.651H377.213L366.977 228.479H403.02L413.257 334.651Z" fill="#4E40C4"/>
<path d="M409.233 293.698C408.844 293.698 408.506 293.402 408.47 293.002L402.656 232.677C402.466 230.722 400.844 229.247 398.878 229.247H372.334C371.909 229.247 371.566 228.905 371.566 228.48C371.566 228.055 371.909 227.712 372.334 227.712H398.878C401.637 227.712 403.915 229.785 404.181 232.528L409.995 292.854C410.036 293.274 409.729 293.652 409.304 293.693C409.284 293.693 409.258 293.698 409.233 293.698Z" fill="#2D2382"/>
<path d="M369.568 334.65H331.794C330.473 334.65 329.398 333.58 329.398 332.255C329.398 331.052 330.294 330.033 331.487 329.88L369.563 325.027V334.65H369.568Z" fill="#2D2382"/>
<path d="M392.742 289.942H389.21C386.871 289.942 384.931 288.186 384.706 285.852L381.747 255.306C381.65 254.318 381.978 253.325 382.648 252.588C383.319 251.851 384.271 251.426 385.269 251.426H388.8C391.14 251.426 393.079 253.181 393.305 255.515L396.263 286.062C396.36 287.05 396.033 288.043 395.362 288.78C394.687 289.517 393.735 289.942 392.742 289.942ZM385.264 252.966C384.69 252.966 384.168 253.202 383.784 253.622C383.401 254.046 383.221 254.589 383.278 255.157L386.236 285.704C386.385 287.244 387.664 288.406 389.21 288.406H392.742C393.315 288.406 393.837 288.171 394.221 287.751C394.605 287.326 394.784 286.784 394.733 286.216L391.774 255.669C391.626 254.128 390.346 252.966 388.8 252.966H385.264Z" fill="#2D2382"/>
<path d="M268.042 325.862L268.876 330.561C268.938 330.894 268.615 331.17 268.293 331.058L263.358 329.343L239.609 299.047C238.964 298.315 238.995 297.21 239.676 296.514C240.423 295.751 241.651 295.771 242.373 296.554L268.042 325.862Z" fill="#4E40C4"/>
<path d="M118.673 262.681L114.752 299.564C113.268 313.527 123.853 325.857 137.877 326.497C169.284 327.925 219.511 329.435 230.879 325.141C230.879 325.141 239.094 329.164 242.18 330.74C242.441 330.873 242.723 330.94 243.009 330.94C244.688 330.94 245.487 328.882 244.253 327.746L237.144 321.215L252.565 331.017C253 331.293 253.543 331.334 254.014 331.124C255.063 330.653 255.242 329.246 254.347 328.524L239.478 316.629L259.7 329.097C260.32 329.476 261.098 329.486 261.722 329.118C262.951 328.391 263.017 326.641 261.845 325.827L244.437 313.732L256.312 315.508L260.223 319.823C261.343 321.056 263.217 321.241 264.558 320.243C264.957 319.941 265.065 319.388 264.803 318.958L259.675 310.548L230.781 308.306C230.781 308.306 177.755 296.887 157.609 296.662C154.835 296.631 152.603 294.369 152.649 291.59L153.089 262.676H118.673V262.681Z" fill="white"/>
<path d="M253.365 332.035C252.95 332.035 252.541 331.918 252.183 331.692L244.05 326.523L244.771 327.183C245.57 327.915 245.831 329.041 245.437 330.049C245.043 331.058 244.09 331.708 243.005 331.708C242.591 331.708 242.192 331.61 241.823 331.426C239.105 330.039 232.318 326.707 230.829 325.975C219.251 330.013 173.973 328.913 137.837 327.265C130.846 326.948 124.478 323.846 119.918 318.533C115.352 313.215 113.243 306.453 113.986 299.482L117.978 261.913H153.868L153.418 291.457C153.397 292.629 153.843 293.739 154.662 294.584C155.47 295.418 156.55 295.884 157.707 295.894C177.49 296.145 228.981 307.134 230.895 307.544L260.126 309.816L265.46 318.559C265.931 319.326 265.741 320.314 265.015 320.857C263.351 322.1 261.048 321.875 259.656 320.34L255.929 316.225L247.576 314.976C251.446 317.663 258.514 322.576 262.286 325.187C263.054 325.719 263.494 326.594 263.459 327.526C263.423 328.463 262.921 329.307 262.112 329.783L262.066 329.809C261.222 330.305 260.178 330.295 259.338 329.778L249.803 323.892C251.717 325.422 253.534 326.876 254.834 327.915C255.464 328.422 255.781 329.2 255.679 330.003C255.576 330.807 255.069 331.488 254.332 331.82C254.005 331.969 253.682 332.035 253.365 332.035ZM237.549 320.565L253.007 330.392C253.201 330.515 253.442 330.536 253.657 330.438C254.051 330.259 254.128 329.942 254.148 329.814C254.164 329.686 254.169 329.363 253.867 329.118C249.419 325.566 238.998 317.228 238.998 317.228L239.883 315.974L260.142 328.473C260.49 328.688 260.93 328.693 261.283 328.483L261.329 328.458C261.688 328.243 261.903 327.884 261.923 327.465C261.938 327.05 261.754 326.681 261.411 326.441C256.047 322.725 243.998 314.351 243.998 314.351L241.296 312.473L256.692 314.776L260.787 319.296C261.647 320.242 263.064 320.381 264.093 319.618C264.18 319.557 264.201 319.439 264.144 319.352L259.22 311.28L230.619 309.054C230.092 308.941 177.592 297.681 157.687 297.425C156.12 297.404 154.657 296.775 153.561 295.649C152.456 294.512 151.862 293.013 151.882 291.426L152.307 263.438H119.36L115.511 299.636C114.815 306.177 116.796 312.529 121.08 317.525C125.364 322.51 131.342 325.422 137.909 325.724C167.647 327.081 219.235 328.708 230.603 324.414L230.916 324.296L231.213 324.445C231.294 324.486 239.469 328.488 242.524 330.049C242.673 330.126 242.836 330.162 243.005 330.162C243.686 330.162 243.942 329.64 244.003 329.481C244.065 329.323 244.229 328.765 243.732 328.304L236.623 321.773L237.549 320.565Z" fill="#4E40C4"/>
<path d="M143.202 304.017C143.058 304.017 142.92 303.976 142.792 303.9C142.434 303.674 142.332 303.198 142.557 302.84C142.69 302.63 145.879 297.701 150.731 297.379C151.145 297.343 151.519 297.67 151.55 298.095C151.575 298.52 151.258 298.883 150.833 298.914C146.749 299.191 143.877 303.623 143.852 303.669C143.703 303.889 143.452 304.017 143.202 304.017Z" fill="#4E40C4"/>
<path d="M382.308 118.476L380.66 143.894H397.904L399.552 118.476H382.308Z" fill="#4E40C4"/>
<path d="M367.777 118.475C366.221 118.475 365.003 119.596 364.89 121.131L363.539 140.151C363.401 142.107 365.085 143.888 367.066 143.888H380.66L382.308 118.47H367.777V118.475Z" fill="#2D2382"/>
<path d="M399.554 118.476L397.906 143.894H415.15L416.798 118.476H399.554Z" fill="#8F7CDB"/>
<path d="M464.623 118.476H451.285L449.637 143.894H463.912C465.468 143.894 466.686 142.773 466.799 141.237L468.15 122.217C468.293 120.257 466.609 118.476 464.623 118.476Z" fill="#FF8965"/>
<path d="M433.886 118.476L432.238 143.894H449.641L451.284 118.476H433.886Z" fill="#FF4C1E"/>
<path d="M416.801 118.476L415.152 143.894H432.243L433.891 118.476H416.801Z" fill="#CFC7EF"/>
<path d="M225.421 290.274C224.147 290.274 222.749 290.202 221.209 290.028C220.789 289.982 220.482 289.603 220.528 289.179C220.574 288.759 220.953 288.452 221.378 288.498C231.031 289.568 234.906 286.573 234.947 286.543C235.274 286.276 235.76 286.328 236.027 286.655C236.293 286.983 236.247 287.464 235.919 287.73C235.771 287.863 232.735 290.274 225.421 290.274Z" fill="#4E40C4"/>
<path d="M102.517 286.809C101.529 286.809 100.73 287.638 100.73 288.656L104.221 306.903H107.799L104.308 288.656C104.303 287.638 103.505 286.809 102.517 286.809Z" fill="#4E40C4"/>
<path d="M121.7 286.809C122.688 286.809 123.487 287.638 123.487 288.656L119.996 306.903H116.418L119.909 288.656C119.914 287.638 120.717 286.809 121.7 286.809Z" fill="#FF4C1E"/>
<path d="M108.892 286.809H108.529C107.644 286.809 106.922 287.525 106.922 288.416V306.909H110.5V288.416C110.495 287.53 109.778 286.809 108.892 286.809Z" fill="#FF4C1E"/>
<path d="M115.865 286.809H115.502C114.616 286.809 113.895 287.525 113.895 288.416V306.909H117.472V288.416C117.467 287.53 116.751 286.809 115.865 286.809Z" fill="#2D2382"/>
<path d="M113.227 284.838C112.239 284.838 111.441 285.667 111.441 286.686L109.695 306.908H113.273L115.018 286.686C115.013 285.662 114.215 284.838 113.227 284.838Z" fill="#4E40C4"/>
<path d="M117.061 334.927H106.722C102.899 334.927 99.7969 331.825 99.7969 328.002V301.233C99.7969 300.598 100.314 300.081 100.949 300.081H122.835C123.47 300.081 123.986 300.598 123.986 301.233V328.002C123.986 331.825 120.885 334.927 117.061 334.927Z" fill="white"/>
<path d="M117.056 335.694H106.716C102.473 335.694 99.0234 332.244 99.0234 328.001V301.232C99.0234 300.172 99.8833 299.312 100.943 299.312H122.829C123.889 299.312 124.749 300.172 124.749 301.232V328.001C124.749 332.239 121.299 335.694 117.056 335.694ZM100.943 300.848C100.733 300.848 100.559 301.022 100.559 301.232V328.001C100.559 331.395 103.323 334.159 106.716 334.159H117.056C120.449 334.159 123.213 331.395 123.213 328.001V301.232C123.213 301.022 123.039 300.848 122.829 300.848H100.943Z" fill="#4E40C4"/>
<path d="M341.307 123.261H294.418C291.285 123.261 288.649 120.441 288.895 117.354L291.3 87.2938C291.495 84.8676 293.435 83.0967 295.897 83.0967H342.786C345.919 83.0967 348.555 85.9169 348.309 89.0033L345.904 119.064C345.709 121.49 343.769 123.261 341.307 123.261Z" fill="#4E40C4"/>
<path d="M311.878 92.9492H326.169C326.824 92.9492 328.211 92.9492 328.211 92.9492L327.377 100.448H327.1C327.054 99.0401 326.808 98.1444 326.363 97.7605C325.918 97.3766 325.345 97.1821 324.643 97.1821H320.825L319.356 110.362C319.295 110.899 319.305 111.355 319.387 111.729C319.464 112.102 319.678 112.409 320.021 112.645C320.364 112.88 320.892 112.998 321.608 112.998L321.562 113.402H311.939L311.986 112.998C313.05 112.998 313.767 112.757 314.135 112.276C314.504 111.795 314.734 111.155 314.821 110.362L316.29 97.1821H312.472C311.822 97.1821 311.274 97.3869 310.819 97.8015C310.363 98.2161 309.872 99.0964 309.329 100.448H309.012L309.846 92.9492C309.836 92.9492 311.218 92.9492 311.878 92.9492Z" fill="white"/>
<path d="M462.467 265.921C462.467 265.921 432.284 258.699 431.184 232.482C431.184 232.482 436.911 239.751 445.065 241.516C445.065 241.516 463.353 250.233 462.467 265.921Z" fill="#FF4C1E"/>
<path d="M496.518 256.468C496.518 256.468 500.285 273.988 475.983 277.003C475.983 277.003 472.344 271.588 482.483 265.2C484.086 264.191 485.908 263.623 487.776 263.321C490.197 262.927 494.072 261.489 496.518 256.468Z" fill="#FF4C1E"/>
<path d="M477.207 224.094C477.207 224.094 451.073 250.177 469.54 272.539C469.54 272.539 475.17 269.689 478.615 260.143C480.888 253.847 480.918 246.983 479.152 240.529C478.144 236.869 477.156 231.382 477.207 224.094Z" fill="#FF4C1E"/>
<path d="M449.803 262.948C449.803 262.948 439.674 257.988 432.012 271.767C432.012 271.767 445.76 265.589 446.343 273.441C446.343 273.441 449.609 283.304 458.064 284.911C458.064 284.911 462.973 266.608 449.803 262.948Z" fill="#FF4C1E"/>
<path d="M461.135 304.78C460.73 304.78 460.387 304.463 460.367 304.053C460.029 297.537 462.527 291.411 464.943 285.484C466.673 281.235 468.464 276.844 469.186 272.36C469.59 269.862 469.667 267.267 469.744 264.754L469.774 263.853C470.107 253.698 471.049 243.456 472.584 233.414C472.646 232.994 473.035 232.708 473.46 232.769C473.879 232.83 474.166 233.225 474.105 233.644C472.584 243.63 471.643 253.811 471.315 263.904L471.289 264.8C471.208 267.359 471.126 270.011 470.711 272.6C469.964 277.258 468.137 281.732 466.376 286.062C463.914 292.096 461.59 297.798 461.907 303.971C461.928 304.396 461.605 304.754 461.181 304.78C461.16 304.78 461.15 304.78 461.135 304.78Z" fill="#2D2382"/>
<path d="M466.772 300.767C466.399 300.767 466.066 300.491 466.015 300.107C464.75 291.258 466.864 283.375 471.814 278.482C474.168 276.148 477.127 274.52 479.988 272.944C483.637 270.927 487.087 269.028 489.319 265.814C489.559 265.466 490.041 265.379 490.389 265.619C490.737 265.86 490.824 266.341 490.583 266.689C488.147 270.2 484.374 272.278 480.73 274.29C477.961 275.815 475.1 277.397 472.894 279.577C468.298 284.128 466.342 291.534 467.535 299.897C467.596 300.317 467.305 300.706 466.885 300.767C466.844 300.762 466.808 300.767 466.772 300.767Z" fill="#2D2382"/>
<path d="M463.178 294.989C462.896 294.989 462.625 294.835 462.492 294.564C460.491 290.546 460.649 285.832 461.013 282.177C461.105 281.271 461.212 280.37 461.32 279.464C461.683 276.398 462.062 273.23 461.704 270.174C461.146 265.409 458.745 260.879 455.122 257.742C452.752 255.689 449.86 254.205 447.07 252.772C446.011 252.229 444.915 251.666 443.856 251.078C438.712 248.222 435.666 245.192 434.259 241.537C434.105 241.143 434.305 240.698 434.699 240.544C435.093 240.39 435.538 240.59 435.692 240.984C436.961 244.28 439.792 247.06 444.603 249.732C445.642 250.31 446.727 250.868 447.777 251.405C450.653 252.879 453.622 254.41 456.135 256.58C460.045 259.968 462.635 264.856 463.239 269.995C463.618 273.23 463.229 276.491 462.855 279.644C462.748 280.539 462.64 281.435 462.553 282.331C462.21 285.786 462.047 290.218 463.879 293.883C464.068 294.262 463.915 294.722 463.536 294.912C463.408 294.963 463.29 294.989 463.178 294.989Z" fill="#2D2382"/>
<path d="M466.139 303.107C465.755 303.107 465.428 302.82 465.376 302.431C464.875 298.275 462.566 294.411 460.529 291.002L448.716 271.224C448.214 270.385 447.697 269.52 446.96 268.957C445.962 268.199 444.596 268.025 443.516 267.964C441.427 267.841 439.339 268.051 437.317 268.583C436.908 268.691 436.488 268.445 436.381 268.036C436.273 267.626 436.519 267.206 436.928 267.099C439.109 266.526 441.356 266.301 443.608 266.434C444.908 266.51 446.566 266.73 447.892 267.739C448.865 268.481 449.489 269.52 450.037 270.441L461.85 290.219C463.964 293.761 466.359 297.774 466.907 302.252C466.958 302.672 466.656 303.056 466.236 303.107C466.201 303.102 466.17 303.107 466.139 303.107Z" fill="#2D2382"/>
<path d="M477.151 334.652H456.908C454.548 334.652 452.542 332.917 452.204 330.578L446.84 293.311H486.021L481.865 330.429C481.599 332.83 479.567 334.652 477.151 334.652Z" fill="white"/>
<path d="M477.152 335.42H456.909C454.186 335.42 451.837 333.388 451.448 330.69L445.961 292.548H486.888L482.639 330.516C482.322 333.311 479.962 335.42 477.152 335.42ZM447.732 294.078L452.968 330.465C453.25 332.41 454.944 333.879 456.909 333.879H477.152C479.184 333.879 480.884 332.359 481.109 330.342L485.168 294.078H447.732Z" fill="#4E40C4"/>
<path d="M487.234 297.635H445.631C444.889 297.635 444.285 297.031 444.285 296.289V292.962C444.285 292.22 444.889 291.616 445.631 291.616H487.234C487.976 291.616 488.58 292.22 488.58 292.962V296.289C488.58 297.037 487.976 297.635 487.234 297.635Z" fill="white"/>
<path d="M487.342 298.402H460.798C460.373 298.402 460.03 298.059 460.03 297.635C460.03 297.21 460.373 296.867 460.798 296.867H487.342C487.603 296.867 487.818 296.652 487.818 296.391V292.859C487.818 292.598 487.603 292.383 487.342 292.383H445.535C445.274 292.383 445.059 292.598 445.059 292.859V296.391C445.059 296.652 445.274 296.867 445.535 296.867H451.636C452.061 296.867 452.404 297.21 452.404 297.635C452.404 298.059 452.061 298.402 451.636 298.402H445.535C444.424 298.402 443.523 297.502 443.523 296.391V292.859C443.523 291.748 444.424 290.848 445.535 290.848H487.342C488.453 290.848 489.354 291.748 489.354 292.859V296.391C489.354 297.502 488.453 298.402 487.342 298.402Z" fill="#4E40C4"/>
</svg>
