<svg width="32" height="32" viewBox="0 0 32 32" fill="none" xmlns="http://www.w3.org/2000/svg">
<path d="M3 11C3 5.47715 7.47715 1 13 1C14.1046 1 15 1.89543 15 3V11C15 12.1046 14.1046 13 13 13H5C3.89543 13 3 12.1046 3 11Z" fill="white"/>
<path d="M3 15H7C11.4183 15 15 18.5817 15 23V31H11C6.58172 31 3 27.4183 3 23V15Z" fill="white"/>
<path d="M17 7C17 3.68629 19.6863 1 23 1C26.3137 1 29 3.68629 29 7C29 10.3137 26.3137 13 23 13C19.6863 13 17 10.3137 17 7Z" fill="white"/>
<path d="M17 17C17 15.8954 17.8954 15 19 15H23C26.3137 15 29 17.6863 29 21C29 24.3137 26.3137 27 23 27C19.6863 27 17 24.3137 17 21V17Z" fill="white"/>
</svg>
